<svg width="28" height="28" viewBox="0 0 28 28" fill="none" xmlns="http://www.w3.org/2000/svg">
<path d="M14 10.5C12.067 10.5 10.5 12.067 10.5 14C10.5 15.933 12.067 17.5 14 17.5C15.933 17.5 17.5 15.933 17.5 14C17.5 12.067 15.933 10.5 14 10.5Z" fill="#4F7BED"/>
<path d="M6.40828 20.2792C8.79922 21.9188 11.358 22.75 14.0131 22.75C16.4024 22.75 18.7316 22.0391 20.936 20.6456C23.1591 19.2374 25.3384 16.6797 27.125 14C25.6802 11.5938 23.7038 9.11969 21.6453 7.70109C19.2839 6.07469 16.7163 5.25 14.0131 5.25C11.3334 5.25 8.77133 6.07414 6.39516 7.69945C4.30336 9.13281 2.31273 11.6036 0.875 14C2.31766 16.3751 4.31484 18.8431 6.40828 20.2792ZM14 8.75C15.0384 8.75 16.0534 9.05791 16.9167 9.63478C17.7801 10.2117 18.453 11.0316 18.8504 11.9909C19.2477 12.9502 19.3517 14.0058 19.1491 15.0242C18.9466 16.0426 18.4465 16.9781 17.7123 17.7123C16.9781 18.4465 16.0426 18.9465 15.0242 19.1491C14.0058 19.3517 12.9502 19.2477 11.9909 18.8504C11.0316 18.453 10.2117 17.7801 9.63478 16.9167C9.05791 16.0534 8.75 15.0384 8.75 14C8.75159 12.6081 9.30523 11.2737 10.2894 10.2894C11.2737 9.30523 12.6081 8.75159 14 8.75Z" fill="#4F7BED"/>
</svg>
