<svg width="25" height="25" viewBox="0 0 25 25" fill="none" xmlns="http://www.w3.org/2000/svg">
<g clip-path="url(#clip0_48_33)">
<path d="M24.2891 10.2468C24.435 11.0858 24.5076 11.9359 24.5063 12.7874C24.5063 16.5905 23.1469 19.8062 20.7812 21.9827H20.7844C18.7156 23.8937 15.8719 24.9999 12.5 24.9999C9.18479 24.9999 6.00537 23.683 3.66117 21.3388C1.31696 18.9946 0 15.8151 0 12.4999C0 9.18472 1.31696 6.00529 3.66117 3.66109C6.00537 1.31688 9.18479 -7.70956e-05 12.5 -7.70956e-05C15.6027 -0.0346301 18.5988 1.13089 20.8625 3.25305L17.2937 6.8218C16.0034 5.5925 14.2819 4.91916 12.5 4.9468C9.23906 4.9468 6.46875 7.1468 5.48125 10.1093C4.95859 11.6618 4.95859 13.3427 5.48125 14.8952H5.48594C6.47812 17.853 9.24375 20.053 12.5047 20.053C14.1891 20.053 15.6359 19.6218 16.7578 18.8593H16.7531C17.4047 18.4279 17.962 17.8688 18.3914 17.216C18.8208 16.5631 19.1134 15.83 19.2516 15.0609H12.5V10.2484L24.2891 10.2468Z" fill="#FF3434"/>
</g>
<defs>
<clipPath id="clip0_48_33">
<rect width="25" height="25" fill="white"/>
</clipPath>
</defs>
</svg>
