<svg width="529" height="101" viewBox="0 0 529 101" fill="none" xmlns="http://www.w3.org/2000/svg">
<mask id="path-1-outside-1_296_72" maskUnits="userSpaceOnUse" x="-1" y="-0.5" width="530" height="102" fill="black">
<rect fill="white" x="-1" y="-0.5" width="530" height="102"/>
<path d="M31.4379 82.4C24.9712 82.4 19.4046 80.7667 14.7379 77.5C10.0712 74.2333 6.50456 69.6 4.03789 63.6C1.57122 57.5333 0.337891 50.3667 0.337891 42.1C0.337891 33.8333 1.50456 26.6667 3.83789 20.6C6.23789 14.4667 9.77122 9.76666 14.4379 6.5C19.1046 3.16666 24.7712 1.5 31.4379 1.5C38.4379 1.5 44.8379 3.23333 50.6379 6.7C56.5046 10.1667 61.1379 14.9333 64.5379 21C68.0046 27 69.7379 33.7333 69.7379 41.2C69.7379 49.5333 67.7046 57.0333 63.6379 63.7L70.9379 71.1C71.4712 71.6333 71.7379 72.1333 71.7379 72.6C71.7379 73.1333 71.4712 73.6667 70.9379 74.2L60.6379 84.5C60.1046 85.0333 59.5712 85.3 59.0379 85.3C58.5712 85.3 58.0712 85.0333 57.5379 84.5L50.2379 77.2C44.6379 80.6667 38.3712 82.4 31.4379 82.4ZM17.4379 13.1C17.4379 14.1 17.6379 15.1333 18.0379 16.2C18.4379 17.2667 18.8046 17.8 19.1379 17.8C19.4712 17.8 19.8379 17.2667 20.2379 16.2C20.6379 15.1333 20.8379 14.1 20.8379 13.1C20.8379 11.3 20.2712 10.4 19.1379 10.4C18.0046 10.4 17.4379 11.3 17.4379 13.1ZM19.3379 42.2C19.3379 49.3333 20.5046 54.8 22.8379 58.6C25.1712 62.4 28.6712 64.3 33.3379 64.3C34.3379 64.3 35.5046 64.1333 36.8379 63.8L29.9379 56.9C29.4712 56.3 29.2379 55.7667 29.2379 55.3C29.2379 54.7667 29.4712 54.2667 29.9379 53.8L40.2379 43.4C40.7046 42.9333 41.2379 42.7 41.8379 42.7C42.4379 42.7 42.9712 42.9333 43.4379 43.4L49.7379 49.8C50.5379 47.4 50.9379 44.9 50.9379 42.3C50.9379 38.3 50.1046 34.6 48.4379 31.2C46.7712 27.8 44.5712 25.1 41.8379 23.1C39.1712 21.1 36.3379 20.1 33.3379 20.1C24.0046 20.1 19.3379 27.4667 19.3379 42.2ZM117.835 27.6C117.835 27.0667 118.035 26.6 118.435 26.2C118.901 25.7333 119.435 25.5 120.035 25.5H133.635C134.235 25.5 134.735 25.7333 135.135 26.2C135.601 26.6 135.835 27.1 135.835 27.7V78.6C135.835 80.0667 135.101 80.8 133.635 80.8H120.035C118.568 80.8 117.835 80.0667 117.835 78.6V75C116.701 76.4667 114.835 77.7 112.235 78.7C109.635 79.6333 106.835 80.1 103.835 80.1C96.1014 80.1 90.3014 77.6 86.4348 72.6C82.5681 67.6 80.6348 60.5667 80.6348 51.5V27.5C80.6348 26.1667 81.3014 25.5 82.6348 25.5H96.5348C97.8681 25.5 98.5348 26.1667 98.5348 27.5V52.9C98.5348 60.3 101.168 64 106.435 64C108.301 64 110.101 63.5333 111.835 62.6C113.635 61.6667 115.068 60.3667 116.135 58.7C117.268 56.9667 117.835 55.0333 117.835 52.9V27.6ZM85.3348 32.4C85.3348 33.4 85.5348 34.4333 85.9348 35.5C86.3348 36.5667 86.7014 37.1 87.0348 37.1C87.3681 37.1 87.7348 36.5667 88.1348 35.5C88.5348 34.4333 88.7348 33.4 88.7348 32.4C88.7348 30.6 88.1681 29.7 87.0348 29.7C85.9014 29.7 85.3348 30.6 85.3348 32.4ZM122.535 32.4C122.535 33.4 122.735 34.4333 123.135 35.5C123.535 36.5667 123.901 37.1 124.235 37.1C124.568 37.1 124.935 36.5667 125.335 35.5C125.735 34.4333 125.935 33.4 125.935 32.4C125.935 30.6 125.368 29.7 124.235 29.7C123.101 29.7 122.535 30.6 122.535 32.4ZM149.769 80.8C149.169 80.8 148.636 80.6 148.169 80.2C147.769 79.7333 147.569 79.2 147.569 78.6V27.7C147.569 26.2333 148.302 25.5 149.769 25.5H163.369C164.836 25.5 165.569 26.2333 165.569 27.7V78.6C165.569 79.2 165.336 79.7333 164.869 80.2C164.469 80.6 163.969 80.8 163.369 80.8H149.769ZM145.869 9.5C145.869 6.76666 146.669 4.49999 148.269 2.69999C149.869 0.899994 152.102 -6.67572e-06 154.969 -6.67572e-06C156.769 -6.67572e-06 158.602 0.433327 160.469 1.29999C162.402 2.16666 164.002 3.33333 165.269 4.8C166.536 6.26666 167.169 7.83333 167.169 9.5C167.169 11.1667 166.536 12.7333 165.269 14.2C164.002 15.6 162.402 16.7333 160.469 17.6C158.602 18.4667 156.769 18.9 154.969 18.9C152.102 18.9 149.869 18.0333 148.269 16.3C146.669 14.5 145.869 12.2333 145.869 9.5ZM152.269 32.4C152.269 33.4 152.469 34.4333 152.869 35.5C153.269 36.5667 153.636 37.1 153.969 37.1C154.302 37.1 154.669 36.5667 155.069 35.5C155.469 34.4333 155.669 33.4 155.669 32.4C155.669 30.6 155.102 29.7 153.969 29.7C152.836 29.7 152.269 30.6 152.269 32.4ZM152.369 7.9C152.369 8.63333 152.536 9.36666 152.869 10.1C153.202 10.8333 153.569 11.2 153.969 11.2C154.369 11.2 154.736 10.8333 155.069 10.1C155.402 9.36666 155.569 8.63333 155.569 7.9C155.569 7.23333 155.402 6.73333 155.069 6.39999C154.802 6 154.436 5.8 153.969 5.8C153.502 5.8 153.102 6 152.769 6.39999C152.502 6.73333 152.369 7.23333 152.369 7.9ZM184.417 37C184.75 37 185.117 36.4667 185.517 35.4C185.917 34.3333 186.117 33.3 186.117 32.3C186.117 30.5 185.55 29.6 184.417 29.6C183.283 29.6 182.717 30.5 182.717 32.3C182.717 33.3 182.917 34.3333 183.317 35.4C183.717 36.4667 184.083 37 184.417 37ZM177.217 69C177.217 67.8667 177.75 66.7667 178.817 65.7L202.117 41.5H180.217C178.75 41.5 178.017 40.7667 178.017 39.3V27.7C178.017 26.2333 178.75 25.5 180.217 25.5H223.017C223.617 25.5 224.117 25.7333 224.517 26.2C224.983 26.6 225.217 27.1 225.217 27.7V38.2C225.217 39.2667 224.75 40.2667 223.817 41.2L201.317 64.8H225.017C225.617 64.8 226.117 65.0333 226.517 65.5C226.983 65.9 227.217 66.4 227.217 67V78.6C227.217 79.2667 226.983 79.8 226.517 80.2C226.117 80.6 225.617 80.8 225.017 80.8H179.417C177.95 80.8 177.217 80.0667 177.217 78.6V69ZM240.378 80.8C239.778 80.8 239.244 80.6 238.778 80.2C238.378 79.7333 238.178 79.2 238.178 78.6V5.2C238.178 3.73333 238.911 3 240.378 3H257.678C271.411 3 281.444 5.3 287.778 9.9C294.178 14.5 297.378 21.2333 297.378 30.1C297.378 38.5 294.011 45.1333 287.278 50C280.611 54.8667 270.578 57.4333 257.178 57.7V78.6C257.178 79.2 256.944 79.7333 256.478 80.2C256.078 80.6 255.578 80.8 254.978 80.8H240.378ZM242.878 9.9C242.878 10.9 243.078 11.9333 243.478 13C243.878 14.0667 244.244 14.6 244.578 14.6C244.911 14.6 245.278 14.0667 245.678 13C246.078 11.9333 246.278 10.9 246.278 9.9C246.278 8.1 245.711 7.2 244.578 7.2C243.444 7.2 242.878 8.1 242.878 9.9ZM257.178 40.5C257.444 40.5667 257.811 40.6 258.278 40.6C265.278 40.6 270.278 39.7 273.278 37.9C276.278 36.1 277.778 33.7333 277.778 30.8C277.778 27.4667 276.311 24.9333 273.378 23.2C270.444 21.4667 265.411 20.6 258.278 20.6H257.178V40.5ZM303.342 54.5C303.342 45.5667 305.275 38.6333 309.142 33.7C313.075 28.7 318.875 26.2 326.542 26.2C329.542 26.2 332.375 26.7 335.042 27.7C337.775 28.7 339.608 29.9 340.542 31.3V27.7C340.542 26.2333 341.275 25.5 342.742 25.5H356.342C357.808 25.5 358.542 26.2333 358.542 27.7V78.6C358.542 79.2 358.308 79.7333 357.842 80.2C357.442 80.6 356.942 80.8 356.342 80.8H342.742C342.142 80.8 341.608 80.6 341.142 80.2C340.742 79.7333 340.542 79.2333 340.542 78.7V75.8C339.475 77.2 337.708 78.4667 335.242 79.6C332.842 80.7333 330.175 81.3 327.242 81.3C322.708 81.3 318.608 80.2333 314.942 78.1C311.342 75.9667 308.508 72.9 306.442 68.9C304.375 64.8333 303.342 60.0333 303.342 54.5ZM312.042 39.3C312.042 40.3 312.242 41.3333 312.642 42.4C313.042 43.4667 313.408 44 313.742 44C314.075 44 314.442 43.4667 314.842 42.4C315.242 41.3333 315.442 40.3 315.442 39.3C315.442 37.5 314.875 36.6 313.742 36.6C312.608 36.6 312.042 37.5 312.042 39.3ZM320.542 53.4C320.542 56.8 321.275 59.5 322.742 61.5C324.208 63.5 326.342 64.5 329.142 64.5C331.008 64.5 332.808 64.0333 334.542 63.1C336.342 62.1667 337.775 60.8667 338.842 59.2C339.975 57.4667 340.542 55.5333 340.542 53.4C340.542 51.2667 339.975 49.3667 338.842 47.7C337.775 45.9667 336.342 44.6333 334.542 43.7C332.808 42.7667 331.008 42.3 329.142 42.3C326.342 42.3 324.208 43.3 322.742 45.3C321.275 47.3 320.542 50 320.542 53.4ZM345.242 32.4C345.242 33.4 345.442 34.4333 345.842 35.5C346.242 36.5667 346.608 37.1 346.942 37.1C347.275 37.1 347.642 36.5667 348.042 35.5C348.442 34.4333 348.642 33.4 348.642 32.4C348.642 30.6 348.075 29.7 346.942 29.7C345.808 29.7 345.242 30.6 345.242 32.4ZM408.225 44.1C407.892 44.4333 407.559 44.6 407.225 44.6C406.892 44.6 406.525 44.4667 406.125 44.2C404.459 43 402.325 42.4 399.725 42.4C398.525 42.4 397.592 42.4667 396.925 42.6C394.259 43 391.859 44.3667 389.725 46.7C387.592 48.9667 386.525 51.4667 386.525 54.2V78.7C386.525 79.2333 386.292 79.7333 385.825 80.2C385.425 80.6 384.925 80.8 384.325 80.8H370.725C370.125 80.8 369.592 80.6 369.125 80.2C368.725 79.7333 368.525 79.2 368.525 78.6V27.7C368.525 26.2333 369.259 25.5 370.725 25.5H384.325C385.792 25.5 386.525 26.2333 386.525 27.7V33.3C387.925 31.6333 389.992 30.1 392.725 28.7C395.459 27.2333 398.059 26.4 400.525 26.2L402.325 26.1C407.992 26.1 412.692 28.2333 416.425 32.5C416.625 32.7 416.725 32.9667 416.725 33.3C416.725 33.5667 416.592 33.9 416.325 34.3L408.225 44.1ZM373.225 32.4C373.225 33.4 373.425 34.4333 373.825 35.5C374.225 36.5667 374.592 37.1 374.925 37.1C375.259 37.1 375.625 36.5667 376.025 35.5C376.425 34.4333 376.625 33.4 376.625 32.4C376.625 30.6 376.059 29.7 374.925 29.7C373.792 29.7 373.225 30.6 373.225 32.4ZM424.125 37C424.458 37 424.825 36.4667 425.225 35.4C425.625 34.3333 425.825 33.3 425.825 32.3C425.825 30.5 425.258 29.6 424.125 29.6C422.991 29.6 422.425 30.5 422.425 32.3C422.425 33.3 422.625 34.3333 423.025 35.4C423.425 36.4667 423.791 37 424.125 37ZM417.725 27.7C417.725 26.2333 418.458 25.5 419.925 25.5H430.725V14.2C430.725 12.7333 431.458 12 432.925 12H446.525C447.991 12 448.725 12.7333 448.725 14.2V25.5H460.525C461.125 25.5 461.625 25.7333 462.025 26.2C462.491 26.6 462.725 27.1 462.725 27.7V39.3C462.725 39.9667 462.491 40.5 462.025 40.9C461.625 41.3 461.125 41.5 460.525 41.5H448.725V58.7C448.725 61.0333 449.291 62.6333 450.425 63.5C451.625 64.3 453.958 64.7 457.425 64.7H461.125C462.458 64.7 463.125 65.3667 463.125 66.7V78.8C463.125 80.1333 462.458 80.8 461.125 80.8L451.925 80.9C445.058 80.9667 439.791 79.3333 436.125 76C432.525 72.6 430.725 67.7 430.725 61.3V41.5H419.925C418.458 41.5 417.725 40.7667 417.725 39.3V27.7ZM435.425 18.8C435.425 19.8 435.625 20.8333 436.025 21.9C436.425 22.9667 436.791 23.5 437.125 23.5C437.458 23.5 437.825 22.9667 438.225 21.9C438.625 20.8333 438.825 19.8 438.825 18.8C438.825 17 438.258 16.1 437.125 16.1C435.991 16.1 435.425 17 435.425 18.8ZM467.962 33.4C467.762 33.0667 467.662 32.7333 467.662 32.4C467.662 31.5333 468.062 30.9667 468.862 30.7L481.262 24.8C481.462 24.6667 481.795 24.6 482.262 24.6C483.129 24.6 483.695 24.9667 483.962 25.7L498.762 56.2L511.562 26.3C511.762 25.7667 512.162 25.3667 512.762 25.1C513.362 24.8333 513.929 24.8 514.462 25L526.362 29.5C526.962 29.7 527.395 30.0667 527.662 30.6C527.929 31.1333 527.929 31.6667 527.662 32.2L504.462 84.3C499.462 95.4333 491.195 101 479.662 101C477.595 101 475.662 100.867 473.862 100.6C472.662 100.4 472.062 99.7 472.062 98.5V88C472.062 86.6667 472.762 86.0333 474.162 86.1C480.895 86.3667 485.595 83.5 488.262 77.5L489.562 74.6L467.962 33.4ZM475.262 34.4C475.262 35.4 475.462 36.4333 475.862 37.5C476.262 38.5667 476.629 39.1 476.962 39.1C477.295 39.1 477.662 38.5667 478.062 37.5C478.462 36.4333 478.662 35.4 478.662 34.4C478.662 32.6 478.095 31.7 476.962 31.7C475.829 31.7 475.262 32.6 475.262 34.4Z"/>
</mask>
<path d="M31.4379 82.4C24.9712 82.4 19.4046 80.7667 14.7379 77.5C10.0712 74.2333 6.50456 69.6 4.03789 63.6C1.57122 57.5333 0.337891 50.3667 0.337891 42.1C0.337891 33.8333 1.50456 26.6667 3.83789 20.6C6.23789 14.4667 9.77122 9.76666 14.4379 6.5C19.1046 3.16666 24.7712 1.5 31.4379 1.5C38.4379 1.5 44.8379 3.23333 50.6379 6.7C56.5046 10.1667 61.1379 14.9333 64.5379 21C68.0046 27 69.7379 33.7333 69.7379 41.2C69.7379 49.5333 67.7046 57.0333 63.6379 63.7L70.9379 71.1C71.4712 71.6333 71.7379 72.1333 71.7379 72.6C71.7379 73.1333 71.4712 73.6667 70.9379 74.2L60.6379 84.5C60.1046 85.0333 59.5712 85.3 59.0379 85.3C58.5712 85.3 58.0712 85.0333 57.5379 84.5L50.2379 77.2C44.6379 80.6667 38.3712 82.4 31.4379 82.4ZM17.4379 13.1C17.4379 14.1 17.6379 15.1333 18.0379 16.2C18.4379 17.2667 18.8046 17.8 19.1379 17.8C19.4712 17.8 19.8379 17.2667 20.2379 16.2C20.6379 15.1333 20.8379 14.1 20.8379 13.1C20.8379 11.3 20.2712 10.4 19.1379 10.4C18.0046 10.4 17.4379 11.3 17.4379 13.1ZM19.3379 42.2C19.3379 49.3333 20.5046 54.8 22.8379 58.6C25.1712 62.4 28.6712 64.3 33.3379 64.3C34.3379 64.3 35.5046 64.1333 36.8379 63.8L29.9379 56.9C29.4712 56.3 29.2379 55.7667 29.2379 55.3C29.2379 54.7667 29.4712 54.2667 29.9379 53.8L40.2379 43.4C40.7046 42.9333 41.2379 42.7 41.8379 42.7C42.4379 42.7 42.9712 42.9333 43.4379 43.4L49.7379 49.8C50.5379 47.4 50.9379 44.9 50.9379 42.3C50.9379 38.3 50.1046 34.6 48.4379 31.2C46.7712 27.8 44.5712 25.1 41.8379 23.1C39.1712 21.1 36.3379 20.1 33.3379 20.1C24.0046 20.1 19.3379 27.4667 19.3379 42.2ZM117.835 27.6C117.835 27.0667 118.035 26.6 118.435 26.2C118.901 25.7333 119.435 25.5 120.035 25.5H133.635C134.235 25.5 134.735 25.7333 135.135 26.2C135.601 26.6 135.835 27.1 135.835 27.7V78.6C135.835 80.0667 135.101 80.8 133.635 80.8H120.035C118.568 80.8 117.835 80.0667 117.835 78.6V75C116.701 76.4667 114.835 77.7 112.235 78.7C109.635 79.6333 106.835 80.1 103.835 80.1C96.1014 80.1 90.3014 77.6 86.4348 72.6C82.5681 67.6 80.6348 60.5667 80.6348 51.5V27.5C80.6348 26.1667 81.3014 25.5 82.6348 25.5H96.5348C97.8681 25.5 98.5348 26.1667 98.5348 27.5V52.9C98.5348 60.3 101.168 64 106.435 64C108.301 64 110.101 63.5333 111.835 62.6C113.635 61.6667 115.068 60.3667 116.135 58.7C117.268 56.9667 117.835 55.0333 117.835 52.9V27.6ZM85.3348 32.4C85.3348 33.4 85.5348 34.4333 85.9348 35.5C86.3348 36.5667 86.7014 37.1 87.0348 37.1C87.3681 37.1 87.7348 36.5667 88.1348 35.5C88.5348 34.4333 88.7348 33.4 88.7348 32.4C88.7348 30.6 88.1681 29.7 87.0348 29.7C85.9014 29.7 85.3348 30.6 85.3348 32.4ZM122.535 32.4C122.535 33.4 122.735 34.4333 123.135 35.5C123.535 36.5667 123.901 37.1 124.235 37.1C124.568 37.1 124.935 36.5667 125.335 35.5C125.735 34.4333 125.935 33.4 125.935 32.4C125.935 30.6 125.368 29.7 124.235 29.7C123.101 29.7 122.535 30.6 122.535 32.4ZM149.769 80.8C149.169 80.8 148.636 80.6 148.169 80.2C147.769 79.7333 147.569 79.2 147.569 78.6V27.7C147.569 26.2333 148.302 25.5 149.769 25.5H163.369C164.836 25.5 165.569 26.2333 165.569 27.7V78.6C165.569 79.2 165.336 79.7333 164.869 80.2C164.469 80.6 163.969 80.8 163.369 80.8H149.769ZM145.869 9.5C145.869 6.76666 146.669 4.49999 148.269 2.69999C149.869 0.899994 152.102 -6.67572e-06 154.969 -6.67572e-06C156.769 -6.67572e-06 158.602 0.433327 160.469 1.29999C162.402 2.16666 164.002 3.33333 165.269 4.8C166.536 6.26666 167.169 7.83333 167.169 9.5C167.169 11.1667 166.536 12.7333 165.269 14.2C164.002 15.6 162.402 16.7333 160.469 17.6C158.602 18.4667 156.769 18.9 154.969 18.9C152.102 18.9 149.869 18.0333 148.269 16.3C146.669 14.5 145.869 12.2333 145.869 9.5ZM152.269 32.4C152.269 33.4 152.469 34.4333 152.869 35.5C153.269 36.5667 153.636 37.1 153.969 37.1C154.302 37.1 154.669 36.5667 155.069 35.5C155.469 34.4333 155.669 33.4 155.669 32.4C155.669 30.6 155.102 29.7 153.969 29.7C152.836 29.7 152.269 30.6 152.269 32.4ZM152.369 7.9C152.369 8.63333 152.536 9.36666 152.869 10.1C153.202 10.8333 153.569 11.2 153.969 11.2C154.369 11.2 154.736 10.8333 155.069 10.1C155.402 9.36666 155.569 8.63333 155.569 7.9C155.569 7.23333 155.402 6.73333 155.069 6.39999C154.802 6 154.436 5.8 153.969 5.8C153.502 5.8 153.102 6 152.769 6.39999C152.502 6.73333 152.369 7.23333 152.369 7.9ZM184.417 37C184.75 37 185.117 36.4667 185.517 35.4C185.917 34.3333 186.117 33.3 186.117 32.3C186.117 30.5 185.55 29.6 184.417 29.6C183.283 29.6 182.717 30.5 182.717 32.3C182.717 33.3 182.917 34.3333 183.317 35.4C183.717 36.4667 184.083 37 184.417 37ZM177.217 69C177.217 67.8667 177.75 66.7667 178.817 65.7L202.117 41.5H180.217C178.75 41.5 178.017 40.7667 178.017 39.3V27.7C178.017 26.2333 178.75 25.5 180.217 25.5H223.017C223.617 25.5 224.117 25.7333 224.517 26.2C224.983 26.6 225.217 27.1 225.217 27.7V38.2C225.217 39.2667 224.75 40.2667 223.817 41.2L201.317 64.8H225.017C225.617 64.8 226.117 65.0333 226.517 65.5C226.983 65.9 227.217 66.4 227.217 67V78.6C227.217 79.2667 226.983 79.8 226.517 80.2C226.117 80.6 225.617 80.8 225.017 80.8H179.417C177.95 80.8 177.217 80.0667 177.217 78.6V69ZM240.378 80.8C239.778 80.8 239.244 80.6 238.778 80.2C238.378 79.7333 238.178 79.2 238.178 78.6V5.2C238.178 3.73333 238.911 3 240.378 3H257.678C271.411 3 281.444 5.3 287.778 9.9C294.178 14.5 297.378 21.2333 297.378 30.1C297.378 38.5 294.011 45.1333 287.278 50C280.611 54.8667 270.578 57.4333 257.178 57.7V78.6C257.178 79.2 256.944 79.7333 256.478 80.2C256.078 80.6 255.578 80.8 254.978 80.8H240.378ZM242.878 9.9C242.878 10.9 243.078 11.9333 243.478 13C243.878 14.0667 244.244 14.6 244.578 14.6C244.911 14.6 245.278 14.0667 245.678 13C246.078 11.9333 246.278 10.9 246.278 9.9C246.278 8.1 245.711 7.2 244.578 7.2C243.444 7.2 242.878 8.1 242.878 9.9ZM257.178 40.5C257.444 40.5667 257.811 40.6 258.278 40.6C265.278 40.6 270.278 39.7 273.278 37.9C276.278 36.1 277.778 33.7333 277.778 30.8C277.778 27.4667 276.311 24.9333 273.378 23.2C270.444 21.4667 265.411 20.6 258.278 20.6H257.178V40.5ZM303.342 54.5C303.342 45.5667 305.275 38.6333 309.142 33.7C313.075 28.7 318.875 26.2 326.542 26.2C329.542 26.2 332.375 26.7 335.042 27.7C337.775 28.7 339.608 29.9 340.542 31.3V27.7C340.542 26.2333 341.275 25.5 342.742 25.5H356.342C357.808 25.5 358.542 26.2333 358.542 27.7V78.6C358.542 79.2 358.308 79.7333 357.842 80.2C357.442 80.6 356.942 80.8 356.342 80.8H342.742C342.142 80.8 341.608 80.6 341.142 80.2C340.742 79.7333 340.542 79.2333 340.542 78.7V75.8C339.475 77.2 337.708 78.4667 335.242 79.6C332.842 80.7333 330.175 81.3 327.242 81.3C322.708 81.3 318.608 80.2333 314.942 78.1C311.342 75.9667 308.508 72.9 306.442 68.9C304.375 64.8333 303.342 60.0333 303.342 54.5ZM312.042 39.3C312.042 40.3 312.242 41.3333 312.642 42.4C313.042 43.4667 313.408 44 313.742 44C314.075 44 314.442 43.4667 314.842 42.4C315.242 41.3333 315.442 40.3 315.442 39.3C315.442 37.5 314.875 36.6 313.742 36.6C312.608 36.6 312.042 37.5 312.042 39.3ZM320.542 53.4C320.542 56.8 321.275 59.5 322.742 61.5C324.208 63.5 326.342 64.5 329.142 64.5C331.008 64.5 332.808 64.0333 334.542 63.1C336.342 62.1667 337.775 60.8667 338.842 59.2C339.975 57.4667 340.542 55.5333 340.542 53.4C340.542 51.2667 339.975 49.3667 338.842 47.7C337.775 45.9667 336.342 44.6333 334.542 43.7C332.808 42.7667 331.008 42.3 329.142 42.3C326.342 42.3 324.208 43.3 322.742 45.3C321.275 47.3 320.542 50 320.542 53.4ZM345.242 32.4C345.242 33.4 345.442 34.4333 345.842 35.5C346.242 36.5667 346.608 37.1 346.942 37.1C347.275 37.1 347.642 36.5667 348.042 35.5C348.442 34.4333 348.642 33.4 348.642 32.4C348.642 30.6 348.075 29.7 346.942 29.7C345.808 29.7 345.242 30.6 345.242 32.4ZM408.225 44.1C407.892 44.4333 407.559 44.6 407.225 44.6C406.892 44.6 406.525 44.4667 406.125 44.2C404.459 43 402.325 42.4 399.725 42.4C398.525 42.4 397.592 42.4667 396.925 42.6C394.259 43 391.859 44.3667 389.725 46.7C387.592 48.9667 386.525 51.4667 386.525 54.2V78.7C386.525 79.2333 386.292 79.7333 385.825 80.2C385.425 80.6 384.925 80.8 384.325 80.8H370.725C370.125 80.8 369.592 80.6 369.125 80.2C368.725 79.7333 368.525 79.2 368.525 78.6V27.7C368.525 26.2333 369.259 25.5 370.725 25.5H384.325C385.792 25.5 386.525 26.2333 386.525 27.7V33.3C387.925 31.6333 389.992 30.1 392.725 28.7C395.459 27.2333 398.059 26.4 400.525 26.2L402.325 26.1C407.992 26.1 412.692 28.2333 416.425 32.5C416.625 32.7 416.725 32.9667 416.725 33.3C416.725 33.5667 416.592 33.9 416.325 34.3L408.225 44.1ZM373.225 32.4C373.225 33.4 373.425 34.4333 373.825 35.5C374.225 36.5667 374.592 37.1 374.925 37.1C375.259 37.1 375.625 36.5667 376.025 35.5C376.425 34.4333 376.625 33.4 376.625 32.4C376.625 30.6 376.059 29.7 374.925 29.7C373.792 29.7 373.225 30.6 373.225 32.4ZM424.125 37C424.458 37 424.825 36.4667 425.225 35.4C425.625 34.3333 425.825 33.3 425.825 32.3C425.825 30.5 425.258 29.6 424.125 29.6C422.991 29.6 422.425 30.5 422.425 32.3C422.425 33.3 422.625 34.3333 423.025 35.4C423.425 36.4667 423.791 37 424.125 37ZM417.725 27.7C417.725 26.2333 418.458 25.5 419.925 25.5H430.725V14.2C430.725 12.7333 431.458 12 432.925 12H446.525C447.991 12 448.725 12.7333 448.725 14.2V25.5H460.525C461.125 25.5 461.625 25.7333 462.025 26.2C462.491 26.6 462.725 27.1 462.725 27.7V39.3C462.725 39.9667 462.491 40.5 462.025 40.9C461.625 41.3 461.125 41.5 460.525 41.5H448.725V58.7C448.725 61.0333 449.291 62.6333 450.425 63.5C451.625 64.3 453.958 64.7 457.425 64.7H461.125C462.458 64.7 463.125 65.3667 463.125 66.7V78.8C463.125 80.1333 462.458 80.8 461.125 80.8L451.925 80.9C445.058 80.9667 439.791 79.3333 436.125 76C432.525 72.6 430.725 67.7 430.725 61.3V41.5H419.925C418.458 41.5 417.725 40.7667 417.725 39.3V27.7ZM435.425 18.8C435.425 19.8 435.625 20.8333 436.025 21.9C436.425 22.9667 436.791 23.5 437.125 23.5C437.458 23.5 437.825 22.9667 438.225 21.9C438.625 20.8333 438.825 19.8 438.825 18.8C438.825 17 438.258 16.1 437.125 16.1C435.991 16.1 435.425 17 435.425 18.8ZM467.962 33.4C467.762 33.0667 467.662 32.7333 467.662 32.4C467.662 31.5333 468.062 30.9667 468.862 30.7L481.262 24.8C481.462 24.6667 481.795 24.6 482.262 24.6C483.129 24.6 483.695 24.9667 483.962 25.7L498.762 56.2L511.562 26.3C511.762 25.7667 512.162 25.3667 512.762 25.1C513.362 24.8333 513.929 24.8 514.462 25L526.362 29.5C526.962 29.7 527.395 30.0667 527.662 30.6C527.929 31.1333 527.929 31.6667 527.662 32.2L504.462 84.3C499.462 95.4333 491.195 101 479.662 101C477.595 101 475.662 100.867 473.862 100.6C472.662 100.4 472.062 99.7 472.062 98.5V88C472.062 86.6667 472.762 86.0333 474.162 86.1C480.895 86.3667 485.595 83.5 488.262 77.5L489.562 74.6L467.962 33.4ZM475.262 34.4C475.262 35.4 475.462 36.4333 475.862 37.5C476.262 38.5667 476.629 39.1 476.962 39.1C477.295 39.1 477.662 38.5667 478.062 37.5C478.462 36.4333 478.662 35.4 478.662 34.4C478.662 32.6 478.095 31.7 476.962 31.7C475.829 31.7 475.262 32.6 475.262 34.4Z" fill="#0064FF"/>
<path d="M14.7379 77.5L15.0246 77.0904L14.7379 77.5ZM4.03789 63.6L3.57471 63.7883L3.57545 63.7901L4.03789 63.6ZM3.83789 20.6L3.37226 20.4178L3.37122 20.4205L3.83789 20.6ZM14.4379 6.5L14.7246 6.90963L14.7285 6.90687L14.4379 6.5ZM50.6379 6.7L50.3814 7.12918L50.3835 7.13046L50.6379 6.7ZM64.5379 21L64.1017 21.2445L64.105 21.2501L64.5379 21ZM63.6379 63.7L63.211 63.4396L63.0076 63.7731L63.2819 64.0511L63.6379 63.7ZM70.9379 71.1L70.5819 71.4511L70.5843 71.4536L70.9379 71.1ZM70.9379 74.2L71.2914 74.5536L70.9379 74.2ZM60.6379 84.5L60.2843 84.1464L60.6379 84.5ZM57.5379 84.5L57.8914 84.1464L57.5379 84.5ZM50.2379 77.2L50.5914 76.8464L50.3114 76.5664L49.9747 76.7749L50.2379 77.2ZM18.0379 16.2L17.5697 16.3756L18.0379 16.2ZM20.2379 16.2L20.7061 16.3756L20.2379 16.2ZM22.8379 58.6L23.264 58.3384L22.8379 58.6ZM36.8379 63.8L36.9592 64.2851L37.8159 64.0709L37.1915 63.4464L36.8379 63.8ZM29.9379 56.9L29.5432 57.207L29.5623 57.2315L29.5843 57.2536L29.9379 56.9ZM29.9379 53.8L30.2915 54.1536L30.2932 54.1518L29.9379 53.8ZM40.2379 43.4L39.8843 43.0464L39.8826 43.0482L40.2379 43.4ZM43.4379 43.4L43.7942 43.0492L43.7914 43.0464L43.4379 43.4ZM49.7379 49.8L49.3816 50.1508L49.9541 50.7324L50.2122 49.9581L49.7379 49.8ZM48.4379 31.2L48.8869 30.9799L48.4379 31.2ZM41.8379 23.1L41.5379 23.5L41.5426 23.5035L41.8379 23.1ZM31.4379 81.9C25.0594 81.9 19.5962 80.2905 15.0246 77.0904L14.4512 77.9096C19.2129 81.2429 24.883 82.9 31.4379 82.9V81.9ZM15.0246 77.0904C10.4468 73.8859 6.93582 69.334 4.50034 63.4099L3.57545 63.7901C6.0733 69.866 9.69566 74.5808 14.4512 77.9096L15.0246 77.0904ZM4.50107 63.4117C2.06419 57.4183 0.837891 50.3184 0.837891 42.1H-0.162109C-0.162109 50.4149 1.07827 57.6484 3.57471 63.7883L4.50107 63.4117ZM0.837891 42.1C0.837891 33.8787 1.99834 26.7757 4.30457 20.7795L3.37122 20.4205C1.01077 26.5577 -0.162109 33.7879 -0.162109 42.1H0.837891ZM4.30351 20.7822C6.67336 14.7259 10.1507 10.1113 14.7246 6.90961L14.1512 6.09038C9.39172 9.42199 5.80243 14.2074 3.37227 20.4178L4.30351 20.7822ZM14.7285 6.90687C19.2972 3.64353 24.858 2 31.4379 2V0.999998C24.6845 0.999998 18.9119 2.6898 14.1473 6.09313L14.7285 6.90687ZM31.4379 2C38.351 2 44.6618 3.71057 50.3814 7.12918L50.8944 6.27081C45.014 2.75609 38.5248 0.999998 31.4379 0.999998V2ZM50.3835 7.13046C56.1726 10.5513 60.7439 15.2531 64.1017 21.2444L64.9741 20.7556C61.5319 14.6136 56.8365 9.78204 50.8923 6.26953L50.3835 7.13046ZM64.105 21.2501C67.5243 27.1682 69.2379 33.8141 69.2379 41.2H70.2379C70.2379 33.6525 68.4848 26.8318 64.9708 20.7499L64.105 21.2501ZM69.2379 41.2C69.2379 49.4479 67.2266 56.8567 63.211 63.4396L64.0647 63.9604C68.1825 57.21 70.2379 49.6188 70.2379 41.2H69.2379ZM63.2819 64.0511L70.5819 71.4511L71.2938 70.7489L63.9939 63.3489L63.2819 64.0511ZM70.5843 71.4536C71.0793 71.9485 71.2379 72.3278 71.2379 72.6H72.2379C72.2379 71.9389 71.8632 71.3182 71.2914 70.7464L70.5843 71.4536ZM71.2379 72.6C71.2379 72.954 71.0632 73.3676 70.5843 73.8465L71.2914 74.5536C71.8793 73.9657 72.2379 73.3127 72.2379 72.6H71.2379ZM70.5843 73.8464L60.2843 84.1464L60.9914 84.8536L71.2914 74.5536L70.5843 73.8464ZM60.2843 84.1464C59.8055 84.6253 59.3918 84.8 59.0379 84.8V85.8C59.7506 85.8 60.4036 85.4414 60.9914 84.8536L60.2843 84.1464ZM59.0379 84.8C58.7657 84.8 58.3864 84.6414 57.8914 84.1464L57.1843 84.8536C57.7561 85.4253 58.3768 85.8 59.0379 85.8V84.8ZM57.8914 84.1464L50.5914 76.8464L49.8843 77.5536L57.1843 84.8536L57.8914 84.1464ZM49.9747 76.7749C44.458 80.19 38.2834 81.9 31.4379 81.9V82.9C38.4591 82.9 44.8178 81.1434 50.5011 77.6251L49.9747 76.7749ZM16.9379 13.1C16.9379 14.1677 17.1516 15.2605 17.5697 16.3756L18.5061 16.0244C18.1242 15.0062 17.9379 14.0323 17.9379 13.1H16.9379ZM17.5697 16.3756C17.775 16.9228 17.9835 17.367 18.2009 17.6833C18.3954 17.9662 18.7014 18.3 19.1379 18.3V17.3C19.2411 17.3 19.1971 17.3672 19.0249 17.1167C18.8757 16.8996 18.7008 16.5438 18.5061 16.0244L17.5697 16.3756ZM19.1379 18.3C19.5744 18.3 19.8804 17.9662 20.0749 17.6833C20.2923 17.367 20.5008 16.9228 20.7061 16.3756L19.7697 16.0244C19.575 16.5438 19.4001 16.8996 19.2509 17.1167C19.0787 17.3672 19.0347 17.3 19.1379 17.3V18.3ZM20.7061 16.3756C21.1242 15.2605 21.3379 14.1677 21.3379 13.1H20.3379C20.3379 14.0323 20.1516 15.0062 19.7697 16.0244L20.7061 16.3756ZM21.3379 13.1C21.3379 12.1637 21.1934 11.3762 20.836 10.8086C20.4541 10.2021 19.8628 9.9 19.1379 9.9V10.9C19.5463 10.9 19.805 11.0479 19.9898 11.3414C20.199 11.6737 20.3379 12.2363 20.3379 13.1H21.3379ZM19.1379 9.9C18.413 9.9 17.8217 10.2021 17.4398 10.8086C17.0824 11.3762 16.9379 12.1637 16.9379 13.1H17.9379C17.9379 12.2363 18.0768 11.6737 18.286 11.3414C18.4708 11.0479 18.7295 10.9 19.1379 10.9V9.9ZM18.8379 42.2C18.8379 49.3755 20.0093 54.949 22.4118 58.8616L23.264 58.3384C20.9998 54.651 19.8379 49.2912 19.8379 42.2H18.8379ZM22.4118 58.8616C24.8411 62.8179 28.5072 64.8 33.3379 64.8V63.8C28.8352 63.8 25.5013 61.9821 23.264 58.3384L22.4118 58.8616ZM33.3379 64.8C34.3908 64.8 35.5998 64.6249 36.9592 64.2851L36.7166 63.3149C35.4093 63.6418 34.285 63.8 33.3379 63.8V64.8ZM37.1915 63.4464L30.2914 56.5464L29.5843 57.2536L36.4843 64.1535L37.1915 63.4464ZM30.3326 56.593C29.8945 56.0299 29.7379 55.6047 29.7379 55.3H28.7379C28.7379 55.9286 29.0479 56.5701 29.5432 57.207L30.3326 56.593ZM29.7379 55.3C29.7379 54.9293 29.895 54.55 30.2914 54.1535L29.5843 53.4464C29.0475 53.9833 28.7379 54.604 28.7379 55.3H29.7379ZM30.2932 54.1518L40.5932 43.7518L39.8826 43.0482L29.5826 53.4482L30.2932 54.1518ZM40.5914 43.7536C40.9746 43.3704 41.3844 43.2 41.8379 43.2V42.2C41.0914 42.2 40.4345 42.4963 39.8843 43.0464L40.5914 43.7536ZM41.8379 43.2C42.2914 43.2 42.7011 43.3704 43.0843 43.7536L43.7914 43.0464C43.2413 42.4963 42.5844 42.2 41.8379 42.2V43.2ZM43.0816 43.7508L49.3816 50.1508L50.0942 49.4492L43.7942 43.0492L43.0816 43.7508ZM50.2122 49.9581C51.0297 47.5057 51.4379 44.9522 51.4379 42.3H50.4379C50.4379 44.8478 50.0461 47.2943 49.2635 49.6419L50.2122 49.9581ZM51.4379 42.3C51.4379 38.2281 50.589 34.4523 48.8869 30.9799L47.9889 31.4201C49.6201 34.7477 50.4379 38.3719 50.4379 42.3H51.4379ZM48.8869 30.9799C47.1888 27.5159 44.9392 24.7497 42.1331 22.6965L41.5426 23.5035C44.2032 25.4503 46.3536 28.0841 47.9889 31.4201L48.8869 30.9799ZM42.1379 22.7C39.3948 20.6427 36.4581 19.6 33.3379 19.6V20.6C36.2177 20.6 38.9476 21.5573 41.5379 23.5L42.1379 22.7ZM33.3379 19.6C28.5144 19.6 24.848 21.5176 22.4155 25.3574C20.0074 29.1587 18.8379 34.7967 18.8379 42.2H19.8379C19.8379 34.87 21.0017 29.4579 23.2603 25.8926C25.4944 22.3658 28.8281 20.6 33.3379 20.6V19.6ZM118.435 26.2L118.081 25.8464H118.081L118.435 26.2ZM135.135 26.2L134.755 26.5254L134.78 26.5546L134.809 26.5796L135.135 26.2ZM117.835 75H118.335V73.5352L117.439 74.6943L117.835 75ZM112.235 78.7L112.404 79.1707L112.414 79.1667L112.235 78.7ZM86.4348 72.6L86.0392 72.9059L86.4348 72.6ZM111.835 62.6L111.605 62.1561L111.598 62.1598L111.835 62.6ZM116.135 58.7L115.716 58.4264L115.714 58.4305L116.135 58.7ZM85.9348 35.5L86.4029 35.3244L85.9348 35.5ZM88.1348 35.5L87.6666 35.3244L88.1348 35.5ZM125.335 35.5L124.867 35.3244L125.335 35.5ZM118.335 27.6C118.335 27.2079 118.476 26.8661 118.788 26.5535L118.081 25.8464C117.594 26.3339 117.335 26.9254 117.335 27.6H118.335ZM118.788 26.5536C119.172 26.1704 119.581 26 120.035 26V25C119.288 25 118.631 25.2963 118.081 25.8464L118.788 26.5536ZM120.035 26H133.635V25H120.035V26ZM133.635 26C134.085 26 134.447 26.1664 134.755 26.5254L135.514 25.8746C135.022 25.3002 134.385 25 133.635 25V26ZM134.809 26.5796C135.168 26.8873 135.335 27.25 135.335 27.7H136.335C136.335 26.95 136.035 26.3127 135.46 25.8204L134.809 26.5796ZM135.335 27.7V78.6H136.335V27.7H135.335ZM135.335 78.6C135.335 79.2563 135.171 79.6566 134.931 79.8964C134.691 80.1363 134.291 80.3 133.635 80.3V81.3C134.445 81.3 135.145 81.0971 135.638 80.6036C136.132 80.11 136.335 79.4104 136.335 78.6H135.335ZM133.635 80.3H120.035V81.3H133.635V80.3ZM120.035 80.3C119.379 80.3 118.978 80.1363 118.738 79.8964C118.498 79.6566 118.335 79.2563 118.335 78.6H117.335C117.335 79.4104 117.538 80.11 118.031 80.6036C118.525 81.0971 119.224 81.3 120.035 81.3V80.3ZM118.335 78.6V75H117.335V78.6H118.335ZM117.439 74.6943C116.383 76.0609 114.61 77.2508 112.055 78.2333L112.414 79.1667C115.06 78.1492 117.02 76.8725 118.23 75.3057L117.439 74.6943ZM112.066 78.2294C109.525 79.1417 106.782 79.6 103.835 79.6V80.6C106.887 80.6 109.745 80.125 112.404 79.1706L112.066 78.2294ZM103.835 79.6C96.2178 79.6 90.581 77.1442 86.8303 72.2941L86.0392 72.9059C90.0219 78.0558 95.9851 80.6 103.835 80.6V79.6ZM86.8303 72.2941C83.0552 67.4126 81.1348 60.5026 81.1348 51.5H80.1348C80.1348 60.6307 82.081 67.7874 86.0392 72.9059L86.8303 72.2941ZM81.1348 51.5V27.5H80.1348V51.5H81.1348ZM81.1348 27.5C81.1348 26.9104 81.2818 26.56 81.4883 26.3536C81.6948 26.1471 82.0452 26 82.6348 26V25C81.891 25 81.2414 25.1863 80.7812 25.6464C80.321 26.1066 80.1348 26.7563 80.1348 27.5H81.1348ZM82.6348 26H96.5348V25H82.6348V26ZM96.5348 26C97.1244 26 97.4747 26.1471 97.6812 26.3536C97.8877 26.56 98.0348 26.9104 98.0348 27.5H99.0348C99.0348 26.7563 98.8485 26.1066 98.3883 25.6464C97.9281 25.1863 97.2785 25 96.5348 25V26ZM98.0348 27.5V52.9H99.0348V27.5H98.0348ZM98.0348 52.9C98.0348 56.6442 98.6982 59.542 100.102 61.5149C101.529 63.5191 103.669 64.5 106.435 64.5V63.5C103.934 63.5 102.124 62.6308 100.917 60.9351C99.688 59.208 99.0348 56.5558 99.0348 52.9H98.0348ZM106.435 64.5C108.389 64.5 110.27 64.0106 112.072 63.0402L111.598 62.1598C109.933 63.0561 108.214 63.5 106.435 63.5V64.5ZM112.065 63.0439C113.941 62.0712 115.441 60.7119 116.556 58.9695L115.714 58.4305C114.695 60.0214 113.329 61.2621 111.605 62.1561L112.065 63.0439ZM116.553 58.9736C117.741 57.1564 118.335 55.1274 118.335 52.9H117.335C117.335 54.9392 116.795 56.7769 115.716 58.4264L116.553 58.9736ZM118.335 52.9V27.6H117.335V52.9H118.335ZM84.8348 32.4C84.8348 33.4677 85.0484 34.5605 85.4666 35.6756L86.4029 35.3244C86.0211 34.3062 85.8348 33.3323 85.8348 32.4H84.8348ZM85.4666 35.6756C85.6718 36.2228 85.8803 36.667 86.0977 36.9833C86.2922 37.2662 86.5983 37.6 87.0348 37.6V36.6C87.138 36.6 87.094 36.6672 86.9218 36.4167C86.7725 36.1996 86.5977 35.8438 86.4029 35.3244L85.4666 35.6756ZM87.0348 37.6C87.4713 37.6 87.7773 37.2662 87.9718 36.9833C88.1892 36.667 88.3977 36.2228 88.6029 35.6756L87.6666 35.3244C87.4718 35.8438 87.297 36.1996 87.1478 36.4167C86.9756 36.6672 86.9316 36.6 87.0348 36.6V37.6ZM88.6029 35.6756C89.0211 34.5605 89.2348 33.4677 89.2348 32.4H88.2348C88.2348 33.3323 88.0484 34.3062 87.6666 35.3244L88.6029 35.6756ZM89.2348 32.4C89.2348 31.4637 89.0903 30.6763 88.7329 30.1086C88.351 29.5021 87.7597 29.2 87.0348 29.2V30.2C87.4432 30.2 87.7019 30.3479 87.8867 30.6414C88.0959 30.9737 88.2348 31.5363 88.2348 32.4H89.2348ZM87.0348 29.2C86.3099 29.2 85.7185 29.5021 85.3367 30.1086C84.9792 30.6763 84.8348 31.4637 84.8348 32.4H85.8348C85.8348 31.5363 85.9736 30.9737 86.1829 30.6414C86.3677 30.3479 86.6263 30.2 87.0348 30.2V29.2ZM122.035 32.4C122.035 33.4677 122.248 34.5605 122.667 35.6756L123.603 35.3244C123.221 34.3062 123.035 33.3323 123.035 32.4H122.035ZM122.667 35.6756C122.872 36.2228 123.08 36.667 123.298 36.9833C123.492 37.2662 123.798 37.6 124.235 37.6V36.6C124.338 36.6 124.294 36.6672 124.122 36.4167C123.973 36.1996 123.798 35.8438 123.603 35.3244L122.667 35.6756ZM124.235 37.6C124.671 37.6 124.977 37.2662 125.172 36.9833C125.389 36.667 125.598 36.2228 125.803 35.6756L124.867 35.3244C124.672 35.8438 124.497 36.1996 124.348 36.4167C124.176 36.6672 124.132 36.6 124.235 36.6V37.6ZM125.803 35.6756C126.221 34.5605 126.435 33.4677 126.435 32.4H125.435C125.435 33.3323 125.248 34.3062 124.867 35.3244L125.803 35.6756ZM126.435 32.4C126.435 31.4637 126.29 30.6763 125.933 30.1086C125.551 29.5021 124.96 29.2 124.235 29.2V30.2C124.643 30.2 124.902 30.3479 125.087 30.6414C125.296 30.9737 125.435 31.5363 125.435 32.4H126.435ZM124.235 29.2C123.51 29.2 122.919 29.5021 122.537 30.1086C122.179 30.6763 122.035 31.4637 122.035 32.4H123.035C123.035 31.5363 123.174 30.9737 123.383 30.6414C123.568 30.3479 123.826 30.2 124.235 30.2V29.2ZM148.169 80.2L147.79 80.5254L147.815 80.5546L147.844 80.5796L148.169 80.2ZM164.869 80.2L164.516 79.8464L164.869 80.2ZM148.269 2.69999L147.895 2.36781L148.269 2.69999ZM160.469 1.29999L160.259 1.75354L160.265 1.75625L160.469 1.29999ZM165.269 4.8L165.648 4.47319L165.269 4.8ZM165.269 14.2L165.64 14.5355L165.648 14.5268L165.269 14.2ZM160.469 17.6L160.265 17.1437L160.259 17.1465L160.469 17.6ZM148.269 16.3L147.895 16.6322L147.902 16.6391L148.269 16.3ZM152.869 10.1L153.324 9.89309L152.869 10.1ZM155.069 10.1L154.614 9.89309L155.069 10.1ZM155.069 6.39999L154.653 6.67735L154.681 6.71854L154.716 6.75355L155.069 6.39999ZM152.769 6.39999L152.385 6.07984L152.379 6.08765L152.769 6.39999ZM149.769 80.3C149.292 80.3 148.873 80.1448 148.495 79.8204L147.844 80.5796C148.399 81.0552 149.047 81.3 149.769 81.3V80.3ZM148.549 79.8746C148.224 79.4961 148.069 79.0775 148.069 78.6H147.069C147.069 79.3225 147.314 79.9705 147.79 80.5254L148.549 79.8746ZM148.069 78.6V27.7H147.069V78.6H148.069ZM148.069 27.7C148.069 27.0437 148.233 26.6434 148.473 26.4036C148.713 26.1637 149.113 26 149.769 26V25C148.959 25 148.259 25.2029 147.766 25.6964C147.272 26.19 147.069 26.8896 147.069 27.7H148.069ZM149.769 26H163.369V25H149.769V26ZM163.369 26C164.025 26 164.426 26.1637 164.666 26.4036C164.905 26.6434 165.069 27.0437 165.069 27.7H166.069C166.069 26.8896 165.866 26.19 165.373 25.6964C164.879 25.2029 164.18 25 163.369 25V26ZM165.069 27.7V78.6H166.069V27.7H165.069ZM165.069 78.6C165.069 79.0535 164.899 79.4632 164.516 79.8464L165.223 80.5536C165.773 80.0034 166.069 79.3465 166.069 78.6H165.069ZM164.516 79.8464C164.215 80.1465 163.845 80.3 163.369 80.3V81.3C164.093 81.3 164.723 81.0535 165.223 80.5536L164.516 79.8464ZM163.369 80.3H149.769V81.3H163.369V80.3ZM146.369 9.5C146.369 6.87144 147.135 4.72825 148.643 3.03218L147.895 2.36781C146.203 4.27174 145.369 6.66188 145.369 9.5H146.369ZM148.643 3.03218C150.13 1.35929 152.216 0.499993 154.969 0.499993V-0.500007C151.989 -0.500007 149.608 0.440696 147.895 2.36781L148.643 3.03218ZM154.969 0.499993C156.687 0.499993 158.448 0.913072 160.259 1.7535L160.68 0.84649C158.757 -0.0464172 156.852 -0.500007 154.969 -0.500007V0.499993ZM160.265 1.75625C162.138 2.59583 163.676 3.72048 164.891 5.12681L165.648 4.47319C164.329 2.94617 162.667 1.7375 160.674 0.84374L160.265 1.75625ZM164.891 5.12681C166.092 6.51829 166.669 7.97249 166.669 9.5H167.669C167.669 7.69418 166.979 6.01504 165.648 4.47319L164.891 5.12681ZM166.669 9.5C166.669 11.0275 166.092 12.4817 164.891 13.8732L165.648 14.5268C166.979 12.985 167.669 11.3058 167.669 9.5H166.669ZM164.898 13.8645C163.684 15.2073 162.142 16.3019 160.265 17.1437L160.674 18.0563C162.662 17.1647 164.321 15.9927 165.64 14.5355L164.898 13.8645ZM160.259 17.1465C158.448 17.9869 156.687 18.4 154.969 18.4V19.4C156.852 19.4 158.757 18.9464 160.68 18.0535L160.259 17.1465ZM154.969 18.4C152.21 18.4 150.122 17.57 148.637 15.9609L147.902 16.6391C149.616 18.4966 151.995 19.4 154.969 19.4V18.4ZM148.643 15.9678C147.135 14.2717 146.369 12.1286 146.369 9.5H145.369C145.369 12.3381 146.203 14.7283 147.895 16.6322L148.643 15.9678ZM151.769 32.4C151.769 33.4677 151.983 34.5605 152.401 35.6756L153.337 35.3244C152.955 34.3062 152.769 33.3323 152.769 32.4H151.769ZM152.401 35.6756C152.606 36.2228 152.815 36.667 153.032 36.9833C153.227 37.2662 153.533 37.6 153.969 37.6V36.6C154.072 36.6 154.028 36.6672 153.856 36.4167C153.707 36.1996 153.532 35.8438 153.337 35.3244L152.401 35.6756ZM153.969 37.6C154.406 37.6 154.712 37.2662 154.906 36.9833C155.124 36.667 155.332 36.2228 155.537 35.6756L154.601 35.3244C154.406 35.8438 154.231 36.1996 154.082 36.4167C153.91 36.6672 153.866 36.6 153.969 36.6V37.6ZM155.537 35.6756C155.955 34.5605 156.169 33.4677 156.169 32.4H155.169C155.169 33.3323 154.983 34.3062 154.601 35.3244L155.537 35.6756ZM156.169 32.4C156.169 31.4637 156.025 30.6763 155.667 30.1086C155.285 29.5021 154.694 29.2 153.969 29.2V30.2C154.378 30.2 154.636 30.3479 154.821 30.6414C155.03 30.9737 155.169 31.5363 155.169 32.4H156.169ZM153.969 29.2C153.244 29.2 152.653 29.5021 152.271 30.1086C151.914 30.6763 151.769 31.4637 151.769 32.4H152.769C152.769 31.5363 152.908 30.9737 153.117 30.6414C153.302 30.3479 153.561 30.2 153.969 30.2V29.2ZM151.869 7.9C151.869 8.71148 152.054 9.51505 152.414 10.3069L153.324 9.89309C153.018 9.21828 152.869 8.55519 152.869 7.9H151.869ZM152.414 10.3069C152.593 10.7013 152.798 11.036 153.041 11.2785C153.289 11.5267 153.6 11.7 153.969 11.7V10.7C153.938 10.7 153.866 10.69 153.748 10.5714C153.624 10.4473 153.478 10.232 153.324 9.89309L152.414 10.3069ZM153.969 11.7C154.338 11.7 154.65 11.5267 154.898 11.2785C155.14 11.036 155.345 10.7013 155.524 10.3069L154.614 9.89309C154.46 10.232 154.315 10.4473 154.191 10.5714C154.072 10.69 154 10.7 153.969 10.7V11.7ZM155.524 10.3069C155.884 9.51505 156.069 8.71148 156.069 7.9H155.069C155.069 8.55519 154.921 9.21828 154.614 9.89309L155.524 10.3069ZM156.069 7.9C156.069 7.15626 155.883 6.50661 155.423 6.04644L154.716 6.75355C154.922 6.96004 155.069 7.3104 155.069 7.9H156.069ZM155.485 6.12264C155.129 5.58858 154.609 5.3 153.969 5.3V6.3C154.263 6.3 154.476 6.41141 154.653 6.67735L155.485 6.12264ZM153.969 5.3C153.336 5.3 152.801 5.58079 152.385 6.0799L153.153 6.72009C153.404 6.4192 153.669 6.3 153.969 6.3V5.3ZM152.379 6.08765C152.011 6.54731 151.869 7.17991 151.869 7.9H152.869C152.869 7.28675 152.994 6.91934 153.16 6.71234L152.379 6.08765ZM185.517 35.4L185.049 35.2244L185.517 35.4ZM183.317 35.4L183.785 35.2244L183.317 35.4ZM178.817 65.7L179.17 66.0536L179.177 66.0468L178.817 65.7ZM202.117 41.5L202.477 41.8468L203.292 41H202.117V41.5ZM224.517 26.2L224.137 26.5254L224.162 26.5546L224.191 26.5796L224.517 26.2ZM223.817 41.2L223.463 40.8463L223.455 40.855L223.817 41.2ZM201.317 64.8L200.955 64.455L200.149 65.3H201.317V64.8ZM226.517 65.5L226.137 65.8254L226.162 65.8546L226.191 65.8796L226.517 65.5ZM226.517 80.2L226.191 79.8204L226.177 79.8329L226.163 79.8464L226.517 80.2ZM184.417 37.5C184.853 37.5 185.159 37.1661 185.354 36.8833C185.571 36.567 185.78 36.1228 185.985 35.5756L185.049 35.2244C184.854 35.7438 184.679 36.0996 184.53 36.3167C184.358 36.5672 184.314 36.5 184.417 36.5V37.5ZM185.985 35.5756C186.403 34.4605 186.617 33.3677 186.617 32.3H185.617C185.617 33.2323 185.43 34.2062 185.049 35.2244L185.985 35.5756ZM186.617 32.3C186.617 31.3637 186.472 30.5763 186.115 30.0086C185.733 29.4021 185.142 29.1 184.417 29.1V30.1C184.825 30.1 185.084 30.2479 185.269 30.5414C185.478 30.8737 185.617 31.4363 185.617 32.3H186.617ZM184.417 29.1C183.692 29.1 183.101 29.4021 182.719 30.0086C182.361 30.5763 182.217 31.3637 182.217 32.3H183.217C183.217 31.4363 183.356 30.8737 183.565 30.5414C183.75 30.2479 184.008 30.1 184.417 30.1V29.1ZM182.217 32.3C182.217 33.3677 182.43 34.4605 182.849 35.5756L183.785 35.2244C183.403 34.2062 183.217 33.2323 183.217 32.3H182.217ZM182.849 35.5756C183.054 36.1228 183.262 36.567 183.48 36.8833C183.674 37.1661 183.98 37.5 184.417 37.5V36.5C184.52 36.5 184.476 36.5672 184.304 36.3167C184.155 36.0996 183.98 35.7438 183.785 35.2244L182.849 35.5756ZM177.717 69C177.717 68.0386 178.165 67.0585 179.17 66.0536L178.463 65.3464C177.335 66.4748 176.717 67.6947 176.717 69H177.717ZM179.177 66.0468L202.477 41.8468L201.757 41.1532L178.457 65.3532L179.177 66.0468ZM202.117 41H180.217V42H202.117V41ZM180.217 41C179.561 41 179.16 40.8363 178.92 40.5964C178.681 40.3566 178.517 39.9563 178.517 39.3H177.517C177.517 40.1104 177.72 40.81 178.213 41.3036C178.707 41.7971 179.406 42 180.217 42V41ZM178.517 39.3V27.7H177.517V39.3H178.517ZM178.517 27.7C178.517 27.0437 178.681 26.6434 178.92 26.4036C179.16 26.1637 179.561 26 180.217 26V25C179.406 25 178.707 25.2029 178.213 25.6964C177.72 26.19 177.517 26.8896 177.517 27.7H178.517ZM180.217 26H223.017V25H180.217V26ZM223.017 26C223.467 26 223.829 26.1664 224.137 26.5254L224.896 25.8746C224.404 25.3002 223.767 25 223.017 25V26ZM224.191 26.5796C224.55 26.8873 224.717 27.25 224.717 27.7H225.717C225.717 26.95 225.417 26.3127 224.842 25.8204L224.191 26.5796ZM224.717 27.7V38.2H225.717V27.7H224.717ZM224.717 38.2C224.717 39.104 224.326 39.9833 223.463 40.8464L224.17 41.5536C225.174 40.55 225.717 39.4293 225.717 38.2H224.717ZM223.455 40.855L200.955 64.455L201.679 65.145L224.179 41.545L223.455 40.855ZM201.317 65.3H225.017V64.3H201.317V65.3ZM225.017 65.3C225.467 65.3 225.829 65.4664 226.137 65.8254L226.896 65.1746C226.404 64.6002 225.767 64.3 225.017 64.3V65.3ZM226.191 65.8796C226.55 66.1873 226.717 66.55 226.717 67H227.717C227.717 66.25 227.417 65.6127 226.842 65.1204L226.191 65.8796ZM226.717 67V78.6H227.717V67H226.717ZM226.717 78.6C226.717 79.1347 226.537 79.5241 226.191 79.8204L226.842 80.5796C227.43 80.0759 227.717 79.3987 227.717 78.6H226.717ZM226.163 79.8464C225.863 80.1465 225.493 80.3 225.017 80.3V81.3C225.74 81.3 226.37 81.0535 226.87 80.5536L226.163 79.8464ZM225.017 80.3H179.417V81.3H225.017V80.3ZM179.417 80.3C178.761 80.3 178.36 80.1363 178.12 79.8964C177.881 79.6566 177.717 79.2563 177.717 78.6H176.717C176.717 79.4104 176.92 80.11 177.413 80.6036C177.907 81.0971 178.606 81.3 179.417 81.3V80.3ZM177.717 78.6V69H176.717V78.6H177.717ZM238.778 80.2L238.398 80.5254L238.423 80.5546L238.452 80.5796L238.778 80.2ZM287.778 9.9L287.484 10.3046L287.486 10.306L287.778 9.9ZM287.278 50L286.985 49.5948L286.983 49.5962L287.278 50ZM257.178 57.7L257.168 57.2001L256.678 57.2098V57.7H257.178ZM256.478 80.2L256.831 80.5536L256.478 80.2ZM243.478 13L243.01 13.1756L243.478 13ZM245.678 13L246.146 13.1756L245.678 13ZM257.178 40.5H256.678V40.8904L257.056 40.9851L257.178 40.5ZM273.278 37.9L273.02 37.4712V37.4713L273.278 37.9ZM273.378 23.2L273.123 23.6305L273.378 23.2ZM257.178 20.6V20.1H256.678V20.6H257.178ZM240.378 80.3C239.9 80.3 239.482 80.1448 239.103 79.8204L238.452 80.5796C239.007 81.0552 239.655 81.3 240.378 81.3V80.3ZM239.157 79.8746C238.833 79.4961 238.678 79.0775 238.678 78.6H237.678C237.678 79.3225 237.923 79.9705 238.398 80.5254L239.157 79.8746ZM238.678 78.6V5.2H237.678V78.6H238.678ZM238.678 5.2C238.678 4.54374 238.841 4.14338 239.081 3.90355C239.321 3.66372 239.721 3.5 240.378 3.5V2.5C239.567 2.5 238.868 2.70294 238.374 3.19644C237.881 3.68995 237.678 4.38959 237.678 5.2H238.678ZM240.378 3.5H257.678V2.5H240.378V3.5ZM257.678 3.5C271.376 3.5 281.279 5.7981 287.484 10.3045L288.072 9.49545C281.609 4.80189 271.446 2.5 257.678 2.5V3.5ZM287.486 10.306C293.737 14.7993 296.878 21.371 296.878 30.1H297.878C297.878 21.0956 294.618 14.2007 288.07 9.49399L287.486 10.306ZM296.878 30.1C296.878 38.3416 293.586 44.8233 286.985 49.5948L287.571 50.4052C294.436 45.4433 297.878 38.6584 297.878 30.1H296.878ZM286.983 49.5962C280.436 54.3752 270.524 56.9343 257.168 57.2001L257.188 58.1999C270.632 57.9324 280.786 55.3581 287.573 50.4038L286.983 49.5962ZM256.678 57.7V78.6H257.678V57.7H256.678ZM256.678 78.6C256.678 79.0535 256.507 79.4632 256.124 79.8465L256.831 80.5536C257.381 80.0034 257.678 79.3465 257.678 78.6H256.678ZM256.124 79.8464C255.824 80.1465 255.454 80.3 254.978 80.3V81.3C255.701 81.3 256.331 81.0535 256.831 80.5536L256.124 79.8464ZM254.978 80.3H240.378V81.3H254.978V80.3ZM242.378 9.9C242.378 10.9677 242.591 12.0605 243.01 13.1756L243.946 12.8244C243.564 11.8062 243.378 10.8323 243.378 9.9H242.378ZM243.01 13.1756C243.215 13.7228 243.423 14.167 243.641 14.4833C243.835 14.7662 244.141 15.1 244.578 15.1V14.1C244.681 14.1 244.637 14.1672 244.465 13.9167C244.315 13.6996 244.141 13.3438 243.946 12.8244L243.01 13.1756ZM244.578 15.1C245.014 15.1 245.32 14.7662 245.515 14.4833C245.732 14.167 245.941 13.7228 246.146 13.1756L245.21 12.8244C245.015 13.3438 244.84 13.6996 244.691 13.9167C244.519 14.1672 244.475 14.1 244.578 14.1V15.1ZM246.146 13.1756C246.564 12.0605 246.778 10.9677 246.778 9.9H245.778C245.778 10.8323 245.591 11.8062 245.21 12.8244L246.146 13.1756ZM246.778 9.9C246.778 8.96368 246.633 8.17625 246.276 7.60859C245.894 7.00208 245.303 6.7 244.578 6.7V7.7C244.986 7.7 245.245 7.84791 245.43 8.1414C245.639 8.47374 245.778 9.03632 245.778 9.9H246.778ZM244.578 6.7C243.853 6.7 243.262 7.00208 242.88 7.60859C242.522 8.17625 242.378 8.96368 242.378 9.9H243.378C243.378 9.03632 243.517 8.47374 243.726 8.1414C243.911 7.84791 244.169 7.7 244.578 7.7V6.7ZM257.056 40.9851C257.381 41.0662 257.794 41.1 258.278 41.1V40.1C257.828 40.1 257.508 40.0672 257.299 40.0149L257.056 40.9851ZM258.278 41.1C265.294 41.1 270.412 40.2027 273.535 38.3287L273.02 37.4713C270.144 39.1973 265.261 40.1 258.278 40.1V41.1ZM273.535 38.3287C276.652 36.4588 278.278 33.9454 278.278 30.8H277.278C277.278 33.5213 275.904 35.7412 273.02 37.4712L273.535 38.3287ZM278.278 30.8C278.278 27.2851 276.714 24.5904 273.632 22.7695L273.123 23.6305C275.909 25.2763 277.278 27.6483 277.278 30.8H278.278ZM273.632 22.7695C270.575 20.9628 265.422 20.1 258.278 20.1V21.1C265.4 21.1 270.314 21.9705 273.123 23.6305L273.632 22.7695ZM258.278 20.1H257.178V21.1H258.278V20.1ZM256.678 20.6V40.5H257.678V20.6H256.678ZM309.142 33.7L308.749 33.3909L308.748 33.3916L309.142 33.7ZM335.042 27.7L334.866 28.1682L334.87 28.1696L335.042 27.7ZM340.542 31.3L340.126 31.5774L341.042 32.9514V31.3H340.542ZM357.842 80.2L358.195 80.5536V80.5536L357.842 80.2ZM341.142 80.2L340.762 80.5254L340.787 80.5546L340.816 80.5796L341.142 80.2ZM340.542 75.8H341.042V74.3187L340.144 75.497L340.542 75.8ZM335.242 79.6L335.033 79.1456L335.028 79.1479L335.242 79.6ZM314.942 78.1L314.687 78.5302L314.69 78.5322L314.942 78.1ZM306.442 68.9L305.996 69.1265L305.998 69.1295L306.442 68.9ZM312.642 42.4L312.174 42.5756L312.642 42.4ZM334.542 63.1L334.312 62.6561L334.305 62.6598L334.542 63.1ZM338.842 59.2L338.423 58.9264L338.421 58.9305L338.842 59.2ZM338.842 47.7L338.416 47.962L338.422 47.9717L338.428 47.9812L338.842 47.7ZM334.542 43.7L334.305 44.1403L334.312 44.1439L334.542 43.7ZM345.842 35.5L345.374 35.6756L345.842 35.5ZM348.042 35.5L348.51 35.6756L348.042 35.5ZM303.842 54.5C303.842 45.6322 305.762 38.8232 309.535 34.0084L308.748 33.3916C304.789 38.4435 302.842 45.5012 302.842 54.5H303.842ZM309.535 34.0091C313.354 29.1547 318.993 26.7 326.542 26.7V25.7C318.757 25.7 312.797 28.2453 308.749 33.3909L309.535 34.0091ZM326.542 26.7C329.485 26.7 332.259 27.1903 334.866 28.1682L335.217 27.2318C332.492 26.2097 329.599 25.7 326.542 25.7V26.7ZM334.87 28.1696C337.569 29.1568 339.281 30.3098 340.126 31.5774L340.958 31.0226C339.936 29.4902 337.982 28.2431 335.214 27.2304L334.87 28.1696ZM341.042 31.3V27.7H340.042V31.3H341.042ZM341.042 27.7C341.042 27.0437 341.206 26.6434 341.445 26.4036C341.685 26.1637 342.086 26 342.742 26V25C341.931 25 341.232 25.2029 340.738 25.6964C340.245 26.19 340.042 26.8896 340.042 27.7H341.042ZM342.742 26H356.342V25H342.742V26ZM356.342 26C356.998 26 357.398 26.1637 357.638 26.4036C357.878 26.6434 358.042 27.0437 358.042 27.7H359.042C359.042 26.8896 358.839 26.19 358.345 25.6964C357.852 25.2029 357.152 25 356.342 25V26ZM358.042 27.7V78.6H359.042V27.7H358.042ZM358.042 78.6C358.042 79.0535 357.871 79.4632 357.488 79.8465L358.195 80.5536C358.745 80.0034 359.042 79.3465 359.042 78.6H358.042ZM357.488 79.8464C357.188 80.1465 356.818 80.3 356.342 80.3V81.3C357.065 81.3 357.695 81.0535 358.195 80.5536L357.488 79.8464ZM356.342 80.3H342.742V81.3H356.342V80.3ZM342.742 80.3C342.264 80.3 341.846 80.1448 341.467 79.8204L340.816 80.5796C341.371 81.0552 342.019 81.3 342.742 81.3V80.3ZM341.521 79.8746C341.187 79.4839 341.042 79.096 341.042 78.7H340.042C340.042 79.3706 340.297 79.9827 340.762 80.5254L341.521 79.8746ZM341.042 78.7V75.8H340.042V78.7H341.042ZM340.144 75.497C339.147 76.8059 337.462 78.0297 335.033 79.1457L335.451 80.0543C337.955 78.9037 339.803 77.5941 340.94 76.103L340.144 75.497ZM335.028 79.1479C332.702 80.2465 330.109 80.8 327.242 80.8V81.8C330.241 81.8 332.982 81.2202 335.455 80.0521L335.028 79.1479ZM327.242 80.8C322.791 80.8 318.778 79.7537 315.193 77.6678L314.69 78.5322C318.439 80.713 322.626 81.8 327.242 81.8V80.8ZM315.197 77.6699C311.684 75.588 308.913 72.5938 306.886 68.6705L305.998 69.1295C308.104 73.2062 311 76.3454 314.687 78.5301L315.197 77.6699ZM306.888 68.6735C304.863 64.6904 303.842 59.9712 303.842 54.5H302.842C302.842 60.0955 303.887 64.9763 305.996 69.1265L306.888 68.6735ZM311.542 39.3C311.542 40.3677 311.755 41.4605 312.174 42.5756L313.11 42.2244C312.728 41.2062 312.542 40.2323 312.542 39.3H311.542ZM312.174 42.5756C312.379 43.1228 312.587 43.567 312.805 43.8833C312.999 44.1662 313.305 44.5 313.742 44.5V43.5C313.845 43.5 313.801 43.5672 313.629 43.3167C313.48 43.0996 313.305 42.7438 313.11 42.2244L312.174 42.5756ZM313.742 44.5C314.178 44.5 314.484 44.1662 314.679 43.8833C314.896 43.567 315.105 43.1228 315.31 42.5756L314.374 42.2244C314.179 42.7438 314.004 43.0996 313.855 43.3167C313.683 43.5672 313.639 43.5 313.742 43.5V44.5ZM315.31 42.5756C315.728 41.4605 315.942 40.3677 315.942 39.3H314.942C314.942 40.2323 314.755 41.2062 314.374 42.2244L315.31 42.5756ZM315.942 39.3C315.942 38.3637 315.797 37.5763 315.44 37.0086C315.058 36.4021 314.467 36.1 313.742 36.1V37.1C314.15 37.1 314.409 37.2479 314.594 37.5414C314.803 37.8737 314.942 38.4363 314.942 39.3H315.942ZM313.742 36.1C313.017 36.1 312.426 36.4021 312.044 37.0086C311.686 37.5763 311.542 38.3637 311.542 39.3H312.542C312.542 38.4363 312.681 37.8737 312.89 37.5414C313.075 37.2479 313.333 37.1 313.742 37.1V36.1ZM320.042 53.4C320.042 56.8677 320.789 59.6833 322.339 61.7957L323.145 61.2043C321.761 59.3167 321.042 56.7323 321.042 53.4H320.042ZM322.339 61.7957C323.913 63.942 326.206 65 329.142 65V64C326.477 64 324.504 63.0579 323.145 61.2043L322.339 61.7957ZM329.142 65C331.096 65 332.977 64.5106 334.779 63.5402L334.305 62.6598C332.64 63.5561 330.921 64 329.142 64V65ZM334.772 63.5439C336.648 62.5712 338.148 61.2119 339.263 59.4695L338.421 58.9305C337.402 60.5214 336.036 61.7621 334.312 62.6561L334.772 63.5439ZM339.26 59.4736C340.448 57.6564 341.042 55.6274 341.042 53.4H340.042C340.042 55.4392 339.502 57.2769 338.423 58.9264L339.26 59.4736ZM341.042 53.4C341.042 51.1726 340.448 49.1734 339.255 47.4188L338.428 47.9812C339.502 49.5599 340.042 51.3608 340.042 53.4H341.042ZM339.268 47.438C338.154 45.6277 336.653 44.2314 334.772 43.2561L334.312 44.1439C336.031 45.0353 337.397 46.3056 338.416 47.962L339.268 47.438ZM334.779 43.2598C332.977 42.2894 331.096 41.8 329.142 41.8V42.8C330.921 42.8 332.64 43.2439 334.305 44.1402L334.779 43.2598ZM329.142 41.8C326.206 41.8 323.913 42.8579 322.339 45.0043L323.145 45.5957C324.504 43.7421 326.477 42.8 329.142 42.8V41.8ZM322.339 45.0043C320.789 47.1167 320.042 49.9323 320.042 53.4H321.042C321.042 50.0677 321.761 47.4832 323.145 45.5957L322.339 45.0043ZM344.742 32.4C344.742 33.4677 344.955 34.5605 345.374 35.6756L346.31 35.3244C345.928 34.3062 345.742 33.3323 345.742 32.4H344.742ZM345.374 35.6756C345.579 36.2228 345.787 36.667 346.005 36.9833C346.199 37.2662 346.505 37.6 346.942 37.6V36.6C347.045 36.6 347.001 36.6672 346.829 36.4167C346.68 36.1996 346.505 35.8438 346.31 35.3244L345.374 35.6756ZM346.942 37.6C347.378 37.6 347.684 37.2662 347.879 36.9833C348.096 36.667 348.305 36.2228 348.51 35.6756L347.574 35.3244C347.379 35.8438 347.204 36.1996 347.055 36.4167C346.883 36.6672 346.839 36.6 346.942 36.6V37.6ZM348.51 35.6756C348.928 34.5605 349.142 33.4677 349.142 32.4H348.142C348.142 33.3323 347.955 34.3062 347.574 35.3244L348.51 35.6756ZM349.142 32.4C349.142 31.4637 348.997 30.6763 348.64 30.1086C348.258 29.5021 347.667 29.2 346.942 29.2V30.2C347.35 30.2 347.609 30.3479 347.794 30.6414C348.003 30.9737 348.142 31.5363 348.142 32.4H349.142ZM346.942 29.2C346.217 29.2 345.626 29.5021 345.244 30.1086C344.886 30.6763 344.742 31.4637 344.742 32.4H345.742C345.742 31.5363 345.881 30.9737 346.09 30.6414C346.275 30.3479 346.533 30.2 346.942 30.2V29.2ZM408.225 44.1L408.579 44.4536L408.596 44.4368L408.611 44.4185L408.225 44.1ZM406.125 44.2L405.833 44.6058L405.841 44.611L405.848 44.616L406.125 44.2ZM396.925 42.6L397 43.0945L397.012 43.0927L397.023 43.0903L396.925 42.6ZM389.725 46.7L390.09 47.0427L390.094 47.0374L389.725 46.7ZM385.825 80.2L385.472 79.8464L385.825 80.2ZM369.125 80.2L368.746 80.5254L368.771 80.5546L368.8 80.5796L369.125 80.2ZM386.525 33.3H386.025V34.6726L386.908 33.6216L386.525 33.3ZM392.725 28.7L392.953 29.1451L392.962 29.1406L392.725 28.7ZM400.525 26.2L400.498 25.7006L400.485 25.7016L400.525 26.2ZM402.325 26.1V25.6H402.312L402.298 25.6008L402.325 26.1ZM416.425 32.5L416.049 32.8293L416.06 32.8418L416.072 32.8535L416.425 32.5ZM416.325 34.3L416.711 34.6185L416.727 34.5987L416.741 34.5774L416.325 34.3ZM373.825 35.5L374.294 35.3244L373.825 35.5ZM376.025 35.5L375.557 35.3244L376.025 35.5ZM407.872 43.7464C407.593 44.0253 407.379 44.1 407.225 44.1V45.1C407.738 45.1 408.191 44.8414 408.579 44.4536L407.872 43.7464ZM407.225 44.1C407.025 44.1 406.755 44.0189 406.403 43.784L405.848 44.616C406.296 44.9144 406.759 45.1 407.225 45.1V44.1ZM406.418 43.7942C404.646 42.5184 402.402 41.9 399.725 41.9V42.9C402.249 42.9 404.272 43.4816 405.833 44.6058L406.418 43.7942ZM399.725 41.9C398.513 41.9 397.542 41.9668 396.827 42.1097L397.023 43.0903C397.642 42.9665 398.537 42.9 399.725 42.9V41.9ZM396.851 42.1055C394.052 42.5254 391.553 43.9599 389.356 46.3626L390.094 47.0374C392.164 44.7734 394.465 43.4746 397 43.0945L396.851 42.1055ZM389.361 46.3573C387.154 48.7029 386.025 51.3214 386.025 54.2H387.025C387.025 51.6119 388.03 49.2305 390.09 47.0427L389.361 46.3573ZM386.025 54.2V78.7H387.025V54.2H386.025ZM386.025 78.7C386.025 79.0707 385.868 79.45 385.472 79.8464L386.179 80.5536C386.716 80.0167 387.025 79.396 387.025 78.7H386.025ZM385.472 79.8464C385.172 80.1465 384.802 80.3 384.325 80.3V81.3C385.049 81.3 385.679 81.0535 386.179 80.5536L385.472 79.8464ZM384.325 80.3H370.725V81.3H384.325V80.3ZM370.725 80.3C370.248 80.3 369.829 80.1448 369.451 79.8204L368.8 80.5796C369.355 81.0552 370.003 81.3 370.725 81.3V80.3ZM369.505 79.8746C369.181 79.4961 369.025 79.0775 369.025 78.6H368.025C368.025 79.3225 368.27 79.9705 368.746 80.5254L369.505 79.8746ZM369.025 78.6V27.7H368.025V78.6H369.025ZM369.025 27.7C369.025 27.0437 369.189 26.6434 369.429 26.4036C369.669 26.1637 370.069 26 370.725 26V25C369.915 25 369.215 25.2029 368.722 25.6964C368.228 26.19 368.025 26.8896 368.025 27.7H369.025ZM370.725 26H384.325V25H370.725V26ZM384.325 26C384.982 26 385.382 26.1637 385.622 26.4036C385.862 26.6434 386.025 27.0437 386.025 27.7H387.025C387.025 26.8896 386.822 26.19 386.329 25.6964C385.835 25.2029 385.136 25 384.325 25V26ZM386.025 27.7V33.3H387.025V27.7H386.025ZM386.908 33.6216C388.252 32.0224 390.257 30.5262 392.953 29.145L392.497 28.255C389.727 29.6738 387.599 31.2443 386.143 32.9784L386.908 33.6216ZM392.962 29.1406C395.649 27.6985 398.183 26.8916 400.566 26.6984L400.485 25.7016C397.935 25.9084 395.268 26.7682 392.489 28.2594L392.962 29.1406ZM400.553 26.6992L402.353 26.5992L402.298 25.6008L400.498 25.7008L400.553 26.6992ZM402.325 26.6C407.848 26.6 412.411 28.671 416.049 32.8293L416.802 32.1707C412.973 27.7956 408.136 25.6 402.325 25.6V26.6ZM416.072 32.8535C416.161 32.9432 416.225 33.0738 416.225 33.3H417.225C417.225 32.8595 417.089 32.4568 416.779 32.1464L416.072 32.8535ZM416.225 33.3C416.225 33.4164 416.159 33.6476 415.909 34.0226L416.741 34.5774C417.025 34.1524 417.225 33.717 417.225 33.3H416.225ZM415.94 33.9815L407.84 43.7815L408.611 44.4185L416.711 34.6185L415.94 33.9815ZM372.725 32.4C372.725 33.4677 372.939 34.5605 373.357 35.6756L374.294 35.3244C373.912 34.3062 373.725 33.3323 373.725 32.4H372.725ZM373.357 35.6756C373.562 36.2228 373.771 36.667 373.988 36.9833C374.183 37.2662 374.489 37.6 374.925 37.6V36.6C375.029 36.6 374.985 36.6672 374.812 36.4167C374.663 36.1996 374.488 35.8438 374.294 35.3244L373.357 35.6756ZM374.925 37.6C375.362 37.6 375.668 37.2662 375.862 36.9833C376.08 36.667 376.288 36.2228 376.494 35.6756L375.557 35.3244C375.362 35.8438 375.188 36.1996 375.038 36.4167C374.866 36.6672 374.822 36.6 374.925 36.6V37.6ZM376.494 35.6756C376.912 34.5605 377.125 33.4677 377.125 32.4H376.125C376.125 33.3323 375.939 34.3062 375.557 35.3244L376.494 35.6756ZM377.125 32.4C377.125 31.4637 376.981 30.6763 376.624 30.1086C376.242 29.5021 375.65 29.2 374.925 29.2V30.2C375.334 30.2 375.592 30.3479 375.777 30.6414C375.987 30.9737 376.125 31.5363 376.125 32.4H377.125ZM374.925 29.2C374.201 29.2 373.609 29.5021 373.227 30.1086C372.87 30.6763 372.725 31.4637 372.725 32.4H373.725C373.725 31.5363 373.864 30.9737 374.074 30.6414C374.258 30.3479 374.517 30.2 374.925 30.2V29.2ZM425.225 35.4L424.756 35.2244L425.225 35.4ZM423.025 35.4L423.493 35.2244L423.025 35.4ZM430.725 25.5V26H431.225V25.5H430.725ZM448.725 25.5H448.225V26H448.725V25.5ZM462.025 26.2L461.645 26.5254L461.67 26.5546L461.699 26.5796L462.025 26.2ZM462.025 40.9L461.699 40.5204L461.685 40.5329L461.671 40.5464L462.025 40.9ZM448.725 41.5V41H448.225V41.5H448.725ZM450.425 63.5L450.121 63.8972L450.134 63.907L450.147 63.916L450.425 63.5ZM461.125 80.8V80.3L461.119 80.3L461.125 80.8ZM451.925 80.9L451.929 81.4L451.93 81.4L451.925 80.9ZM436.125 76L435.781 76.3636L435.788 76.37L436.125 76ZM430.725 41.5H431.225V41H430.725V41.5ZM436.025 21.9L435.556 22.0756L436.025 21.9ZM438.225 21.9L438.693 22.0756L438.225 21.9ZM424.125 37.5C424.561 37.5 424.867 37.1661 425.062 36.8833C425.279 36.567 425.488 36.1228 425.693 35.5756L424.756 35.2244C424.562 35.7438 424.387 36.0996 424.238 36.3167C424.065 36.5672 424.021 36.5 424.125 36.5V37.5ZM425.693 35.5756C426.111 34.4605 426.325 33.3677 426.325 32.3H425.325C425.325 33.2323 425.138 34.2062 424.756 35.2244L425.693 35.5756ZM426.325 32.3C426.325 31.3637 426.18 30.5763 425.823 30.0086C425.441 29.4021 424.849 29.1 424.125 29.1V30.1C424.533 30.1 424.792 30.2479 424.977 30.5414C425.186 30.8737 425.325 31.4363 425.325 32.3H426.325ZM424.125 29.1C423.4 29.1 422.808 29.4021 422.427 30.0086C422.069 30.5763 421.925 31.3637 421.925 32.3H422.925C422.925 31.4363 423.063 30.8737 423.273 30.5414C423.458 30.2479 423.716 30.1 424.125 30.1V29.1ZM421.925 32.3C421.925 33.3677 422.138 34.4605 422.556 35.5756L423.493 35.2244C423.111 34.2062 422.925 33.2323 422.925 32.3H421.925ZM422.556 35.5756C422.762 36.1228 422.97 36.567 423.188 36.8833C423.382 37.1661 423.688 37.5 424.125 37.5V36.5C424.228 36.5 424.184 36.5672 424.012 36.3167C423.862 36.0996 423.688 35.7438 423.493 35.2244L422.556 35.5756ZM418.225 27.7C418.225 27.0437 418.388 26.6434 418.628 26.4036C418.868 26.1637 419.268 26 419.925 26V25C419.114 25 418.415 25.2029 417.921 25.6964C417.428 26.19 417.225 26.8896 417.225 27.7H418.225ZM419.925 26H430.725V25H419.925V26ZM431.225 25.5V14.2H430.225V25.5H431.225ZM431.225 14.2C431.225 13.5437 431.388 13.1434 431.628 12.9035C431.868 12.6637 432.268 12.5 432.925 12.5V11.5C432.114 11.5 431.415 11.7029 430.921 12.1964C430.428 12.6899 430.225 13.3896 430.225 14.2H431.225ZM432.925 12.5H446.525V11.5H432.925V12.5ZM446.525 12.5C447.181 12.5 447.581 12.6637 447.821 12.9035C448.061 13.1434 448.225 13.5437 448.225 14.2H449.225C449.225 13.3896 449.022 12.6899 448.528 12.1964C448.035 11.7029 447.335 11.5 446.525 11.5V12.5ZM448.225 14.2V25.5H449.225V14.2H448.225ZM448.725 26H460.525V25H448.725V26ZM460.525 26C460.975 26 461.337 26.1664 461.645 26.5254L462.404 25.8746C461.912 25.3002 461.275 25 460.525 25V26ZM461.699 26.5796C462.058 26.8873 462.225 27.25 462.225 27.7H463.225C463.225 26.95 462.924 26.3127 462.35 25.8204L461.699 26.5796ZM462.225 27.7V39.3H463.225V27.7H462.225ZM462.225 39.3C462.225 39.8347 462.045 40.2241 461.699 40.5204L462.35 41.2796C462.938 40.7759 463.225 40.0986 463.225 39.3H462.225ZM461.671 40.5464C461.371 40.8465 461.001 41 460.525 41V42C461.248 42 461.878 41.7534 462.378 41.2536L461.671 40.5464ZM460.525 41H448.725V42H460.525V41ZM448.225 41.5V58.7H449.225V41.5H448.225ZM448.225 58.7C448.225 61.0905 448.802 62.8889 450.121 63.8972L450.728 63.1028C449.78 62.3778 449.225 60.9762 449.225 58.7H448.225ZM450.147 63.916C450.831 64.3719 451.793 64.6876 452.99 64.8928C454.194 65.0992 455.675 65.2 457.425 65.2V64.2C455.708 64.2 454.288 64.1008 453.159 63.9072C452.023 63.7124 451.218 63.4281 450.702 63.084L450.147 63.916ZM457.425 65.2H461.125V64.2H457.425V65.2ZM461.125 65.2C461.714 65.2 462.065 65.3471 462.271 65.5536C462.478 65.76 462.625 66.1104 462.625 66.7H463.625C463.625 65.9563 463.438 65.3066 462.978 64.8464C462.518 64.3863 461.868 64.2 461.125 64.2V65.2ZM462.625 66.7V78.8H463.625V66.7H462.625ZM462.625 78.8C462.625 79.3896 462.478 79.74 462.271 79.9464C462.065 80.1529 461.714 80.3 461.125 80.3V81.3C461.868 81.3 462.518 81.1137 462.978 80.6536C463.438 80.1934 463.625 79.5437 463.625 78.8H462.625ZM461.119 80.3L451.919 80.4L451.93 81.4L461.13 81.3L461.119 80.3ZM451.92 80.4C445.13 80.4659 440.004 78.8505 436.461 75.63L435.788 76.37C439.579 79.8161 444.986 81.4674 451.929 81.4L451.92 80.4ZM436.468 75.6365C432.995 72.3566 431.225 67.6048 431.225 61.3H430.225C430.225 67.7952 432.054 72.8434 435.781 76.3635L436.468 75.6365ZM431.225 61.3V41.5H430.225V61.3H431.225ZM430.725 41H419.925V42H430.725V41ZM419.925 41C419.268 41 418.868 40.8363 418.628 40.5964C418.388 40.3566 418.225 39.9563 418.225 39.3H417.225C417.225 40.1104 417.428 40.81 417.921 41.3036C418.415 41.7971 419.114 42 419.925 42V41ZM418.225 39.3V27.7H417.225V39.3H418.225ZM434.925 18.8C434.925 19.8677 435.138 20.9605 435.556 22.0756L436.493 21.7244C436.111 20.7062 435.925 19.7323 435.925 18.8H434.925ZM435.556 22.0756C435.762 22.6228 435.97 23.067 436.188 23.3833C436.382 23.6661 436.688 24 437.125 24V23C437.228 23 437.184 23.0672 437.012 22.8167C436.862 22.5996 436.688 22.2438 436.493 21.7244L435.556 22.0756ZM437.125 24C437.561 24 437.867 23.6661 438.062 23.3833C438.279 23.067 438.488 22.6228 438.693 22.0756L437.756 21.7244C437.562 22.2438 437.387 22.5996 437.238 22.8167C437.065 23.0672 437.021 23 437.125 23V24ZM438.693 22.0756C439.111 20.9605 439.325 19.8677 439.325 18.8H438.325C438.325 19.7323 438.138 20.7062 437.756 21.7244L438.693 22.0756ZM439.325 18.8C439.325 17.8637 439.18 17.0762 438.823 16.5086C438.441 15.9021 437.849 15.6 437.125 15.6V16.6C437.533 16.6 437.792 16.7479 437.977 17.0414C438.186 17.3737 438.325 17.9363 438.325 18.8H439.325ZM437.125 15.6C436.4 15.6 435.808 15.9021 435.427 16.5086C435.069 17.0762 434.925 17.8637 434.925 18.8H435.925C435.925 17.9363 436.063 17.3737 436.273 17.0414C436.458 16.7479 436.716 16.6 437.125 16.6V15.6ZM467.962 33.4L468.405 33.1678L468.398 33.1551L468.391 33.1427L467.962 33.4ZM468.862 30.7L469.02 31.1743L469.049 31.1647L469.077 31.1515L468.862 30.7ZM481.262 24.8L481.477 25.2515L481.509 25.236L481.539 25.216L481.262 24.8ZM483.962 25.7L483.492 25.8709L483.501 25.8951L483.512 25.9183L483.962 25.7ZM498.762 56.2L498.312 56.4183L498.791 57.404L499.222 56.3968L498.762 56.2ZM511.562 26.3L512.022 26.4968L512.026 26.4863L512.03 26.4756L511.562 26.3ZM514.462 25L514.639 24.5323L514.638 24.5318L514.462 25ZM526.362 29.5L526.185 29.9677L526.195 29.9712L526.204 29.9743L526.362 29.5ZM527.662 30.6L527.215 30.8236L527.662 30.6ZM527.662 32.2L527.215 31.9764L527.21 31.9864L527.205 31.9966L527.662 32.2ZM504.462 84.3L504.918 84.5048L504.919 84.5034L504.462 84.3ZM473.862 100.6L473.78 101.093L473.789 101.095L473.862 100.6ZM474.162 86.1L474.138 86.5994L474.142 86.5996L474.162 86.1ZM488.262 77.5L487.806 77.2955L487.805 77.2969L488.262 77.5ZM489.562 74.6L490.018 74.8045L490.118 74.5829L490.005 74.3678L489.562 74.6ZM475.862 37.5L475.394 37.6756L475.862 37.5ZM478.062 37.5L478.53 37.6756L478.062 37.5ZM468.391 33.1427C468.23 32.874 468.162 32.6286 468.162 32.4H467.162C467.162 32.8381 467.295 33.2593 467.533 33.6572L468.391 33.1427ZM468.162 32.4C468.162 32.044 468.244 31.7933 468.371 31.6133C468.497 31.4345 468.699 31.2814 469.02 31.1743L468.704 30.2257C468.225 30.3853 467.827 30.6488 467.554 31.0367C467.281 31.4233 467.162 31.8894 467.162 32.4H468.162ZM469.077 31.1515L481.477 25.2515L481.047 24.3485L468.647 30.2485L469.077 31.1515ZM481.539 25.216C481.61 25.1688 481.816 25.1 482.262 25.1V24.1C481.775 24.1 481.314 24.1646 480.985 24.384L481.539 25.216ZM482.262 25.1C482.626 25.1 482.883 25.1768 483.065 25.2948C483.244 25.41 483.39 25.5899 483.492 25.8709L484.432 25.5291C484.268 25.0767 483.997 24.7067 483.609 24.4552C483.224 24.2065 482.765 24.1 482.262 24.1V25.1ZM483.512 25.9183L498.312 56.4183L499.212 55.9817L484.412 25.4817L483.512 25.9183ZM499.222 56.3968L512.022 26.4968L511.102 26.1032L498.302 56.0032L499.222 56.3968ZM512.03 26.4756C512.176 26.0872 512.467 25.7782 512.965 25.5569L512.559 24.6431C511.857 24.9552 511.348 25.4462 511.094 26.1244L512.03 26.4756ZM512.965 25.5569C513.465 25.3347 513.895 25.3213 514.287 25.4682L514.638 24.5318C513.963 24.2787 513.259 24.332 512.559 24.6431L512.965 25.5569ZM514.285 25.4677L526.185 29.9677L526.539 29.0323L514.639 24.5323L514.285 25.4677ZM526.204 29.9743C526.687 30.1352 527.011 30.4166 527.215 30.8236L528.109 30.3764C527.779 29.7167 527.238 29.2648 526.52 29.0257L526.204 29.9743ZM527.215 30.8236C527.411 31.2162 527.411 31.5838 527.215 31.9764L528.109 32.4236C528.446 31.7495 528.446 31.0505 528.109 30.3764L527.215 30.8236ZM527.205 31.9966L504.005 84.0966L504.919 84.5034L528.119 32.4034L527.205 31.9966ZM504.006 84.0952C501.536 89.5959 498.273 93.6896 494.233 96.4103C490.194 99.1297 485.345 100.5 479.662 100.5V101.5C485.512 101.5 490.563 100.087 494.791 97.2397C499.018 94.3937 502.389 90.1375 504.918 84.5048L504.006 84.0952ZM479.662 100.5C477.617 100.5 475.708 100.368 473.935 100.105L473.789 101.095C475.616 101.365 477.574 101.5 479.662 101.5V100.5ZM473.944 100.107C473.423 100.02 473.094 99.8354 472.892 99.5996C472.69 99.3646 472.562 99.0173 472.562 98.5H471.562C471.562 99.1827 471.734 99.7854 472.133 100.25C472.53 100.715 473.102 100.98 473.78 101.093L473.944 100.107ZM472.562 98.5V88H471.562V98.5H472.562ZM472.562 88C472.562 87.4147 472.715 87.0838 472.923 86.8958C473.136 86.7029 473.507 86.5694 474.138 86.5994L474.186 85.6006C473.417 85.564 472.738 85.7138 472.252 86.1542C471.759 86.5995 471.562 87.2519 471.562 88H472.562ZM474.142 86.5996C477.585 86.736 480.546 86.072 482.997 84.5769C485.45 83.0811 487.353 80.7776 488.719 77.7031L487.805 77.2969C486.505 80.2224 484.724 82.3522 482.477 83.7231C480.228 85.0947 477.472 85.7307 474.182 85.6004L474.142 86.5996ZM488.718 77.7045L490.018 74.8045L489.106 74.3955L487.806 77.2955L488.718 77.7045ZM490.005 74.3678L468.405 33.1678L467.519 33.6322L489.119 74.8322L490.005 74.3678ZM474.762 34.4C474.762 35.4677 474.976 36.5605 475.394 37.6756L476.33 37.3244C475.948 36.3062 475.762 35.3323 475.762 34.4H474.762ZM475.394 37.6756C475.599 38.2228 475.808 38.667 476.025 38.9833C476.22 39.2662 476.526 39.6 476.962 39.6V38.6C477.065 38.6 477.021 38.6672 476.849 38.4167C476.7 38.1996 476.525 37.8438 476.33 37.3244L475.394 37.6756ZM476.962 39.6C477.399 39.6 477.705 39.2662 477.899 38.9833C478.117 38.667 478.325 38.2228 478.53 37.6756L477.594 37.3244C477.399 37.8438 477.224 38.1996 477.075 38.4167C476.903 38.6672 476.859 38.6 476.962 38.6V39.6ZM478.53 37.6756C478.948 36.5605 479.162 35.4677 479.162 34.4H478.162C478.162 35.3323 477.976 36.3062 477.594 37.3244L478.53 37.6756ZM479.162 34.4C479.162 33.4637 479.018 32.6763 478.66 32.1086C478.278 31.5021 477.687 31.2 476.962 31.2V32.2C477.371 32.2 477.629 32.3479 477.814 32.6414C478.023 32.9737 478.162 33.5363 478.162 34.4H479.162ZM476.962 31.2C476.237 31.2 475.646 31.5021 475.264 32.1086C474.907 32.6763 474.762 33.4637 474.762 34.4H475.762C475.762 33.5363 475.901 32.9737 476.11 32.6414C476.295 32.3479 476.554 32.2 476.962 32.2V31.2Z" fill="#0064FF" mask="url(#path-1-outside-1_296_72)"/>
</svg>
