<svg width="159" height="32" viewBox="0 0 159 32" fill="none" xmlns="http://www.w3.org/2000/svg">
<mask id="path-1-outside-1_385_2" maskUnits="userSpaceOnUse" x="-1" y="0" width="161" height="32" fill="black">
<rect fill="white" x="-1" width="161" height="32"/>
<path d="M9.68137 25.57C7.74137 25.57 6.07137 25.08 4.67137 24.1C3.27137 23.12 2.20137 21.73 1.46137 19.93C0.721367 18.11 0.351367 15.96 0.351367 13.48C0.351367 11 0.701367 8.85 1.40137 7.03C2.12137 5.19 3.18137 3.78 4.58137 2.8C5.98137 1.8 7.68137 1.3 9.68137 1.3C11.7814 1.3 13.7014 1.82 15.4414 2.86C17.2014 3.9 18.5914 5.33 19.6114 7.15C20.6514 8.95 21.1714 10.97 21.1714 13.21C21.1714 15.71 20.5614 17.96 19.3414 19.96L21.5314 22.18C21.6914 22.34 21.7714 22.49 21.7714 22.63C21.7714 22.79 21.6914 22.95 21.5314 23.11L18.4414 26.2C18.2814 26.36 18.1214 26.44 17.9614 26.44C17.8214 26.44 17.6714 26.36 17.5114 26.2L15.3214 24.01C13.6414 25.05 11.7614 25.57 9.68137 25.57ZM5.48137 4.78C5.48137 5.08 5.54137 5.39 5.66137 5.71C5.78137 6.03 5.89137 6.19 5.99137 6.19C6.09137 6.19 6.20137 6.03 6.32137 5.71C6.44137 5.39 6.50137 5.08 6.50137 4.78C6.50137 4.24 6.33137 3.97 5.99137 3.97C5.65137 3.97 5.48137 4.24 5.48137 4.78ZM6.05137 13.51C6.05137 15.65 6.40137 17.29 7.10137 18.43C7.80137 19.57 8.85137 20.14 10.2514 20.14C10.5514 20.14 10.9014 20.09 11.3014 19.99L9.23137 17.92C9.09137 17.74 9.02137 17.58 9.02137 17.44C9.02137 17.28 9.09137 17.13 9.23137 16.99L12.3214 13.87C12.4614 13.73 12.6214 13.66 12.8014 13.66C12.9814 13.66 13.1414 13.73 13.2814 13.87L15.1714 15.79C15.4114 15.07 15.5314 14.32 15.5314 13.54C15.5314 12.34 15.2814 11.23 14.7814 10.21C14.2814 9.19 13.6214 8.38 12.8014 7.78C12.0014 7.18 11.1514 6.88 10.2514 6.88C7.45137 6.88 6.05137 9.09 6.05137 13.51ZM35.6004 9.13C35.6004 8.97 35.6604 8.83 35.7804 8.71C35.9204 8.57 36.0804 8.5 36.2604 8.5H40.3404C40.5204 8.5 40.6704 8.57 40.7904 8.71C40.9304 8.83 41.0004 8.98 41.0004 9.16V24.43C41.0004 24.87 40.7804 25.09 40.3404 25.09H36.2604C35.8204 25.09 35.6004 24.87 35.6004 24.43V23.35C35.2604 23.79 34.7004 24.16 33.9204 24.46C33.1404 24.74 32.3004 24.88 31.4004 24.88C29.0804 24.88 27.3404 24.13 26.1804 22.63C25.0204 21.13 24.4404 19.02 24.4404 16.3V9.1C24.4404 8.7 24.6404 8.5 25.0404 8.5H29.2104C29.6104 8.5 29.8104 8.7 29.8104 9.1V16.72C29.8104 18.94 30.6004 20.05 32.1804 20.05C32.7404 20.05 33.2804 19.91 33.8004 19.63C34.3404 19.35 34.7704 18.96 35.0904 18.46C35.4304 17.94 35.6004 17.36 35.6004 16.72V9.13ZM25.8504 10.57C25.8504 10.87 25.9104 11.18 26.0304 11.5C26.1504 11.82 26.2604 11.98 26.3604 11.98C26.4604 11.98 26.5704 11.82 26.6904 11.5C26.8104 11.18 26.8704 10.87 26.8704 10.57C26.8704 10.03 26.7004 9.76 26.3604 9.76C26.0204 9.76 25.8504 10.03 25.8504 10.57ZM37.0104 10.57C37.0104 10.87 37.0704 11.18 37.1904 11.5C37.3104 11.82 37.4204 11.98 37.5204 11.98C37.6204 11.98 37.7304 11.82 37.8504 11.5C37.9704 11.18 38.0304 10.87 38.0304 10.57C38.0304 10.03 37.8604 9.76 37.5204 9.76C37.1804 9.76 37.0104 10.03 37.0104 10.57ZM45.1807 25.09C45.0007 25.09 44.8407 25.03 44.7007 24.91C44.5807 24.77 44.5207 24.61 44.5207 24.43V9.16C44.5207 8.72 44.7407 8.5 45.1807 8.5H49.2607C49.7007 8.5 49.9207 8.72 49.9207 9.16V24.43C49.9207 24.61 49.8507 24.77 49.7107 24.91C49.5907 25.03 49.4407 25.09 49.2607 25.09H45.1807ZM44.0107 3.7C44.0107 2.88 44.2507 2.2 44.7307 1.66C45.2107 1.12 45.8807 0.849998 46.7407 0.849998C47.2807 0.849998 47.8307 0.979998 48.3907 1.24C48.9707 1.5 49.4507 1.85 49.8307 2.29C50.2107 2.73 50.4007 3.2 50.4007 3.7C50.4007 4.2 50.2107 4.67 49.8307 5.11C49.4507 5.53 48.9707 5.87 48.3907 6.13C47.8307 6.39 47.2807 6.52 46.7407 6.52C45.8807 6.52 45.2107 6.26 44.7307 5.74C44.2507 5.2 44.0107 4.52 44.0107 3.7ZM45.9307 10.57C45.9307 10.87 45.9907 11.18 46.1107 11.5C46.2307 11.82 46.3407 11.98 46.4407 11.98C46.5407 11.98 46.6507 11.82 46.7707 11.5C46.8907 11.18 46.9507 10.87 46.9507 10.57C46.9507 10.03 46.7807 9.76 46.4407 9.76C46.1007 9.76 45.9307 10.03 45.9307 10.57ZM45.9607 3.22C45.9607 3.44 46.0107 3.66 46.1107 3.88C46.2107 4.1 46.3207 4.21 46.4407 4.21C46.5607 4.21 46.6707 4.1 46.7707 3.88C46.8707 3.66 46.9207 3.44 46.9207 3.22C46.9207 3.02 46.8707 2.87 46.7707 2.77C46.6907 2.65 46.5807 2.59 46.4407 2.59C46.3007 2.59 46.1807 2.65 46.0807 2.77C46.0007 2.87 45.9607 3.02 45.9607 3.22ZM55.575 11.95C55.675 11.95 55.785 11.79 55.905 11.47C56.025 11.15 56.085 10.84 56.085 10.54C56.085 10 55.915 9.73 55.575 9.73C55.235 9.73 55.065 10 55.065 10.54C55.065 10.84 55.125 11.15 55.245 11.47C55.365 11.79 55.475 11.95 55.575 11.95ZM53.415 21.55C53.415 21.21 53.575 20.88 53.895 20.56L60.885 13.3H54.315C53.875 13.3 53.655 13.08 53.655 12.64V9.16C53.655 8.72 53.875 8.5 54.315 8.5H67.155C67.335 8.5 67.485 8.57 67.605 8.71C67.745 8.83 67.815 8.98 67.815 9.16V12.31C67.815 12.63 67.675 12.93 67.395 13.21L60.645 20.29H67.755C67.935 20.29 68.085 20.36 68.205 20.5C68.345 20.62 68.415 20.77 68.415 20.95V24.43C68.415 24.63 68.345 24.79 68.205 24.91C68.085 25.03 67.935 25.09 67.755 25.09H54.075C53.635 25.09 53.415 24.87 53.415 24.43V21.55ZM72.3633 25.09C72.1833 25.09 72.0233 25.03 71.8833 24.91C71.7633 24.77 71.7033 24.61 71.7033 24.43V2.41C71.7033 1.97 71.9233 1.75 72.3633 1.75H77.5533C81.6733 1.75 84.6833 2.44 86.5833 3.82C88.5033 5.2 89.4633 7.22 89.4633 9.88C89.4633 12.4 88.4533 14.39 86.4333 15.85C84.4333 17.31 81.4233 18.08 77.4033 18.16V24.43C77.4033 24.61 77.3333 24.77 77.1933 24.91C77.0733 25.03 76.9233 25.09 76.7433 25.09H72.3633ZM73.1133 3.82C73.1133 4.12 73.1733 4.43 73.2933 4.75C73.4133 5.07 73.5233 5.23 73.6233 5.23C73.7233 5.23 73.8333 5.07 73.9533 4.75C74.0733 4.43 74.1333 4.12 74.1333 3.82C74.1333 3.28 73.9633 3.01 73.6233 3.01C73.2833 3.01 73.1133 3.28 73.1133 3.82ZM77.4033 13C77.4833 13.02 77.5933 13.03 77.7333 13.03C79.8333 13.03 81.3333 12.76 82.2333 12.22C83.1333 11.68 83.5833 10.97 83.5833 10.09C83.5833 9.09 83.1433 8.33 82.2633 7.81C81.3833 7.29 79.8733 7.03 77.7333 7.03H77.4033V13ZM91.2525 17.2C91.2525 14.52 91.8325 12.44 92.9925 10.96C94.1725 9.46 95.9125 8.71 98.2125 8.71C99.1125 8.71 99.9625 8.86 100.763 9.16C101.583 9.46 102.133 9.82 102.413 10.24V9.16C102.413 8.72 102.633 8.5 103.073 8.5H107.153C107.593 8.5 107.813 8.72 107.813 9.16V24.43C107.813 24.61 107.743 24.77 107.603 24.91C107.483 25.03 107.333 25.09 107.153 25.09H103.073C102.893 25.09 102.733 25.03 102.593 24.91C102.473 24.77 102.413 24.62 102.413 24.46V23.59C102.093 24.01 101.563 24.39 100.823 24.73C100.103 25.07 99.3025 25.24 98.4225 25.24C97.0625 25.24 95.8325 24.92 94.7325 24.28C93.6525 23.64 92.8025 22.72 92.1825 21.52C91.5625 20.3 91.2525 18.86 91.2525 17.2ZM93.8625 12.64C93.8625 12.94 93.9225 13.25 94.0425 13.57C94.1625 13.89 94.2725 14.05 94.3725 14.05C94.4725 14.05 94.5825 13.89 94.7025 13.57C94.8225 13.25 94.8825 12.94 94.8825 12.64C94.8825 12.1 94.7125 11.83 94.3725 11.83C94.0325 11.83 93.8625 12.1 93.8625 12.64ZM96.4125 16.87C96.4125 17.89 96.6325 18.7 97.0725 19.3C97.5125 19.9 98.1525 20.2 98.9925 20.2C99.5525 20.2 100.093 20.06 100.613 19.78C101.153 19.5 101.583 19.11 101.903 18.61C102.243 18.09 102.413 17.51 102.413 16.87C102.413 16.23 102.243 15.66 101.903 15.16C101.583 14.64 101.153 14.24 100.613 13.96C100.093 13.68 99.5525 13.54 98.9925 13.54C98.1525 13.54 97.5125 13.84 97.0725 14.44C96.6325 15.04 96.4125 15.85 96.4125 16.87ZM103.823 10.57C103.823 10.87 103.883 11.18 104.003 11.5C104.123 11.82 104.233 11.98 104.333 11.98C104.433 11.98 104.543 11.82 104.663 11.5C104.783 11.18 104.843 10.87 104.843 10.57C104.843 10.03 104.673 9.76 104.333 9.76C103.993 9.76 103.823 10.03 103.823 10.57ZM122.718 14.08C122.618 14.18 122.518 14.23 122.418 14.23C122.318 14.23 122.208 14.19 122.088 14.11C121.588 13.75 120.948 13.57 120.168 13.57C119.808 13.57 119.528 13.59 119.328 13.63C118.528 13.75 117.808 14.16 117.168 14.86C116.528 15.54 116.208 16.29 116.208 17.11V24.46C116.208 24.62 116.138 24.77 115.998 24.91C115.878 25.03 115.728 25.09 115.548 25.09H111.468C111.288 25.09 111.128 25.03 110.988 24.91C110.868 24.77 110.808 24.61 110.808 24.43V9.16C110.808 8.72 111.028 8.5 111.468 8.5H115.548C115.988 8.5 116.208 8.72 116.208 9.16V10.84C116.628 10.34 117.248 9.88 118.068 9.46C118.888 9.02 119.668 8.77 120.408 8.71L120.948 8.68C122.648 8.68 124.058 9.32 125.178 10.6C125.238 10.66 125.268 10.74 125.268 10.84C125.268 10.92 125.228 11.02 125.148 11.14L122.718 14.08ZM112.218 10.57C112.218 10.87 112.278 11.18 112.398 11.5C112.518 11.82 112.628 11.98 112.728 11.98C112.828 11.98 112.938 11.82 113.058 11.5C113.178 11.18 113.238 10.87 113.238 10.57C113.238 10.03 113.068 9.76 112.728 9.76C112.388 9.76 112.218 10.03 112.218 10.57ZM127.487 11.95C127.587 11.95 127.697 11.79 127.817 11.47C127.937 11.15 127.997 10.84 127.997 10.54C127.997 10 127.827 9.73 127.487 9.73C127.147 9.73 126.977 10 126.977 10.54C126.977 10.84 127.037 11.15 127.157 11.47C127.277 11.79 127.387 11.95 127.487 11.95ZM125.567 9.16C125.567 8.72 125.787 8.5 126.227 8.5H129.467V5.11C129.467 4.67 129.687 4.45 130.127 4.45H134.207C134.647 4.45 134.867 4.67 134.867 5.11V8.5H138.407C138.587 8.5 138.737 8.57 138.857 8.71C138.997 8.83 139.067 8.98 139.067 9.16V12.64C139.067 12.84 138.997 13 138.857 13.12C138.737 13.24 138.587 13.3 138.407 13.3H134.867V18.46C134.867 19.16 135.037 19.64 135.377 19.9C135.737 20.14 136.437 20.26 137.477 20.26H138.587C138.987 20.26 139.187 20.46 139.187 20.86V24.49C139.187 24.89 138.987 25.09 138.587 25.09L135.827 25.12C133.767 25.14 132.187 24.65 131.087 23.65C130.007 22.63 129.467 21.16 129.467 19.24V13.3H126.227C125.787 13.3 125.567 13.08 125.567 12.64V9.16ZM130.877 6.49C130.877 6.79 130.937 7.1 131.057 7.42C131.177 7.74 131.287 7.9 131.387 7.9C131.487 7.9 131.597 7.74 131.717 7.42C131.837 7.1 131.897 6.79 131.897 6.49C131.897 5.95 131.727 5.68 131.387 5.68C131.047 5.68 130.877 5.95 130.877 6.49ZM140.639 10.87C140.579 10.77 140.549 10.67 140.549 10.57C140.549 10.31 140.669 10.14 140.909 10.06L144.629 8.29C144.689 8.25 144.789 8.23 144.929 8.23C145.189 8.23 145.359 8.34 145.439 8.56L149.879 17.71L153.719 8.74C153.779 8.58 153.899 8.46 154.079 8.38C154.259 8.3 154.429 8.29 154.589 8.35L158.159 9.7C158.339 9.76 158.469 9.87 158.549 10.03C158.629 10.19 158.629 10.35 158.549 10.51L151.589 26.14C150.089 29.48 147.609 31.15 144.149 31.15C143.529 31.15 142.949 31.11 142.409 31.03C142.049 30.97 141.869 30.76 141.869 30.4V27.25C141.869 26.85 142.079 26.66 142.499 26.68C144.519 26.76 145.929 25.9 146.729 24.1L147.119 23.23L140.639 10.87ZM142.829 11.17C142.829 11.47 142.889 11.78 143.009 12.1C143.129 12.42 143.239 12.58 143.339 12.58C143.439 12.58 143.549 12.42 143.669 12.1C143.789 11.78 143.849 11.47 143.849 11.17C143.849 10.63 143.679 10.36 143.339 10.36C142.999 10.36 142.829 10.63 142.829 11.17Z"/>
</mask>
<path d="M9.68137 25.57C7.74137 25.57 6.07137 25.08 4.67137 24.1C3.27137 23.12 2.20137 21.73 1.46137 19.93C0.721367 18.11 0.351367 15.96 0.351367 13.48C0.351367 11 0.701367 8.85 1.40137 7.03C2.12137 5.19 3.18137 3.78 4.58137 2.8C5.98137 1.8 7.68137 1.3 9.68137 1.3C11.7814 1.3 13.7014 1.82 15.4414 2.86C17.2014 3.9 18.5914 5.33 19.6114 7.15C20.6514 8.95 21.1714 10.97 21.1714 13.21C21.1714 15.71 20.5614 17.96 19.3414 19.96L21.5314 22.18C21.6914 22.34 21.7714 22.49 21.7714 22.63C21.7714 22.79 21.6914 22.95 21.5314 23.11L18.4414 26.2C18.2814 26.36 18.1214 26.44 17.9614 26.44C17.8214 26.44 17.6714 26.36 17.5114 26.2L15.3214 24.01C13.6414 25.05 11.7614 25.57 9.68137 25.57ZM5.48137 4.78C5.48137 5.08 5.54137 5.39 5.66137 5.71C5.78137 6.03 5.89137 6.19 5.99137 6.19C6.09137 6.19 6.20137 6.03 6.32137 5.71C6.44137 5.39 6.50137 5.08 6.50137 4.78C6.50137 4.24 6.33137 3.97 5.99137 3.97C5.65137 3.97 5.48137 4.24 5.48137 4.78ZM6.05137 13.51C6.05137 15.65 6.40137 17.29 7.10137 18.43C7.80137 19.57 8.85137 20.14 10.2514 20.14C10.5514 20.14 10.9014 20.09 11.3014 19.99L9.23137 17.92C9.09137 17.74 9.02137 17.58 9.02137 17.44C9.02137 17.28 9.09137 17.13 9.23137 16.99L12.3214 13.87C12.4614 13.73 12.6214 13.66 12.8014 13.66C12.9814 13.66 13.1414 13.73 13.2814 13.87L15.1714 15.79C15.4114 15.07 15.5314 14.32 15.5314 13.54C15.5314 12.34 15.2814 11.23 14.7814 10.21C14.2814 9.19 13.6214 8.38 12.8014 7.78C12.0014 7.18 11.1514 6.88 10.2514 6.88C7.45137 6.88 6.05137 9.09 6.05137 13.51ZM35.6004 9.13C35.6004 8.97 35.6604 8.83 35.7804 8.71C35.9204 8.57 36.0804 8.5 36.2604 8.5H40.3404C40.5204 8.5 40.6704 8.57 40.7904 8.71C40.9304 8.83 41.0004 8.98 41.0004 9.16V24.43C41.0004 24.87 40.7804 25.09 40.3404 25.09H36.2604C35.8204 25.09 35.6004 24.87 35.6004 24.43V23.35C35.2604 23.79 34.7004 24.16 33.9204 24.46C33.1404 24.74 32.3004 24.88 31.4004 24.88C29.0804 24.88 27.3404 24.13 26.1804 22.63C25.0204 21.13 24.4404 19.02 24.4404 16.3V9.1C24.4404 8.7 24.6404 8.5 25.0404 8.5H29.2104C29.6104 8.5 29.8104 8.7 29.8104 9.1V16.72C29.8104 18.94 30.6004 20.05 32.1804 20.05C32.7404 20.05 33.2804 19.91 33.8004 19.63C34.3404 19.35 34.7704 18.96 35.0904 18.46C35.4304 17.94 35.6004 17.36 35.6004 16.72V9.13ZM25.8504 10.57C25.8504 10.87 25.9104 11.18 26.0304 11.5C26.1504 11.82 26.2604 11.98 26.3604 11.98C26.4604 11.98 26.5704 11.82 26.6904 11.5C26.8104 11.18 26.8704 10.87 26.8704 10.57C26.8704 10.03 26.7004 9.76 26.3604 9.76C26.0204 9.76 25.8504 10.03 25.8504 10.57ZM37.0104 10.57C37.0104 10.87 37.0704 11.18 37.1904 11.5C37.3104 11.82 37.4204 11.98 37.5204 11.98C37.6204 11.98 37.7304 11.82 37.8504 11.5C37.9704 11.18 38.0304 10.87 38.0304 10.57C38.0304 10.03 37.8604 9.76 37.5204 9.76C37.1804 9.76 37.0104 10.03 37.0104 10.57ZM45.1807 25.09C45.0007 25.09 44.8407 25.03 44.7007 24.91C44.5807 24.77 44.5207 24.61 44.5207 24.43V9.16C44.5207 8.72 44.7407 8.5 45.1807 8.5H49.2607C49.7007 8.5 49.9207 8.72 49.9207 9.16V24.43C49.9207 24.61 49.8507 24.77 49.7107 24.91C49.5907 25.03 49.4407 25.09 49.2607 25.09H45.1807ZM44.0107 3.7C44.0107 2.88 44.2507 2.2 44.7307 1.66C45.2107 1.12 45.8807 0.849998 46.7407 0.849998C47.2807 0.849998 47.8307 0.979998 48.3907 1.24C48.9707 1.5 49.4507 1.85 49.8307 2.29C50.2107 2.73 50.4007 3.2 50.4007 3.7C50.4007 4.2 50.2107 4.67 49.8307 5.11C49.4507 5.53 48.9707 5.87 48.3907 6.13C47.8307 6.39 47.2807 6.52 46.7407 6.52C45.8807 6.52 45.2107 6.26 44.7307 5.74C44.2507 5.2 44.0107 4.52 44.0107 3.7ZM45.9307 10.57C45.9307 10.87 45.9907 11.18 46.1107 11.5C46.2307 11.82 46.3407 11.98 46.4407 11.98C46.5407 11.98 46.6507 11.82 46.7707 11.5C46.8907 11.18 46.9507 10.87 46.9507 10.57C46.9507 10.03 46.7807 9.76 46.4407 9.76C46.1007 9.76 45.9307 10.03 45.9307 10.57ZM45.9607 3.22C45.9607 3.44 46.0107 3.66 46.1107 3.88C46.2107 4.1 46.3207 4.21 46.4407 4.21C46.5607 4.21 46.6707 4.1 46.7707 3.88C46.8707 3.66 46.9207 3.44 46.9207 3.22C46.9207 3.02 46.8707 2.87 46.7707 2.77C46.6907 2.65 46.5807 2.59 46.4407 2.59C46.3007 2.59 46.1807 2.65 46.0807 2.77C46.0007 2.87 45.9607 3.02 45.9607 3.22ZM55.575 11.95C55.675 11.95 55.785 11.79 55.905 11.47C56.025 11.15 56.085 10.84 56.085 10.54C56.085 10 55.915 9.73 55.575 9.73C55.235 9.73 55.065 10 55.065 10.54C55.065 10.84 55.125 11.15 55.245 11.47C55.365 11.79 55.475 11.95 55.575 11.95ZM53.415 21.55C53.415 21.21 53.575 20.88 53.895 20.56L60.885 13.3H54.315C53.875 13.3 53.655 13.08 53.655 12.64V9.16C53.655 8.72 53.875 8.5 54.315 8.5H67.155C67.335 8.5 67.485 8.57 67.605 8.71C67.745 8.83 67.815 8.98 67.815 9.16V12.31C67.815 12.63 67.675 12.93 67.395 13.21L60.645 20.29H67.755C67.935 20.29 68.085 20.36 68.205 20.5C68.345 20.62 68.415 20.77 68.415 20.95V24.43C68.415 24.63 68.345 24.79 68.205 24.91C68.085 25.03 67.935 25.09 67.755 25.09H54.075C53.635 25.09 53.415 24.87 53.415 24.43V21.55ZM72.3633 25.09C72.1833 25.09 72.0233 25.03 71.8833 24.91C71.7633 24.77 71.7033 24.61 71.7033 24.43V2.41C71.7033 1.97 71.9233 1.75 72.3633 1.75H77.5533C81.6733 1.75 84.6833 2.44 86.5833 3.82C88.5033 5.2 89.4633 7.22 89.4633 9.88C89.4633 12.4 88.4533 14.39 86.4333 15.85C84.4333 17.31 81.4233 18.08 77.4033 18.16V24.43C77.4033 24.61 77.3333 24.77 77.1933 24.91C77.0733 25.03 76.9233 25.09 76.7433 25.09H72.3633ZM73.1133 3.82C73.1133 4.12 73.1733 4.43 73.2933 4.75C73.4133 5.07 73.5233 5.23 73.6233 5.23C73.7233 5.23 73.8333 5.07 73.9533 4.75C74.0733 4.43 74.1333 4.12 74.1333 3.82C74.1333 3.28 73.9633 3.01 73.6233 3.01C73.2833 3.01 73.1133 3.28 73.1133 3.82ZM77.4033 13C77.4833 13.02 77.5933 13.03 77.7333 13.03C79.8333 13.03 81.3333 12.76 82.2333 12.22C83.1333 11.68 83.5833 10.97 83.5833 10.09C83.5833 9.09 83.1433 8.33 82.2633 7.81C81.3833 7.29 79.8733 7.03 77.7333 7.03H77.4033V13ZM91.2525 17.2C91.2525 14.52 91.8325 12.44 92.9925 10.96C94.1725 9.46 95.9125 8.71 98.2125 8.71C99.1125 8.71 99.9625 8.86 100.763 9.16C101.583 9.46 102.133 9.82 102.413 10.24V9.16C102.413 8.72 102.633 8.5 103.073 8.5H107.153C107.593 8.5 107.813 8.72 107.813 9.16V24.43C107.813 24.61 107.743 24.77 107.603 24.91C107.483 25.03 107.333 25.09 107.153 25.09H103.073C102.893 25.09 102.733 25.03 102.593 24.91C102.473 24.77 102.413 24.62 102.413 24.46V23.59C102.093 24.01 101.563 24.39 100.823 24.73C100.103 25.07 99.3025 25.24 98.4225 25.24C97.0625 25.24 95.8325 24.92 94.7325 24.28C93.6525 23.64 92.8025 22.72 92.1825 21.52C91.5625 20.3 91.2525 18.86 91.2525 17.2ZM93.8625 12.64C93.8625 12.94 93.9225 13.25 94.0425 13.57C94.1625 13.89 94.2725 14.05 94.3725 14.05C94.4725 14.05 94.5825 13.89 94.7025 13.57C94.8225 13.25 94.8825 12.94 94.8825 12.64C94.8825 12.1 94.7125 11.83 94.3725 11.83C94.0325 11.83 93.8625 12.1 93.8625 12.64ZM96.4125 16.87C96.4125 17.89 96.6325 18.7 97.0725 19.3C97.5125 19.9 98.1525 20.2 98.9925 20.2C99.5525 20.2 100.093 20.06 100.613 19.78C101.153 19.5 101.583 19.11 101.903 18.61C102.243 18.09 102.413 17.51 102.413 16.87C102.413 16.23 102.243 15.66 101.903 15.16C101.583 14.64 101.153 14.24 100.613 13.96C100.093 13.68 99.5525 13.54 98.9925 13.54C98.1525 13.54 97.5125 13.84 97.0725 14.44C96.6325 15.04 96.4125 15.85 96.4125 16.87ZM103.823 10.57C103.823 10.87 103.883 11.18 104.003 11.5C104.123 11.82 104.233 11.98 104.333 11.98C104.433 11.98 104.543 11.82 104.663 11.5C104.783 11.18 104.843 10.87 104.843 10.57C104.843 10.03 104.673 9.76 104.333 9.76C103.993 9.76 103.823 10.03 103.823 10.57ZM122.718 14.08C122.618 14.18 122.518 14.23 122.418 14.23C122.318 14.23 122.208 14.19 122.088 14.11C121.588 13.75 120.948 13.57 120.168 13.57C119.808 13.57 119.528 13.59 119.328 13.63C118.528 13.75 117.808 14.16 117.168 14.86C116.528 15.54 116.208 16.29 116.208 17.11V24.46C116.208 24.62 116.138 24.77 115.998 24.91C115.878 25.03 115.728 25.09 115.548 25.09H111.468C111.288 25.09 111.128 25.03 110.988 24.91C110.868 24.77 110.808 24.61 110.808 24.43V9.16C110.808 8.72 111.028 8.5 111.468 8.5H115.548C115.988 8.5 116.208 8.72 116.208 9.16V10.84C116.628 10.34 117.248 9.88 118.068 9.46C118.888 9.02 119.668 8.77 120.408 8.71L120.948 8.68C122.648 8.68 124.058 9.32 125.178 10.6C125.238 10.66 125.268 10.74 125.268 10.84C125.268 10.92 125.228 11.02 125.148 11.14L122.718 14.08ZM112.218 10.57C112.218 10.87 112.278 11.18 112.398 11.5C112.518 11.82 112.628 11.98 112.728 11.98C112.828 11.98 112.938 11.82 113.058 11.5C113.178 11.18 113.238 10.87 113.238 10.57C113.238 10.03 113.068 9.76 112.728 9.76C112.388 9.76 112.218 10.03 112.218 10.57ZM127.487 11.95C127.587 11.95 127.697 11.79 127.817 11.47C127.937 11.15 127.997 10.84 127.997 10.54C127.997 10 127.827 9.73 127.487 9.73C127.147 9.73 126.977 10 126.977 10.54C126.977 10.84 127.037 11.15 127.157 11.47C127.277 11.79 127.387 11.95 127.487 11.95ZM125.567 9.16C125.567 8.72 125.787 8.5 126.227 8.5H129.467V5.11C129.467 4.67 129.687 4.45 130.127 4.45H134.207C134.647 4.45 134.867 4.67 134.867 5.11V8.5H138.407C138.587 8.5 138.737 8.57 138.857 8.71C138.997 8.83 139.067 8.98 139.067 9.16V12.64C139.067 12.84 138.997 13 138.857 13.12C138.737 13.24 138.587 13.3 138.407 13.3H134.867V18.46C134.867 19.16 135.037 19.64 135.377 19.9C135.737 20.14 136.437 20.26 137.477 20.26H138.587C138.987 20.26 139.187 20.46 139.187 20.86V24.49C139.187 24.89 138.987 25.09 138.587 25.09L135.827 25.12C133.767 25.14 132.187 24.65 131.087 23.65C130.007 22.63 129.467 21.16 129.467 19.24V13.3H126.227C125.787 13.3 125.567 13.08 125.567 12.64V9.16ZM130.877 6.49C130.877 6.79 130.937 7.1 131.057 7.42C131.177 7.74 131.287 7.9 131.387 7.9C131.487 7.9 131.597 7.74 131.717 7.42C131.837 7.1 131.897 6.79 131.897 6.49C131.897 5.95 131.727 5.68 131.387 5.68C131.047 5.68 130.877 5.95 130.877 6.49ZM140.639 10.87C140.579 10.77 140.549 10.67 140.549 10.57C140.549 10.31 140.669 10.14 140.909 10.06L144.629 8.29C144.689 8.25 144.789 8.23 144.929 8.23C145.189 8.23 145.359 8.34 145.439 8.56L149.879 17.71L153.719 8.74C153.779 8.58 153.899 8.46 154.079 8.38C154.259 8.3 154.429 8.29 154.589 8.35L158.159 9.7C158.339 9.76 158.469 9.87 158.549 10.03C158.629 10.19 158.629 10.35 158.549 10.51L151.589 26.14C150.089 29.48 147.609 31.15 144.149 31.15C143.529 31.15 142.949 31.11 142.409 31.03C142.049 30.97 141.869 30.76 141.869 30.4V27.25C141.869 26.85 142.079 26.66 142.499 26.68C144.519 26.76 145.929 25.9 146.729 24.1L147.119 23.23L140.639 10.87ZM142.829 11.17C142.829 11.47 142.889 11.78 143.009 12.1C143.129 12.42 143.239 12.58 143.339 12.58C143.439 12.58 143.549 12.42 143.669 12.1C143.789 11.78 143.849 11.47 143.849 11.17C143.849 10.63 143.679 10.36 143.339 10.36C142.999 10.36 142.829 10.63 142.829 11.17Z" fill="#0064FF"/>
<path d="M4.67137 24.1L4.9581 23.6904L4.67137 24.1ZM1.46136 19.93L0.998184 20.1183L0.998917 20.1201L1.46136 19.93ZM1.40137 7.03L0.935745 6.8478L0.934692 6.85051L1.40137 7.03ZM4.58136 2.8L4.86812 3.20963L4.87199 3.20687L4.58136 2.8ZM15.4414 2.86L15.1848 3.28918L15.187 3.29046L15.4414 2.86ZM19.6114 7.15L19.1752 7.39447L19.1784 7.40014L19.6114 7.15ZM19.3414 19.96L18.9145 19.6996L18.7111 20.0331L18.9854 20.3111L19.3414 19.96ZM21.5314 22.18L21.1754 22.5311L21.1778 22.5336L21.5314 22.18ZM21.5314 23.11L21.8849 23.4636V23.4636L21.5314 23.11ZM18.4414 26.2L18.0878 25.8464L18.4414 26.2ZM17.5114 26.2L17.8649 25.8464L17.5114 26.2ZM15.3214 24.01L15.6749 23.6564L15.3949 23.3764L15.0582 23.5849L15.3214 24.01ZM5.66136 5.71L5.19321 5.88556L5.66136 5.71ZM6.32137 5.71L6.78954 5.88556L6.32137 5.71ZM7.10136 18.43L7.52745 18.1684L7.10136 18.43ZM11.3014 19.99L11.4226 20.4751L12.2794 20.2609L11.6549 19.6364L11.3014 19.99ZM9.23137 17.92L8.83669 18.227L8.8558 18.2515L8.87781 18.2736L9.23137 17.92ZM9.23137 16.99L9.58493 17.3436L9.58662 17.3418L9.23137 16.99ZM12.3214 13.87L11.9678 13.5164L11.9661 13.5182L12.3214 13.87ZM13.2814 13.87L13.6377 13.5192L13.6349 13.5164L13.2814 13.87ZM15.1714 15.79L14.815 16.1408L15.3876 16.7224L15.6457 15.9481L15.1714 15.79ZM14.7814 10.21L15.2303 9.98992V9.98992L14.7814 10.21ZM12.8014 7.78L12.5013 8.18003L12.5061 8.18352L12.8014 7.78ZM9.68137 25.07C7.82956 25.07 6.26299 24.6038 4.9581 23.6904L4.38464 24.5096C5.87975 25.5562 7.65317 26.07 9.68137 26.07V25.07ZM4.9581 23.6904C3.64693 22.7726 2.63263 21.464 1.92381 19.7399L0.998917 20.1201C1.77011 21.996 2.8958 23.4674 4.38464 24.5096L4.9581 23.6904ZM1.92455 19.7417C1.21432 17.9949 0.851364 15.9117 0.851364 13.48H-0.148636C-0.148636 16.0083 0.228409 18.2251 0.998184 20.1183L1.92455 19.7417ZM0.851364 13.48C0.851364 11.0454 1.19516 8.959 1.86804 7.20949L0.934692 6.85051C0.207581 8.741 -0.148636 10.9546 -0.148636 13.48H0.851364ZM1.86699 7.2122C2.55684 5.44926 3.56088 4.12467 4.8681 3.20962L4.29463 2.39038C2.80186 3.43533 1.6859 4.93073 0.935745 6.8478L1.86699 7.2122ZM4.87199 3.20687C6.174 2.27687 7.7681 1.8 9.68137 1.8V0.799999C7.59464 0.799999 5.78874 1.32313 4.29074 2.39313L4.87199 3.20687ZM9.68137 1.8C11.6944 1.8 13.5253 2.29724 15.1848 3.28918L15.6979 2.43082C13.8775 1.34276 11.8683 0.799999 9.68137 0.799999V1.8ZM15.187 3.29046C16.8694 4.28462 18.1974 5.64975 19.1752 7.39445L20.0475 6.90555C18.9853 5.01025 17.5333 3.51537 15.6957 2.42953L15.187 3.29046ZM19.1784 7.40014C20.1711 9.11823 20.6714 11.0508 20.6714 13.21H21.6714C21.6714 10.8892 21.1316 8.78177 20.0443 6.89986L19.1784 7.40014ZM20.6714 13.21C20.6714 15.6246 20.0834 17.7834 18.9145 19.6996L19.7682 20.2204C21.0393 18.1367 21.6714 15.7954 21.6714 13.21H20.6714ZM18.9854 20.3111L21.1754 22.5311L21.8873 21.8289L19.6973 19.6089L18.9854 20.3111ZM21.1778 22.5336C21.2337 22.5895 21.2596 22.628 21.2702 22.6478C21.2798 22.6658 21.2714 22.6579 21.2714 22.63H22.2714C22.2714 22.2956 22.0833 22.0248 21.8849 21.8264L21.1778 22.5336ZM21.2714 22.63C21.2714 22.6106 21.2833 22.6509 21.1778 22.7564L21.8849 23.4636C22.0994 23.2491 22.2714 22.9694 22.2714 22.63H21.2714ZM21.1778 22.7564L18.0878 25.8464L18.7949 26.5536L21.8849 23.4636L21.1778 22.7564ZM18.0878 25.8464C17.9823 25.952 17.942 25.94 17.9614 25.94V26.94C18.3008 26.94 18.5804 26.7681 18.7949 26.5536L18.0878 25.8464ZM17.9614 25.94C17.9893 25.94 17.9971 25.9484 17.9792 25.9388C17.9594 25.9283 17.9208 25.9024 17.8649 25.8464L17.1578 26.5536C17.3562 26.752 17.6269 26.94 17.9614 26.94V25.94ZM17.8649 25.8464L15.6749 23.6564L14.9678 24.3636L17.1578 26.5536L17.8649 25.8464ZM15.0582 23.5849C13.4615 24.5733 11.6735 25.07 9.68137 25.07V26.07C11.8492 26.07 13.8212 25.5267 15.5845 24.4351L15.0582 23.5849ZM4.98137 4.78C4.98137 5.14769 5.05505 5.51715 5.19321 5.88556L6.12953 5.53444C6.02768 5.26285 5.98137 5.01231 5.98137 4.78H4.98137ZM5.19321 5.88556C5.25844 6.05951 5.33278 6.2237 5.42184 6.35326C5.48801 6.44949 5.67152 6.69 5.99136 6.69V5.69C6.10632 5.69 6.18451 5.73713 6.21751 5.76228C6.24825 5.7857 6.25612 5.80163 6.2459 5.78673C6.23732 5.77428 6.22174 5.74848 6.20039 5.70394C6.17947 5.66027 6.15575 5.60433 6.12953 5.53444L5.19321 5.88556ZM5.99136 6.69C6.31122 6.69 6.49474 6.44949 6.56088 6.35326C6.64996 6.2237 6.7243 6.05951 6.78954 5.88556L5.85321 5.53444C5.827 5.60433 5.80325 5.66027 5.78233 5.70394C5.76099 5.74848 5.74541 5.77428 5.73685 5.78674C5.72661 5.80163 5.73448 5.7857 5.76523 5.76228C5.79823 5.73713 5.87642 5.69 5.99136 5.69V6.69ZM6.78954 5.88556C6.92769 5.51715 7.00137 5.14769 7.00137 4.78H6.00137C6.00137 5.01231 5.95505 5.26285 5.8532 5.53444L6.78954 5.88556ZM7.00137 4.78C7.00137 4.47368 6.95607 4.15875 6.79698 3.90609C6.61345 3.61458 6.31961 3.47 5.99136 3.47V4.47C6.00935 4.47 6.00072 4.47319 5.98055 4.46252C5.959 4.45111 5.94981 4.43741 5.95074 4.43891C5.95381 4.44376 5.96765 4.46877 5.98015 4.52832C5.99255 4.58739 6.00137 4.6697 6.00137 4.78H7.00137ZM5.99136 3.47C5.66313 3.47 5.36929 3.61458 5.18575 3.90609C5.02667 4.15875 4.98137 4.47368 4.98137 4.78H5.98137C5.98137 4.6697 5.99019 4.58739 6.00258 4.52832C6.01508 4.46877 6.02893 4.44377 6.03198 4.43891C6.03293 4.43741 6.02374 4.45111 6.00218 4.46252C5.98203 4.47319 5.97337 4.47 5.99136 4.47V3.47ZM5.55136 13.51C5.55136 15.6921 5.9061 17.439 6.67528 18.6916L7.52745 18.1684C6.89664 17.141 6.55136 15.6079 6.55136 13.51H5.55136ZM6.67528 18.6916C7.47125 19.9879 8.68739 20.64 10.2514 20.64V19.64C9.01535 19.64 8.13148 19.1521 7.52745 18.1684L6.67528 18.6916ZM10.2514 20.64C10.6043 20.64 10.9966 20.5816 11.4226 20.4751L11.1801 19.5049C10.8061 19.5984 10.4985 19.64 10.2514 19.64V20.64ZM11.6549 19.6364L9.58492 17.5664L8.87781 18.2736L10.9478 20.3436L11.6549 19.6364ZM9.62604 17.613C9.57423 17.5464 9.54614 17.4971 9.53195 17.4646C9.51796 17.4326 9.52136 17.4262 9.52136 17.44H8.52136C8.52136 17.742 8.66805 18.0101 8.83669 18.227L9.62604 17.613ZM9.52136 17.44C9.52136 17.4356 9.52176 17.4301 9.52696 17.4189C9.53302 17.406 9.54826 17.3802 9.58492 17.3436L8.87781 16.6364C8.66765 16.8466 8.52136 17.1174 8.52136 17.44H9.52136ZM9.58662 17.3418L12.6766 14.2218L11.9661 13.5182L8.87611 16.6382L9.58662 17.3418ZM12.6749 14.2236C12.7314 14.167 12.7679 14.16 12.8014 14.16V13.16C12.4749 13.16 12.1913 13.293 11.9678 13.5164L12.6749 14.2236ZM12.8014 14.16C12.8349 14.16 12.8713 14.167 12.9278 14.2236L13.6349 13.5164C13.4115 13.293 13.1279 13.16 12.8014 13.16V14.16ZM12.925 14.2208L14.815 16.1408L15.5277 15.4392L13.6377 13.5192L12.925 14.2208ZM15.6457 15.9481C15.9032 15.1757 16.0314 14.3722 16.0314 13.54H15.0314C15.0314 14.2678 14.9196 14.9643 14.697 15.6319L15.6457 15.9481ZM16.0314 13.54C16.0314 12.2681 15.7658 11.0823 15.2303 9.98992L14.3324 10.4301C14.7969 11.3777 15.0314 12.4119 15.0314 13.54H16.0314ZM15.2303 9.98992C14.699 8.90594 13.9893 8.0297 13.0966 7.37648L12.5061 8.18352C13.2534 8.7303 13.8638 9.47406 14.3324 10.4301L15.2303 9.98992ZM13.1014 7.38C12.2249 6.72268 11.2716 6.38 10.2514 6.38V7.38C11.0312 7.38 11.7778 7.63732 12.5014 8.18L13.1014 7.38ZM10.2514 6.38C8.6945 6.38 7.47813 7.0084 6.67899 8.26993C5.90427 9.49289 5.55136 11.2633 5.55136 13.51H6.55136C6.55136 11.3367 6.89847 9.79211 7.52374 8.80507C8.12459 7.85659 9.00822 7.38 10.2514 7.38V6.38ZM35.7804 8.71L35.4269 8.35645L35.7804 8.71ZM40.7904 8.71L40.4108 9.03539L40.4358 9.0646L40.465 9.08963L40.7904 8.71ZM35.6004 23.35H36.1004V21.8852L35.2048 23.0443L35.6004 23.35ZM33.9204 24.46L34.0894 24.9307L34.0999 24.9267L33.9204 24.46ZM26.1804 22.63L25.7849 22.9359L26.1804 22.63ZM33.8004 19.63L33.5702 19.1861L33.5634 19.1898L33.8004 19.63ZM35.0904 18.46L34.6719 18.1864L34.6693 18.1905L35.0904 18.46ZM26.0304 11.5L26.4986 11.3244L26.0304 11.5ZM26.6904 11.5L26.2223 11.3244L26.6904 11.5ZM37.8504 11.5L37.3823 11.3244L37.8504 11.5ZM36.1004 9.13C36.1004 9.11128 36.1014 9.0961 36.134 9.06355L35.4269 8.35645C35.2194 8.5639 35.1004 8.82872 35.1004 9.13H36.1004ZM36.134 9.06355C36.1905 9.00702 36.2269 9 36.2604 9V8C35.9339 8 35.6503 8.13297 35.4269 8.35645L36.134 9.06355ZM36.2604 9H40.3404V8H36.2604V9ZM40.3404 9C40.3638 9 40.3733 9.00411 40.3765 9.00559C40.38 9.00722 40.3918 9.01326 40.4108 9.03539L41.1701 8.3846C40.9577 8.13689 40.6704 8 40.3404 8V9ZM40.465 9.08963C40.4872 9.1086 40.4932 9.12046 40.4948 9.12394C40.4963 9.12711 40.5004 9.13659 40.5004 9.16H41.5004C41.5004 8.82999 41.3635 8.5427 41.1158 8.33037L40.465 9.08963ZM40.5004 9.16V24.43H41.5004V9.16H40.5004ZM40.5004 24.43C40.5004 24.5729 40.465 24.5883 40.4819 24.5714C40.4987 24.5546 40.4834 24.59 40.3404 24.59V25.59C40.6375 25.59 40.9521 25.5154 41.189 25.2786C41.4258 25.0417 41.5004 24.7271 41.5004 24.43H40.5004ZM40.3404 24.59H36.2604V25.59H40.3404V24.59ZM36.2604 24.59C36.1175 24.59 36.1021 24.5546 36.119 24.5714C36.1358 24.5883 36.1004 24.5729 36.1004 24.43H35.1004C35.1004 24.7271 35.175 25.0417 35.4119 25.2786C35.6487 25.5154 35.9634 25.59 36.2604 25.59V24.59ZM36.1004 24.43V23.35H35.1004V24.43H36.1004ZM35.2048 23.0443C34.9421 23.3842 34.4754 23.7108 33.7409 23.9933L34.0999 24.9267C34.9254 24.6092 35.5787 24.1958 35.9961 23.6557L35.2048 23.0443ZM33.7515 23.9894C33.0302 24.2483 32.2478 24.38 31.4004 24.38V25.38C32.3531 25.38 33.2507 25.2317 34.0894 24.9306L33.7515 23.9894ZM31.4004 24.38C29.1968 24.38 27.62 23.6742 26.576 22.3241L25.7849 22.9359C27.0609 24.5858 28.9641 25.38 31.4004 25.38V24.38ZM26.576 22.3241C25.5076 20.9426 24.9404 18.956 24.9404 16.3H23.9404C23.9404 19.084 24.5333 21.3174 25.7849 22.9359L26.576 22.3241ZM24.9404 16.3V9.1H23.9404V16.3H24.9404ZM24.9404 9.1C24.9404 8.97707 24.9708 8.97671 24.944 9.00355C24.9171 9.03039 24.9175 9 25.0404 9V8C24.7634 8 24.4637 8.06961 24.2369 8.29645C24.01 8.52328 23.9404 8.82293 23.9404 9.1H24.9404ZM25.0404 9H29.2104V8H25.0404V9ZM29.2104 9C29.3334 9 29.3337 9.03039 29.3069 9.00355C29.28 8.97671 29.3104 8.97707 29.3104 9.1H30.3104C30.3104 8.82293 30.2408 8.52328 30.014 8.29645C29.7871 8.06961 29.4875 8 29.2104 8V9ZM29.3104 9.1V16.72H30.3104V9.1H29.3104ZM29.3104 16.72C29.3104 17.8742 29.5131 18.8295 29.9956 19.5074C30.5003 20.2167 31.2583 20.55 32.1804 20.55V19.55C31.5226 19.55 31.0955 19.3283 30.8103 18.9276C30.5028 18.4955 30.3104 17.7858 30.3104 16.72H29.3104ZM32.1804 20.55C32.8277 20.55 33.4487 20.3872 34.0375 20.0702L33.5634 19.1898C33.1121 19.4328 32.6531 19.55 32.1804 19.55V20.55ZM34.0306 20.0739C34.6464 19.7546 35.1431 19.3053 35.5116 18.7295L34.6693 18.1905C34.3978 18.6147 34.0344 18.9454 33.5703 19.1861L34.0306 20.0739ZM35.5089 18.7336C35.9038 18.1297 36.1004 17.4541 36.1004 16.72H35.1004C35.1004 17.2659 34.9571 17.7503 34.672 18.1864L35.5089 18.7336ZM36.1004 16.72V9.13H35.1004V16.72H36.1004ZM25.3504 10.57C25.3504 10.9377 25.4241 11.3072 25.5623 11.6756L26.4986 11.3244C26.3967 11.0528 26.3504 10.8023 26.3504 10.57H25.3504ZM25.5623 11.6756C25.6275 11.8495 25.7018 12.0137 25.7909 12.1433C25.8571 12.2395 26.0406 12.48 26.3604 12.48V11.48C26.4754 11.48 26.5536 11.5271 26.5866 11.5523C26.6173 11.5757 26.6252 11.5916 26.6149 11.5767C26.6064 11.5643 26.5908 11.5385 26.5695 11.4939C26.5485 11.4503 26.5248 11.3943 26.4986 11.3244L25.5623 11.6756ZM26.3604 12.48C26.6803 12.48 26.8638 12.2395 26.9299 12.1433C27.019 12.0137 27.0934 11.8495 27.1586 11.6756L26.2223 11.3244C26.1961 11.3943 26.1723 11.4503 26.1514 11.4939C26.1301 11.5385 26.1145 11.5643 26.1059 11.5767C26.0957 11.5916 26.1035 11.5757 26.1343 11.5523C26.1673 11.5271 26.2455 11.48 26.3604 11.48V12.48ZM27.1586 11.6756C27.2968 11.3072 27.3704 10.9377 27.3704 10.57H26.3704C26.3704 10.8023 26.3241 11.0528 26.2223 11.3244L27.1586 11.6756ZM27.3704 10.57C27.3704 10.2637 27.3251 9.94875 27.166 9.69609C26.9825 9.40458 26.6887 9.26 26.3604 9.26V10.26C26.3784 10.26 26.3698 10.2632 26.3496 10.2525C26.3281 10.2411 26.3189 10.2274 26.3198 10.2289C26.3229 10.2338 26.3367 10.2588 26.3492 10.3183C26.3616 10.3774 26.3704 10.4597 26.3704 10.57H27.3704ZM26.3604 9.26C26.0322 9.26 25.7384 9.40458 25.5548 9.69609C25.3957 9.94875 25.3504 10.2637 25.3504 10.57H26.3504C26.3504 10.4597 26.3593 10.3774 26.3716 10.3183C26.3841 10.2588 26.398 10.2338 26.401 10.2289C26.402 10.2274 26.3928 10.2411 26.3712 10.2525C26.3511 10.2632 26.3424 10.26 26.3604 10.26V9.26ZM36.5104 10.57C36.5104 10.9377 36.5841 11.3072 36.7223 11.6756L37.6586 11.3244C37.5567 11.0528 37.5104 10.8023 37.5104 10.57H36.5104ZM36.7223 11.6756C36.7875 11.8495 36.8618 12.0137 36.9509 12.1433C37.0171 12.2395 37.2006 12.48 37.5204 12.48V11.48C37.6354 11.48 37.7136 11.5271 37.7466 11.5523C37.7773 11.5757 37.7852 11.5916 37.7749 11.5767C37.7664 11.5643 37.7508 11.5385 37.7295 11.4939C37.7085 11.4503 37.6848 11.3943 37.6586 11.3244L36.7223 11.6756ZM37.5204 12.48C37.8403 12.48 38.0238 12.2395 38.09 12.1433C38.179 12.0137 38.2534 11.8495 38.3186 11.6756L37.3823 11.3244C37.356 11.3943 37.3323 11.4503 37.3114 11.4939C37.2901 11.5385 37.2745 11.5643 37.2659 11.5767C37.2557 11.5916 37.2635 11.5757 37.2943 11.5523C37.3273 11.5271 37.4055 11.48 37.5204 11.48V12.48ZM38.3186 11.6756C38.4567 11.3072 38.5304 10.9377 38.5304 10.57H37.5304C37.5304 10.8023 37.4841 11.0528 37.3823 11.3244L38.3186 11.6756ZM38.5304 10.57C38.5304 10.2637 38.4851 9.94875 38.326 9.69609C38.1425 9.40458 37.8487 9.26 37.5204 9.26V10.26C37.5384 10.26 37.5298 10.2632 37.5096 10.2525C37.4881 10.2411 37.4789 10.2274 37.4798 10.2289C37.4829 10.2338 37.4967 10.2588 37.5092 10.3183C37.5216 10.3774 37.5304 10.4597 37.5304 10.57H38.5304ZM37.5204 9.26C37.1922 9.26 36.8984 9.40458 36.7148 9.69609C36.5557 9.94875 36.5104 10.2637 36.5104 10.57H37.5104C37.5104 10.4597 37.5192 10.3774 37.5316 10.3183C37.5441 10.2588 37.558 10.2338 37.5611 10.2289C37.562 10.2274 37.5528 10.2411 37.5312 10.2525C37.5111 10.2632 37.5024 10.26 37.5204 10.26V9.26ZM44.7007 24.91L44.3211 25.2354L44.3461 25.2646L44.3754 25.2896L44.7007 24.91ZM49.7107 24.91L49.3572 24.5564L49.7107 24.91ZM44.7307 1.66L44.357 1.32782L44.7307 1.66ZM48.3907 1.24L48.1802 1.69354L48.1862 1.69625L48.3907 1.24ZM49.8307 2.29L50.2092 1.96319L49.8307 2.29ZM49.8307 5.11L50.2016 5.44555L50.2092 5.43681L49.8307 5.11ZM48.3907 6.13L48.1862 5.67371L48.1802 5.67649L48.3907 6.13ZM44.7307 5.74L44.357 6.07224L44.3633 6.07914L44.7307 5.74ZM46.1107 3.88L46.5659 3.6731L46.5659 3.6731L46.1107 3.88ZM46.7707 3.88L46.3156 3.6731L46.7707 3.88ZM46.7707 2.77L46.3547 3.04735L46.3822 3.08854L46.4172 3.12355L46.7707 2.77ZM46.0807 2.77L45.6965 2.44984L45.6903 2.45765L46.0807 2.77ZM45.1807 24.59C45.1232 24.59 45.0779 24.5748 45.0261 24.5304L44.3754 25.2896C44.6035 25.4852 44.8782 25.59 45.1807 25.59V24.59ZM45.0804 24.5846C45.036 24.5328 45.0207 24.4875 45.0207 24.43H44.0207C44.0207 24.7325 44.1255 25.0072 44.3211 25.2354L45.0804 24.5846ZM45.0207 24.43V9.16H44.0207V24.43H45.0207ZM45.0207 9.16C45.0207 9.01707 45.0561 9.00171 45.0393 9.01855C45.0225 9.03539 45.0378 9 45.1807 9V8C44.8837 8 44.569 8.07461 44.3322 8.31145C44.0954 8.54829 44.0207 8.86293 44.0207 9.16H45.0207ZM45.1807 9H49.2607V8H45.1807V9ZM49.2607 9C49.4037 9 49.419 9.03539 49.4022 9.01855C49.3853 9.00171 49.4207 9.01707 49.4207 9.16H50.4207C50.4207 8.86293 50.3461 8.54829 50.1093 8.31145C49.8725 8.07461 49.5578 8 49.2607 8V9ZM49.4207 9.16V24.43H50.4207V9.16H49.4207ZM49.4207 24.43C49.4207 24.4635 49.4137 24.4999 49.3572 24.5564L50.0643 25.2636C50.2878 25.0401 50.4207 24.7565 50.4207 24.43H49.4207ZM49.3572 24.5564C49.3371 24.5765 49.3171 24.59 49.2607 24.59V25.59C49.5644 25.59 49.8444 25.4835 50.0643 25.2636L49.3572 24.5564ZM49.2607 24.59H45.1807V25.59H49.2607V24.59ZM44.5107 3.7C44.5107 2.98478 44.7168 2.42825 45.1044 1.99218L44.357 1.32782C43.7847 1.97175 43.5107 2.77522 43.5107 3.7H44.5107ZM45.1044 1.99218C45.4715 1.5793 45.9938 1.35 46.7407 1.35V0.349998C45.7677 0.349998 44.95 0.6607 44.357 1.32782L45.1044 1.99218ZM46.7407 1.35C47.1983 1.35 47.6767 1.45974 48.1802 1.6935L48.6013 0.786494C47.9848 0.500254 47.3632 0.349998 46.7407 0.349998V1.35ZM48.1862 1.69625C48.7058 1.92917 49.1245 2.23715 49.4523 2.61681L50.2092 1.96319C49.777 1.46284 49.2357 1.07083 48.5953 0.783744L48.1862 1.69625ZM49.4523 2.61681C49.7674 2.98163 49.9007 3.33916 49.9007 3.7H50.9007C50.9007 3.06084 50.6541 2.47837 50.2092 1.96319L49.4523 2.61681ZM49.9007 3.7C49.9007 4.06084 49.7674 4.41837 49.4523 4.78319L50.2092 5.43681C50.6541 4.92163 50.9007 4.33916 50.9007 3.7H49.9007ZM49.46 4.77454C49.1318 5.13727 48.7108 5.4386 48.1862 5.67375L48.5953 6.58625C49.2307 6.3014 49.7697 5.92273 50.2015 5.44546L49.46 4.77454ZM48.1802 5.67649C47.6767 5.91025 47.1983 6.02 46.7407 6.02V7.02C47.3632 7.02 47.9848 6.86974 48.6013 6.5835L48.1802 5.67649ZM46.7407 6.02C45.9879 6.02 45.4635 5.79669 45.0981 5.40086L44.3633 6.07914C44.958 6.72331 45.7736 7.02 46.7407 7.02V6.02ZM45.1044 5.40782C44.7168 4.97175 44.5107 4.41522 44.5107 3.7H43.5107C43.5107 4.62478 43.7847 5.42825 44.357 6.07218L45.1044 5.40782ZM45.4307 10.57C45.4307 10.9377 45.5044 11.3072 45.6426 11.6756L46.5789 11.3244C46.4771 11.0528 46.4307 10.8023 46.4307 10.57H45.4307ZM45.6426 11.6756C45.7078 11.8495 45.7822 12.0137 45.8712 12.1433C45.9374 12.2395 46.1209 12.48 46.4408 12.48V11.48C46.5557 11.48 46.6339 11.5271 46.6669 11.5523C46.6976 11.5757 46.7055 11.5916 46.6953 11.5767C46.6867 11.5643 46.6711 11.5385 46.6498 11.4939C46.6288 11.4503 46.6051 11.3943 46.5789 11.3244L45.6426 11.6756ZM46.4408 12.48C46.7606 12.48 46.9441 12.2395 47.0103 12.1433C47.0993 12.0137 47.1737 11.8495 47.2389 11.6756L46.3026 11.3244C46.2764 11.3943 46.2526 11.4503 46.2317 11.4939C46.2104 11.5385 46.1948 11.5643 46.1862 11.5767C46.176 11.5916 46.1839 11.5757 46.2146 11.5523C46.2476 11.5271 46.3258 11.48 46.4408 11.48V12.48ZM47.2389 11.6756C47.3771 11.3072 47.4507 10.9377 47.4507 10.57H46.4507C46.4507 10.8023 46.4044 11.0528 46.3026 11.3244L47.2389 11.6756ZM47.4507 10.57C47.4507 10.2637 47.4054 9.94875 47.2464 9.69609C47.0628 9.40458 46.769 9.26 46.4408 9.26V10.26C46.4587 10.26 46.4501 10.2632 46.4299 10.2525C46.4084 10.2411 46.3992 10.2274 46.4001 10.2289C46.4032 10.2338 46.417 10.2588 46.4295 10.3183C46.4419 10.3774 46.4507 10.4597 46.4507 10.57H47.4507ZM46.4408 9.26C46.1125 9.26 45.8187 9.40458 45.6351 9.69609C45.476 9.94875 45.4307 10.2637 45.4307 10.57H46.4307C46.4307 10.4597 46.4396 10.3774 46.452 10.3183C46.4645 10.2588 46.4783 10.2338 46.4814 10.2289C46.4823 10.2274 46.4731 10.2411 46.4516 10.2525C46.4314 10.2632 46.4228 10.26 46.4408 10.26V9.26ZM45.4607 3.22C45.4607 3.51814 45.529 3.80838 45.6556 4.0869L46.5659 3.6731C46.4925 3.51162 46.4607 3.36185 46.4607 3.22H45.4607ZM45.6556 4.0869C45.7182 4.22463 45.8005 4.36688 45.9147 4.48105C46.0345 4.60083 46.2121 4.71 46.4408 4.71V3.71C46.49 3.71 46.534 3.7219 46.5683 3.73831C46.6006 3.75373 46.6178 3.7699 46.6218 3.77395C46.6257 3.77784 46.6209 3.77389 46.6095 3.75594C46.5983 3.73834 46.5834 3.71157 46.5659 3.6731L45.6556 4.0869ZM46.4408 4.71C46.6694 4.71 46.847 4.60083 46.9668 4.48105C47.081 4.36688 47.1633 4.22463 47.2259 4.0869L46.3156 3.6731C46.2981 3.71157 46.2832 3.73834 46.272 3.75594C46.2606 3.77389 46.2558 3.77784 46.2597 3.77395C46.2637 3.7699 46.2809 3.75373 46.3131 3.73831C46.3475 3.7219 46.3915 3.71 46.4408 3.71V4.71ZM47.2259 4.0869C47.3525 3.80838 47.4207 3.51814 47.4207 3.22H46.4207C46.4207 3.36185 46.389 3.51162 46.3156 3.6731L47.2259 4.0869ZM47.4207 3.22C47.4207 2.94293 47.3511 2.64329 47.1243 2.41644L46.4172 3.12355C46.4061 3.11247 46.4055 3.10546 46.4089 3.11561C46.4131 3.12818 46.4207 3.16017 46.4207 3.22H47.4207ZM47.1868 2.49265C47.0174 2.23859 46.7539 2.09 46.4408 2.09V3.09C46.4371 3.09 46.4156 3.08853 46.3888 3.07395C46.3627 3.05968 46.3528 3.04449 46.3547 3.04735L47.1868 2.49265ZM46.4408 2.09C46.134 2.09 45.8792 2.23079 45.6966 2.44991L46.4649 3.09009C46.4715 3.08211 46.4755 3.07876 46.4761 3.07823C46.4766 3.07781 46.4744 3.07969 46.4693 3.08221C46.4642 3.08479 46.4581 3.08701 46.4519 3.08844C46.4458 3.08986 46.4417 3.09 46.4408 3.09V2.09ZM45.6903 2.45765C45.5092 2.68398 45.4607 2.96658 45.4607 3.22H46.4607C46.4607 3.1517 46.4677 3.10925 46.4739 3.08633C46.4797 3.06436 46.4826 3.06805 46.4712 3.08235L45.6903 2.45765ZM55.905 11.47L55.4369 11.2944L55.905 11.47ZM55.245 11.47L55.7132 11.2944L55.245 11.47ZM53.895 20.56L54.2487 20.9136L54.2552 20.9068L53.895 20.56ZM60.885 13.3L61.2452 13.6468L62.0605 12.8H60.885V13.3ZM67.605 8.71L67.2254 9.03539L67.2504 9.0646L67.2796 9.08963L67.605 8.71ZM67.395 13.21L67.0414 12.8563L67.0332 12.865L67.395 13.21ZM60.645 20.29L60.2832 19.945L59.4775 20.79H60.645V20.29ZM68.205 20.5L67.8254 20.8254L67.8504 20.8546L67.8796 20.8796L68.205 20.5ZM68.205 24.91L67.8796 24.5304L67.8651 24.5429L67.8515 24.5564L68.205 24.91ZM55.575 12.45C55.8949 12.45 56.0784 12.2095 56.1446 12.1133C56.2336 11.9837 56.308 11.8195 56.3732 11.6456L55.4369 11.2944C55.4107 11.3643 55.3869 11.4203 55.366 11.4639C55.3447 11.5085 55.3291 11.5343 55.3205 11.5467C55.3103 11.5616 55.3182 11.5457 55.3489 11.5223C55.3819 11.4971 55.4601 11.45 55.575 11.45V12.45ZM56.3732 11.6456C56.5114 11.2772 56.585 10.9077 56.585 10.54H55.585C55.585 10.7723 55.5387 11.0228 55.4369 11.2944L56.3732 11.6456ZM56.585 10.54C56.585 10.2337 56.5397 9.91875 56.3807 9.66609C56.1971 9.37458 55.9033 9.23 55.575 9.23V10.23C55.593 10.23 55.5844 10.2332 55.5642 10.2225C55.5427 10.2111 55.5335 10.1974 55.5344 10.1989C55.5375 10.2038 55.5513 10.2288 55.5638 10.2883C55.5762 10.3474 55.585 10.4297 55.585 10.54H56.585ZM55.575 9.23C55.2468 9.23 54.953 9.37458 54.7694 9.66609C54.6103 9.91875 54.565 10.2337 54.565 10.54H55.565C55.565 10.4297 55.5739 10.3474 55.5863 10.2883C55.5988 10.2288 55.6126 10.2038 55.6157 10.1989C55.6166 10.1974 55.6074 10.2111 55.5859 10.2225C55.5657 10.2332 55.5571 10.23 55.575 10.23V9.23ZM54.565 10.54C54.565 10.9077 54.6387 11.2772 54.7769 11.6456L55.7132 11.2944C55.6114 11.0228 55.565 10.7723 55.565 10.54H54.565ZM54.7769 11.6456C54.8421 11.8195 54.9164 11.9837 55.0055 12.1133C55.0717 12.2095 55.2552 12.45 55.575 12.45V11.45C55.69 11.45 55.7682 11.4971 55.8012 11.5223C55.8319 11.5457 55.8398 11.5616 55.8296 11.5467C55.821 11.5343 55.8054 11.5085 55.7841 11.4639C55.7632 11.4203 55.7394 11.3643 55.7132 11.2944L54.7769 11.6456ZM53.915 21.55C53.915 21.382 53.9903 21.1719 54.2486 20.9136L53.5415 20.2064C53.1598 20.5881 52.915 21.038 52.915 21.55H53.915ZM54.2552 20.9068L61.2452 13.6468L60.5249 12.9532L53.5349 20.2132L54.2552 20.9068ZM60.885 12.8H54.315V13.8H60.885V12.8ZM54.315 12.8C54.1721 12.8 54.1568 12.7646 54.1736 12.7814C54.1904 12.7983 54.155 12.7829 54.155 12.64H53.155C53.155 12.9371 53.2296 13.2517 53.4665 13.4886C53.7033 13.7254 54.018 13.8 54.315 13.8V12.8ZM54.155 12.64V9.16H53.155V12.64H54.155ZM54.155 9.16C54.155 9.01707 54.1904 9.00171 54.1736 9.01855C54.1568 9.03539 54.1721 9 54.315 9V8C54.018 8 53.7033 8.07461 53.4665 8.31145C53.2296 8.54829 53.155 8.86293 53.155 9.16H54.155ZM54.315 9H67.155V8H54.315V9ZM67.155 9C67.1785 9 67.1879 9.00411 67.1911 9.00559C67.1946 9.00722 67.2064 9.01326 67.2254 9.03539L67.9847 8.3846C67.7723 8.13689 67.485 8 67.155 8V9ZM67.2796 9.08963C67.3018 9.1086 67.3078 9.12046 67.3094 9.12394C67.3109 9.12711 67.315 9.13659 67.315 9.16H68.315C68.315 8.82999 68.1781 8.5427 67.9304 8.33037L67.2796 9.08963ZM67.315 9.16V12.31H68.315V9.16H67.315ZM67.315 12.31C67.315 12.4674 67.2513 12.6466 67.0415 12.8564L67.7486 13.5636C68.0988 13.2134 68.315 12.7926 68.315 12.31H67.315ZM67.0332 12.865L60.2832 19.945L61.0069 20.635L67.7569 13.555L67.0332 12.865ZM60.645 20.79H67.755V19.79H60.645V20.79ZM67.755 20.79C67.7785 20.79 67.7879 20.7941 67.7911 20.7956C67.7946 20.7972 67.8064 20.8033 67.8254 20.8254L68.5847 20.1746C68.3723 19.9269 68.085 19.79 67.755 19.79V20.79ZM67.8796 20.8796C67.9018 20.8986 67.9078 20.9105 67.9095 20.9139C67.9109 20.9171 67.915 20.9266 67.915 20.95H68.915C68.915 20.62 68.7782 20.3327 68.5304 20.1204L67.8796 20.8796ZM67.915 20.95V24.43H68.915V20.95H67.915ZM67.915 24.43C67.915 24.498 67.8986 24.5141 67.8796 24.5304L68.5304 25.2896C68.7915 25.0659 68.915 24.762 68.915 24.43H67.915ZM67.8515 24.5564C67.8314 24.5765 67.8114 24.59 67.755 24.59V25.59C68.0587 25.59 68.3387 25.4835 68.5586 25.2636L67.8515 24.5564ZM67.755 24.59H54.075V25.59H67.755V24.59ZM54.075 24.59C53.9321 24.59 53.9167 24.5546 53.9336 24.5714C53.9504 24.5883 53.915 24.5729 53.915 24.43H52.915C52.915 24.7271 52.9896 25.0417 53.2265 25.2786C53.4633 25.5154 53.778 25.59 54.075 25.59V24.59ZM53.915 24.43V21.55H52.915V24.43H53.915ZM71.8833 24.91L71.5037 25.2354L71.5287 25.2646L71.5579 25.2896L71.8833 24.91ZM86.5833 3.82L86.2895 4.22456L86.2915 4.22601L86.5833 3.82ZM86.4333 15.85L86.1404 15.4448L86.1385 15.4462L86.4333 15.85ZM77.4033 18.16L77.3934 17.6601L76.9033 17.6699V18.16H77.4033ZM77.1933 24.91L77.5469 25.2636L77.1933 24.91ZM73.2933 4.75L72.8251 4.92556L73.2933 4.75ZM73.9533 4.75L74.4215 4.92556L73.9533 4.75ZM77.4033 13H76.9033V13.3904L77.2821 13.4851L77.4033 13ZM82.2333 12.22L81.9761 11.7913L82.2333 12.22ZM82.2633 7.81L82.009 8.24046L82.2633 7.81ZM77.4033 7.03V6.53H76.9033V7.03H77.4033ZM72.3633 24.59C72.3058 24.59 72.2605 24.5748 72.2087 24.5304L71.5579 25.2896C71.7861 25.4852 72.0608 25.59 72.3633 25.59V24.59ZM72.263 24.5846C72.2186 24.5328 72.2033 24.4875 72.2033 24.43H71.2033C71.2033 24.7325 71.3081 25.0072 71.5037 25.2354L72.263 24.5846ZM72.2033 24.43V2.41H71.2033V24.43H72.2033ZM72.2033 2.41C72.2033 2.26707 72.2387 2.25171 72.2219 2.26855C72.205 2.28539 72.2204 2.25 72.3633 2.25V1.25C72.0663 1.25 71.7516 1.32461 71.5148 1.56145C71.2779 1.79829 71.2033 2.11293 71.2033 2.41H72.2033ZM72.3633 2.25H77.5533V1.25H72.3633V2.25ZM77.5533 2.25C81.6384 2.25 84.5183 2.9381 86.2895 4.22455L86.8772 3.41545C84.8483 1.94189 81.7083 1.25 77.5533 1.25V2.25ZM86.2915 4.22601C88.063 5.49928 88.9633 7.35771 88.9633 9.88H89.9633C89.9633 7.08229 88.9436 4.90072 86.8751 3.41399L86.2915 4.22601ZM88.9633 9.88C88.9633 12.2416 88.0287 14.08 86.1404 15.4448L86.7262 16.2552C88.878 14.7 89.9633 12.5584 89.9633 9.88H88.9633ZM86.1385 15.4462C84.2585 16.8185 81.3692 17.581 77.3934 17.6601L77.4133 18.6599C81.4774 18.579 84.6081 17.8015 86.7281 16.2538L86.1385 15.4462ZM76.9033 18.16V24.43H77.9033V18.16H76.9033ZM76.9033 24.43C76.9033 24.4635 76.8963 24.4999 76.8398 24.5564L77.5469 25.2636C77.7703 25.0401 77.9033 24.7565 77.9033 24.43H76.9033ZM76.8398 24.5564C76.8197 24.5765 76.7996 24.59 76.7433 24.59V25.59C77.047 25.59 77.327 25.4835 77.5469 25.2636L76.8398 24.5564ZM76.7433 24.59H72.3633V25.59H76.7433V24.59ZM72.6133 3.82C72.6133 4.18769 72.687 4.55715 72.8251 4.92556L73.7615 4.57444C73.6596 4.30285 73.6133 4.05231 73.6133 3.82H72.6133ZM72.8251 4.92556C72.8904 5.09951 72.9647 5.2637 73.0538 5.39326C73.1199 5.48949 73.3035 5.73 73.6233 5.73V4.73C73.7383 4.73 73.8165 4.77713 73.8495 4.80228C73.8802 4.8257 73.8881 4.84163 73.8778 4.82673C73.8693 4.81428 73.8537 4.78848 73.8324 4.74394C73.8114 4.70027 73.7877 4.64433 73.7615 4.57444L72.8251 4.92556ZM73.6233 5.73C73.9432 5.73 74.1267 5.48949 74.1928 5.39326C74.2819 5.2637 74.3562 5.09951 74.4215 4.92556L73.4852 4.57444C73.459 4.64433 73.4352 4.70027 73.4143 4.74394C73.3929 4.78848 73.3774 4.81428 73.3688 4.82673C73.3586 4.84163 73.3664 4.8257 73.3972 4.80228C73.4302 4.77713 73.5084 4.73 73.6233 4.73V5.73ZM74.4215 4.92556C74.5596 4.55715 74.6333 4.18769 74.6333 3.82H73.6333C73.6333 4.05231 73.587 4.30285 73.4852 4.57444L74.4215 4.92556ZM74.6333 3.82C74.6333 3.51368 74.588 3.19875 74.4289 2.94609C74.2454 2.65458 73.9516 2.51 73.6233 2.51V3.51C73.6413 3.51 73.6327 3.51319 73.6125 3.50252C73.5909 3.49111 73.5818 3.47741 73.5827 3.4789C73.5858 3.48376 73.5996 3.50877 73.6121 3.56833C73.6245 3.62739 73.6333 3.7097 73.6333 3.82H74.6333ZM73.6233 2.51C73.2951 2.51 73.0013 2.65458 72.8177 2.94609C72.6586 3.19875 72.6133 3.51368 72.6133 3.82H73.6133C73.6133 3.7097 73.6221 3.62739 73.6345 3.56833C73.647 3.50877 73.6609 3.48376 73.6639 3.4789C73.6649 3.47741 73.6557 3.49111 73.6341 3.50252C73.614 3.51319 73.6053 3.51 73.6233 3.51V2.51ZM77.2821 13.4851C77.4198 13.5195 77.5766 13.53 77.7333 13.53V12.53C77.6101 12.53 77.5469 12.5205 77.5246 12.5149L77.2821 13.4851ZM77.7333 13.53C79.8497 13.53 81.4674 13.2627 82.4906 12.6487L81.9761 11.7913C81.1993 12.2573 79.8169 12.53 77.7333 12.53V13.53ZM82.4906 12.6487C83.5071 12.0388 84.0833 11.182 84.0833 10.09H83.0833C83.0833 10.758 82.7596 11.3212 81.9761 11.7913L82.4906 12.6487ZM84.0833 10.09C84.0833 8.9084 83.5458 7.98704 82.5177 7.37954L82.009 8.24046C82.7409 8.67296 83.0833 9.2716 83.0833 10.09H84.0833ZM82.5177 7.37954C81.5135 6.78616 79.8846 6.53 77.7333 6.53V7.53C79.862 7.53 81.2531 7.79384 82.009 8.24046L82.5177 7.37954ZM77.7333 6.53H77.4033V7.53H77.7333V6.53ZM76.9033 7.03V13H77.9033V7.03H76.9033ZM92.9925 10.96L92.5996 10.6509L92.599 10.6516L92.9925 10.96ZM100.763 9.16L100.587 9.62818L100.591 9.62956L100.763 9.16ZM102.413 10.24L101.997 10.5173L102.913 11.8914V10.24H102.413ZM107.603 24.91L107.956 25.2636H107.956L107.603 24.91ZM102.593 24.91L102.213 25.2354L102.238 25.2646L102.267 25.2896L102.593 24.91ZM102.413 23.59H102.913V22.1087L102.015 23.287L102.413 23.59ZM100.823 24.73L100.614 24.2756L100.609 24.2779L100.823 24.73ZM94.7325 24.28L94.4776 24.7102L94.4811 24.7122L94.7325 24.28ZM92.1825 21.52L91.7368 21.7465L91.7383 21.7495L92.1825 21.52ZM94.0425 13.57L93.5744 13.7456L94.0425 13.57ZM100.613 19.78L100.382 19.3361L100.375 19.3398L100.613 19.78ZM101.903 18.61L101.484 18.3364L101.481 18.3405L101.903 18.61ZM101.903 15.16L101.477 15.422L101.483 15.4317L101.489 15.4412L101.903 15.16ZM100.613 13.96L100.375 14.4003L100.382 14.4039L100.613 13.96ZM104.003 11.5L103.534 11.6756V11.6756L104.003 11.5ZM104.663 11.5L105.131 11.6756V11.6756L104.663 11.5ZM91.7525 17.2C91.7525 14.5855 92.319 12.6298 93.3861 11.2684L92.599 10.6516C91.346 12.2502 90.7525 14.4545 90.7525 17.2H91.7525ZM93.3855 11.2691C94.451 9.91472 96.0309 9.21 98.2125 9.21V8.21C95.7942 8.21 93.8941 9.00528 92.5996 10.6509L93.3855 11.2691ZM98.2125 9.21C99.0558 9.21 99.8461 9.35032 100.587 9.62816L100.938 8.69184C100.079 8.36968 99.1693 8.21 98.2125 8.21V9.21ZM100.591 9.62956C101.376 9.91685 101.805 10.2298 101.997 10.5173L102.829 9.96265C102.46 9.41022 101.789 9.00315 100.934 8.69044L100.591 9.62956ZM102.913 10.24V9.16H101.913V10.24H102.913ZM102.913 9.16C102.913 9.01707 102.948 9.00171 102.931 9.01855C102.914 9.03539 102.93 9 103.073 9V8C102.775 8 102.461 8.07461 102.224 8.31145C101.987 8.54829 101.913 8.86293 101.913 9.16H102.913ZM103.073 9H107.153V8H103.073V9ZM107.153 9C107.295 9 107.311 9.03539 107.294 9.01855C107.277 9.00171 107.313 9.01707 107.313 9.16H108.313C108.313 8.86293 108.238 8.54829 108.001 8.31145C107.764 8.07461 107.45 8 107.153 8V9ZM107.313 9.16V24.43H108.313V9.16H107.313ZM107.313 24.43C107.313 24.4635 107.306 24.4999 107.249 24.5564L107.956 25.2636C108.18 25.0401 108.313 24.7565 108.313 24.43H107.313ZM107.249 24.5564C107.229 24.5765 107.209 24.59 107.153 24.59V25.59C107.456 25.59 107.736 25.4835 107.956 25.2636L107.249 24.5564ZM107.153 24.59H103.073V25.59H107.153V24.59ZM103.073 24.59C103.015 24.59 102.97 24.5748 102.918 24.5304L102.267 25.2896C102.495 25.4852 102.77 25.59 103.073 25.59V24.59ZM102.972 24.5846C102.917 24.5206 102.913 24.4827 102.913 24.46H101.913C101.913 24.7573 102.028 25.0194 102.213 25.2354L102.972 24.5846ZM102.913 24.46V23.59H101.913V24.46H102.913ZM102.015 23.287C101.764 23.6159 101.316 23.953 100.614 24.2757L101.031 25.1843C101.809 24.827 102.421 24.4041 102.81 23.893L102.015 23.287ZM100.609 24.2779C99.9625 24.5832 99.2366 24.74 98.4225 24.74V25.74C99.3685 25.74 100.243 25.5568 101.036 25.1821L100.609 24.2779ZM98.4225 24.74C97.1446 24.74 96.0024 24.4403 94.984 23.8478L94.4811 24.7122C95.6627 25.3997 96.9805 25.74 98.4225 25.74V24.74ZM94.9874 23.8499C93.9943 23.2613 93.2071 22.4138 92.6268 21.2905L91.7383 21.7495C92.398 23.0262 93.3108 24.0187 94.4776 24.7101L94.9874 23.8499ZM92.6283 21.2935C92.0508 20.1571 91.7525 18.7978 91.7525 17.2H90.7525C90.7525 18.9222 91.0743 20.4429 91.7368 21.7465L92.6283 21.2935ZM93.3625 12.64C93.3625 13.0077 93.4362 13.3772 93.5744 13.7456L94.5107 13.3944C94.4089 13.1228 94.3625 12.8723 94.3625 12.64H93.3625ZM93.5744 13.7456C93.6396 13.9195 93.7139 14.0837 93.803 14.2133C93.8692 14.3095 94.0527 14.55 94.3725 14.55V13.55C94.4875 13.55 94.5657 13.5971 94.5987 13.6223C94.6294 13.6457 94.6373 13.6616 94.6271 13.6467C94.6185 13.6343 94.6029 13.6085 94.5816 13.5639C94.5607 13.5203 94.5369 13.4643 94.5107 13.3944L93.5744 13.7456ZM94.3725 14.55C94.6924 14.55 94.8759 14.3095 94.9421 14.2133C95.0311 14.0837 95.1055 13.9195 95.1707 13.7456L94.2344 13.3944C94.2082 13.4643 94.1844 13.5203 94.1635 13.5639C94.1422 13.6085 94.1266 13.6343 94.118 13.6467C94.1078 13.6616 94.1157 13.6457 94.1464 13.6223C94.1794 13.5971 94.2576 13.55 94.3725 13.55V14.55ZM95.1707 13.7456C95.3089 13.3772 95.3825 13.0077 95.3825 12.64H94.3825C94.3825 12.8723 94.3362 13.1228 94.2344 13.3944L95.1707 13.7456ZM95.3825 12.64C95.3825 12.3337 95.3372 12.0188 95.1782 11.7661C94.9946 11.4746 94.7008 11.33 94.3725 11.33V12.33C94.3905 12.33 94.3819 12.3332 94.3617 12.3225C94.3402 12.3111 94.331 12.2974 94.3319 12.2989C94.335 12.3038 94.3488 12.3288 94.3613 12.3883C94.3737 12.4474 94.3825 12.5297 94.3825 12.64H95.3825ZM94.3725 11.33C94.0443 11.33 93.7505 11.4746 93.5669 11.7661C93.4078 12.0188 93.3625 12.3337 93.3625 12.64H94.3625C94.3625 12.5297 94.3714 12.4474 94.3838 12.3883C94.3963 12.3288 94.4101 12.3038 94.4132 12.2989C94.4141 12.2974 94.4049 12.3111 94.3834 12.3225C94.3632 12.3332 94.3546 12.33 94.3725 12.33V11.33ZM95.9125 16.87C95.9125 17.9577 96.1469 18.8833 96.6693 19.5957L97.4757 19.0043C97.1182 18.5167 96.9125 17.8223 96.9125 16.87H95.9125ZM96.6693 19.5957C97.2167 20.3421 98.0169 20.7 98.9925 20.7V19.7C98.2882 19.7 97.8084 19.4579 97.4757 19.0043L96.6693 19.5957ZM98.9925 20.7C99.6398 20.7 100.261 20.5373 100.85 20.2202L100.375 19.3398C99.9242 19.5827 99.4652 19.7 98.9925 19.7V20.7ZM100.843 20.2239C101.459 19.9046 101.955 19.4553 102.324 18.8795L101.481 18.3405C101.21 18.7647 100.847 19.0954 100.382 19.3361L100.843 20.2239ZM102.321 18.8836C102.716 18.2797 102.913 17.6041 102.913 16.87H101.913C101.913 17.4159 101.769 17.9003 101.484 18.3364L102.321 18.8836ZM102.913 16.87C102.913 16.1359 102.716 15.4667 102.316 14.8788L101.489 15.4412C101.769 15.8533 101.913 16.3241 101.913 16.87H102.913ZM102.328 14.898C101.961 14.301 101.464 13.838 100.843 13.5161L100.382 14.4039C100.842 14.642 101.204 14.979 101.477 15.422L102.328 14.898ZM100.85 13.5198C100.261 13.2027 99.6398 13.04 98.9925 13.04V14.04C99.4652 14.04 99.9242 14.1572 100.375 14.4002L100.85 13.5198ZM98.9925 13.04C98.0169 13.04 97.2167 13.3979 96.6693 14.1443L97.4757 14.7357C97.8084 14.2821 98.2882 14.04 98.9925 14.04V13.04ZM96.6693 14.1443C96.1469 14.8567 95.9125 15.7823 95.9125 16.87H96.9125C96.9125 15.9177 97.1182 15.2233 97.4757 14.7357L96.6693 14.1443ZM103.323 10.57C103.323 10.9377 103.396 11.3072 103.534 11.6756L104.471 11.3244C104.369 11.0528 104.323 10.8023 104.323 10.57H103.323ZM103.534 11.6756C103.6 11.8495 103.674 12.0137 103.763 12.1433C103.829 12.2395 104.013 12.48 104.333 12.48V11.48C104.447 11.48 104.526 11.5271 104.559 11.5523C104.589 11.5757 104.597 11.5916 104.587 11.5767C104.578 11.5643 104.563 11.5385 104.542 11.4939C104.521 11.4503 104.497 11.3943 104.471 11.3244L103.534 11.6756ZM104.333 12.48C104.652 12.48 104.836 12.2395 104.902 12.1433C104.991 12.0137 105.065 11.8495 105.131 11.6756L104.194 11.3244C104.168 11.3943 104.144 11.4503 104.124 11.4939C104.102 11.5385 104.087 11.5643 104.078 11.5767C104.068 11.5916 104.076 11.5757 104.106 11.5523C104.139 11.5271 104.218 11.48 104.333 11.48V12.48ZM105.131 11.6756C105.269 11.3072 105.343 10.9377 105.343 10.57H104.343C104.343 10.8023 104.296 11.0528 104.194 11.3244L105.131 11.6756ZM105.343 10.57C105.343 10.2637 105.297 9.94875 105.138 9.69609C104.955 9.40458 104.661 9.26 104.333 9.26V10.26C104.351 10.26 104.342 10.2632 104.322 10.2525C104.3 10.2411 104.291 10.2274 104.292 10.2289C104.295 10.2338 104.309 10.2588 104.321 10.3183C104.334 10.3774 104.343 10.4597 104.343 10.57H105.343ZM104.333 9.26C104.004 9.26 103.71 9.40458 103.527 9.69609C103.368 9.94875 103.323 10.2637 103.323 10.57H104.323C104.323 10.4597 104.331 10.3774 104.344 10.3183C104.356 10.2588 104.37 10.2338 104.373 10.2289C104.374 10.2274 104.365 10.2411 104.343 10.2525C104.323 10.2632 104.315 10.26 104.333 10.26V9.26ZM122.718 14.08L123.071 14.4336L123.088 14.4168L123.103 14.3985L122.718 14.08ZM122.088 14.11L121.795 14.5158L121.803 14.521L121.81 14.526L122.088 14.11ZM119.328 13.63L119.402 14.1245L119.414 14.1227L119.426 14.1203L119.328 13.63ZM117.168 14.86L117.532 15.2027L117.537 15.1974L117.168 14.86ZM115.998 24.91L115.644 24.5564L115.998 24.91ZM110.988 24.91L110.608 25.2354L110.633 25.2646L110.662 25.2896L110.988 24.91ZM116.208 10.84H115.708V12.2126L116.59 11.1616L116.208 10.84ZM118.068 9.46L118.296 9.9051L118.304 9.90058L118.068 9.46ZM120.408 8.71L120.38 8.21061L120.367 8.21163L120.408 8.71ZM120.948 8.68V8.18H120.934L120.92 8.18077L120.948 8.68ZM125.178 10.6L124.801 10.9293L124.812 10.9418L124.824 10.9536L125.178 10.6ZM125.148 11.14L125.533 11.4585L125.549 11.4387L125.564 11.4173L125.148 11.14ZM112.398 11.5L112.866 11.3244L112.398 11.5ZM113.058 11.5L112.589 11.3244L113.058 11.5ZM122.364 13.7264C122.342 13.748 122.335 13.7497 122.344 13.7453C122.349 13.7428 122.358 13.7389 122.371 13.7356C122.385 13.7322 122.4 13.73 122.418 13.73V14.73C122.697 14.73 122.917 14.5881 123.071 14.4336L122.364 13.7264ZM122.418 13.73C122.435 13.73 122.44 13.7335 122.431 13.7301C122.421 13.7265 122.399 13.7167 122.365 13.694L121.81 14.526C121.978 14.6377 122.184 14.73 122.418 14.73V13.73ZM122.38 13.7042C121.774 13.2684 121.024 13.07 120.168 13.07V14.07C120.871 14.07 121.401 14.2316 121.795 14.5158L122.38 13.7042ZM120.168 13.07C119.796 13.07 119.477 13.0902 119.23 13.1397L119.426 14.1203C119.578 14.0898 119.82 14.07 120.168 14.07V13.07ZM119.253 13.1355C118.321 13.2754 117.502 13.7533 116.799 14.5226L117.537 15.1974C118.113 14.5667 118.734 14.2246 119.402 14.1245L119.253 13.1355ZM116.804 14.5173C116.089 15.2762 115.708 16.1448 115.708 17.11H116.708C116.708 16.4352 116.966 15.8038 117.532 15.2027L116.804 14.5173ZM115.708 17.11V24.46H116.708V17.11H115.708ZM115.708 24.46C115.708 24.4644 115.707 24.4699 115.702 24.4811C115.696 24.494 115.681 24.5198 115.644 24.5564L116.351 25.2636C116.561 25.0534 116.708 24.7826 116.708 24.46H115.708ZM115.644 24.5564C115.624 24.5765 115.604 24.59 115.548 24.59V25.59C115.851 25.59 116.131 25.4835 116.351 25.2636L115.644 24.5564ZM115.548 24.59H111.468V25.59H115.548V24.59ZM111.468 24.59C111.41 24.59 111.365 24.5748 111.313 24.5304L110.662 25.2896C110.89 25.4852 111.165 25.59 111.468 25.59V24.59ZM111.367 24.5846C111.323 24.5328 111.308 24.4875 111.308 24.43H110.308C110.308 24.7325 110.412 25.0072 110.608 25.2354L111.367 24.5846ZM111.308 24.43V9.16H110.308V24.43H111.308ZM111.308 9.16C111.308 9.01707 111.343 9.00171 111.326 9.01855C111.309 9.03539 111.325 9 111.468 9V8C111.171 8 110.856 8.07461 110.619 8.31145C110.382 8.54829 110.308 8.86293 110.308 9.16H111.308ZM111.468 9H115.548V8H111.468V9ZM115.548 9C115.691 9 115.706 9.03539 115.689 9.01855C115.672 9.00171 115.708 9.01707 115.708 9.16H116.708C116.708 8.86293 116.633 8.54829 116.396 8.31145C116.159 8.07461 115.845 8 115.548 8V9ZM115.708 9.16V10.84H116.708V9.16H115.708ZM116.59 11.1616C116.954 10.7291 117.512 10.3062 118.296 9.90502L117.84 9.01498C116.983 9.4538 116.301 9.95094 115.825 10.5184L116.59 11.1616ZM118.304 9.90058C119.078 9.48515 119.792 9.26158 120.448 9.20836L120.367 8.21163C119.544 8.27842 118.697 8.55485 117.831 9.01942L118.304 9.90058ZM120.435 9.20923L120.975 9.17923L120.92 8.18077L120.38 8.21077L120.435 9.20923ZM120.948 9.18C122.503 9.18 123.776 9.7577 124.801 10.9293L125.554 10.2707C124.339 8.8823 122.792 8.18 120.948 8.18V9.18ZM124.824 10.9536C124.803 10.9327 124.787 10.9069 124.777 10.8806C124.768 10.8557 124.768 10.8399 124.768 10.84H125.768C125.768 10.6329 125.702 10.4168 125.531 10.2464L124.824 10.9536ZM124.768 10.84C124.768 10.8185 124.77 10.8031 124.772 10.7953C124.774 10.7875 124.775 10.7853 124.773 10.7893C124.772 10.7932 124.768 10.8015 124.761 10.8143C124.754 10.8271 124.745 10.8432 124.732 10.8626L125.564 11.4173C125.66 11.2724 125.768 11.0703 125.768 10.84H124.768ZM124.762 10.8215L122.332 13.7615L123.103 14.3985L125.533 11.4585L124.762 10.8215ZM111.718 10.57C111.718 10.9377 111.791 11.3072 111.929 11.6756L112.866 11.3244C112.764 11.0528 112.718 10.8023 112.718 10.57H111.718ZM111.929 11.6756C111.995 11.8495 112.069 12.0137 112.158 12.1433C112.224 12.2395 112.408 12.48 112.728 12.48V11.48C112.843 11.48 112.921 11.5271 112.954 11.5523C112.984 11.5757 112.992 11.5916 112.982 11.5767C112.974 11.5643 112.958 11.5385 112.937 11.4939C112.916 11.4503 112.892 11.3943 112.866 11.3244L111.929 11.6756ZM112.728 12.48C113.047 12.48 113.231 12.2395 113.297 12.1433C113.386 12.0137 113.461 11.8495 113.526 11.6756L112.589 11.3244C112.563 11.3943 112.54 11.4503 112.519 11.4939C112.497 11.5385 112.482 11.5643 112.473 11.5767C112.463 11.5916 112.471 11.5757 112.501 11.5523C112.534 11.5271 112.613 11.48 112.728 11.48V12.48ZM113.526 11.6756C113.664 11.3072 113.738 10.9377 113.738 10.57H112.738C112.738 10.8023 112.691 11.0528 112.589 11.3244L113.526 11.6756ZM113.738 10.57C113.738 10.2637 113.692 9.94875 113.533 9.69609C113.35 9.40458 113.056 9.26 112.728 9.26V10.26C112.746 10.26 112.737 10.2632 112.717 10.2525C112.695 10.2411 112.686 10.2274 112.687 10.2289C112.69 10.2338 112.704 10.2588 112.716 10.3183C112.729 10.3774 112.738 10.4597 112.738 10.57H113.738ZM112.728 9.26C112.399 9.26 112.106 9.40458 111.922 9.69609C111.763 9.94875 111.718 10.2637 111.718 10.57H112.718C112.718 10.4597 112.726 10.3774 112.739 10.3183C112.751 10.2588 112.765 10.2338 112.768 10.2289C112.769 10.2274 112.76 10.2411 112.738 10.2525C112.718 10.2632 112.71 10.26 112.728 10.26V9.26ZM127.817 11.47L127.349 11.2944L127.817 11.47ZM127.157 11.47L127.626 11.2944L127.157 11.47ZM129.467 8.5V9H129.967V8.5H129.467ZM134.867 8.5H134.367V9H134.867V8.5ZM138.857 8.71L138.478 9.03539L138.503 9.0646L138.532 9.08963L138.857 8.71ZM138.857 13.12L138.532 12.7404L138.517 12.7529L138.504 12.7664L138.857 13.12ZM134.867 13.3V12.8H134.367V13.3H134.867ZM135.377 19.9L135.074 20.2972L135.087 20.307L135.1 20.316L135.377 19.9ZM138.587 25.09V24.59L138.582 24.59L138.587 25.09ZM135.827 25.12L135.832 25.62L135.833 25.62L135.827 25.12ZM131.087 23.65L130.744 24.0136L130.751 24.02L131.087 23.65ZM129.467 13.3H129.967V12.8H129.467V13.3ZM131.057 7.42L130.589 7.59556V7.59556L131.057 7.42ZM131.717 7.42L132.186 7.59556V7.59556L131.717 7.42ZM127.487 12.45C127.807 12.45 127.991 12.2095 128.057 12.1133C128.146 11.9837 128.22 11.8195 128.286 11.6456L127.349 11.2944C127.323 11.3643 127.299 11.4203 127.278 11.4639C127.257 11.5085 127.241 11.5343 127.233 11.5467C127.223 11.5616 127.23 11.5457 127.261 11.5223C127.294 11.4971 127.372 11.45 127.487 11.45V12.45ZM128.286 11.6456C128.424 11.2772 128.497 10.9077 128.497 10.54H127.497C127.497 10.7723 127.451 11.0228 127.349 11.2944L128.286 11.6456ZM128.497 10.54C128.497 10.2337 128.452 9.91875 128.293 9.66609C128.109 9.37458 127.816 9.23 127.487 9.23V10.23C127.505 10.23 127.497 10.2332 127.477 10.2225C127.455 10.2111 127.446 10.1974 127.447 10.1989C127.45 10.2038 127.464 10.2288 127.476 10.2883C127.489 10.3474 127.497 10.4297 127.497 10.54H128.497ZM127.487 9.23C127.159 9.23 126.865 9.37458 126.682 9.66609C126.523 9.91875 126.477 10.2337 126.477 10.54H127.477C127.477 10.4297 127.486 10.3474 127.499 10.2883C127.511 10.2288 127.525 10.2038 127.528 10.1989C127.529 10.1974 127.52 10.2111 127.498 10.2225C127.478 10.2332 127.469 10.23 127.487 10.23V9.23ZM126.477 10.54C126.477 10.9077 126.551 11.2772 126.689 11.6456L127.626 11.2944C127.524 11.0228 127.477 10.7723 127.477 10.54H126.477ZM126.689 11.6456C126.754 11.8195 126.829 11.9837 126.918 12.1133C126.984 12.2095 127.168 12.45 127.487 12.45V11.45C127.602 11.45 127.681 11.4971 127.714 11.5223C127.744 11.5457 127.752 11.5616 127.742 11.5467C127.733 11.5343 127.718 11.5085 127.696 11.4639C127.676 11.4203 127.652 11.3643 127.626 11.2944L126.689 11.6456ZM126.067 9.16C126.067 9.01707 126.103 9.00171 126.086 9.01855C126.069 9.03539 126.084 9 126.227 9V8C125.93 8 125.616 8.07461 125.379 8.31145C125.142 8.54829 125.067 8.86293 125.067 9.16H126.067ZM126.227 9H129.467V8H126.227V9ZM129.967 8.5V5.11H128.967V8.5H129.967ZM129.967 5.11C129.967 4.96707 130.003 4.95171 129.986 4.96855C129.969 4.98539 129.984 4.95 130.127 4.95V3.95C129.83 3.95 129.516 4.0246 129.279 4.26144C129.042 4.49829 128.967 4.81293 128.967 5.11H129.967ZM130.127 4.95H134.207V3.95H130.127V4.95ZM134.207 4.95C134.35 4.95 134.366 4.98539 134.349 4.96855C134.332 4.95171 134.367 4.96707 134.367 5.11H135.367C135.367 4.81293 135.293 4.49829 135.056 4.26145C134.819 4.0246 134.504 3.95 134.207 3.95V4.95ZM134.367 5.11V8.5H135.367V5.11H134.367ZM134.867 9H138.407V8H134.867V9ZM138.407 9C138.431 9 138.44 9.00411 138.443 9.00559C138.447 9.00722 138.459 9.01326 138.478 9.03539L139.237 8.3846C139.025 8.13689 138.737 8 138.407 8V9ZM138.532 9.08963C138.554 9.1086 138.56 9.12046 138.562 9.12394C138.563 9.12711 138.567 9.13659 138.567 9.16H139.567C139.567 8.83 139.43 8.5427 139.183 8.33037L138.532 9.08963ZM138.567 9.16V12.64H139.567V9.16H138.567ZM138.567 12.64C138.567 12.708 138.551 12.7241 138.532 12.7404L139.183 13.4996C139.444 13.2759 139.567 12.972 139.567 12.64H138.567ZM138.504 12.7664C138.484 12.7865 138.464 12.8 138.407 12.8V13.8C138.711 13.8 138.991 13.6935 139.211 13.4736L138.504 12.7664ZM138.407 12.8H134.867V13.8H138.407V12.8ZM134.367 13.3V18.46H135.367V13.3H134.367ZM134.367 18.46C134.367 19.2172 134.548 19.8956 135.074 20.2972L135.681 19.5028C135.526 19.3844 135.367 19.1028 135.367 18.46H134.367ZM135.1 20.316C135.364 20.4919 135.708 20.5976 136.088 20.6628C136.475 20.7292 136.941 20.76 137.477 20.76V19.76C136.974 19.76 136.569 19.7308 136.257 19.6772C135.937 19.6224 135.751 19.5481 135.655 19.484L135.1 20.316ZM137.477 20.76H138.587V19.76H137.477V20.76ZM138.587 20.76C138.71 20.76 138.711 20.7904 138.684 20.7636C138.657 20.7367 138.687 20.7371 138.687 20.86H139.687C139.687 20.5829 139.618 20.2833 139.391 20.0564C139.164 19.8296 138.864 19.76 138.587 19.76V20.76ZM138.687 20.86V24.49H139.687V20.86H138.687ZM138.687 24.49C138.687 24.6129 138.657 24.6133 138.684 24.5864C138.711 24.5596 138.71 24.59 138.587 24.59V25.59C138.864 25.59 139.164 25.5204 139.391 25.2936C139.618 25.0667 139.687 24.7671 139.687 24.49H138.687ZM138.582 24.59L135.822 24.62L135.833 25.62L138.593 25.59L138.582 24.59ZM135.823 24.62C133.84 24.6393 132.4 24.1672 131.424 23.28L130.751 24.02C131.975 25.1328 133.695 25.6407 135.832 25.62L135.823 24.62ZM131.431 23.2865C130.478 22.3866 129.967 21.0648 129.967 19.24H128.967C128.967 21.2552 129.537 22.8734 130.744 24.0135L131.431 23.2865ZM129.967 19.24V13.3H128.967V19.24H129.967ZM129.467 12.8H126.227V13.8H129.467V12.8ZM126.227 12.8C126.084 12.8 126.069 12.7646 126.086 12.7814C126.103 12.7983 126.067 12.7829 126.067 12.64H125.067C125.067 12.9371 125.142 13.2517 125.379 13.4886C125.616 13.7254 125.93 13.8 126.227 13.8V12.8ZM126.067 12.64V9.16H125.067V12.64H126.067ZM130.377 6.49C130.377 6.85769 130.451 7.22715 130.589 7.59556L131.526 7.24444C131.424 6.97285 131.377 6.72231 131.377 6.49H130.377ZM130.589 7.59556C130.654 7.76951 130.729 7.9337 130.818 8.06326C130.884 8.15949 131.068 8.4 131.387 8.4V7.4C131.502 7.4 131.581 7.44713 131.614 7.47228C131.644 7.4957 131.652 7.51163 131.642 7.49673C131.633 7.48428 131.618 7.45848 131.596 7.41394C131.576 7.37027 131.552 7.31433 131.526 7.24444L130.589 7.59556ZM131.387 8.4C131.707 8.4 131.891 8.15949 131.957 8.06326C132.046 7.9337 132.12 7.76951 132.186 7.59556L131.249 7.24444C131.223 7.31433 131.199 7.37027 131.178 7.41394C131.157 7.45848 131.141 7.48428 131.133 7.49673C131.123 7.51163 131.13 7.4957 131.161 7.47228C131.194 7.44713 131.272 7.4 131.387 7.4V8.4ZM132.186 7.59556C132.324 7.22715 132.397 6.85769 132.397 6.49H131.397C131.397 6.72231 131.351 6.97285 131.249 7.24444L132.186 7.59556ZM132.397 6.49C132.397 6.18368 132.352 5.86875 132.193 5.61609C132.009 5.32458 131.716 5.18 131.387 5.18V6.18C131.405 6.18 131.397 6.18319 131.377 6.17252C131.355 6.16111 131.346 6.14741 131.347 6.1489C131.35 6.15376 131.364 6.17877 131.376 6.23833C131.389 6.29739 131.397 6.3797 131.397 6.49H132.397ZM131.387 5.18C131.059 5.18 130.765 5.32458 130.582 5.61609C130.423 5.86875 130.377 6.18368 130.377 6.49H131.377C131.377 6.3797 131.386 6.29739 131.399 6.23833C131.411 6.17877 131.425 6.15376 131.428 6.1489C131.429 6.14741 131.42 6.16111 131.398 6.17252C131.378 6.18319 131.369 6.18 131.387 6.18V5.18ZM140.639 10.87L141.081 10.6378L141.075 10.6251L141.067 10.6128L140.639 10.87ZM140.909 10.06L141.067 10.5343L141.096 10.5247L141.123 10.5115L140.909 10.06ZM144.629 8.29L144.843 8.7415L144.876 8.72601L144.906 8.70603L144.629 8.29ZM145.439 8.56L144.969 8.73087L144.978 8.75509L144.989 8.77828L145.439 8.56ZM149.879 17.71L149.429 17.9283L149.907 18.914L150.338 17.9068L149.879 17.71ZM153.719 8.74L154.178 8.93677L154.183 8.92626L154.187 8.91556L153.719 8.74ZM154.589 8.35L154.765 7.88232L154.764 7.88184L154.589 8.35ZM158.159 9.7L157.982 10.1677L157.991 10.1712L158.001 10.1743L158.159 9.7ZM158.549 10.03L158.101 10.2536L158.549 10.03ZM158.549 10.51L158.101 10.2864L158.096 10.2964L158.092 10.3066L158.549 10.51ZM151.589 26.14L152.045 26.3448L152.045 26.3434L151.589 26.14ZM142.409 31.03L142.326 31.5233L142.335 31.5246L142.409 31.03ZM142.499 26.68L142.475 27.1795L142.479 27.1796L142.499 26.68ZM146.729 24.1L146.272 23.8955L146.272 23.8969L146.729 24.1ZM147.119 23.23L147.575 23.4345L147.674 23.2129L147.561 22.9978L147.119 23.23ZM143.009 12.1L142.54 12.2756L143.009 12.1ZM143.669 12.1L144.137 12.2756L143.669 12.1ZM141.067 10.6128C141.056 10.5943 141.052 10.5822 141.05 10.5763C141.049 10.5734 141.049 10.5716 141.049 10.5708C141.049 10.5704 141.049 10.5702 141.049 10.5701C141.049 10.5701 141.049 10.57 141.049 10.57C141.049 10.57 141.049 10.57 141.049 10.57C141.049 10.57 141.049 10.57 141.049 10.57H140.049C140.049 10.7748 140.111 10.9626 140.21 11.1272L141.067 10.6128ZM141.049 10.57C141.049 10.5431 141.052 10.5298 141.053 10.5263C141.053 10.5236 141.052 10.5283 141.047 10.5358C141.045 10.5393 141.042 10.5422 141.04 10.5445C141.038 10.5467 141.036 10.5477 141.036 10.5476C141.037 10.5473 141.045 10.5416 141.067 10.5343L140.751 9.58566C140.552 9.65194 140.364 9.76962 140.23 9.95916C140.097 10.1475 140.049 10.3627 140.049 10.57H141.049ZM141.123 10.5115L144.843 8.7415L144.414 7.8385L140.694 9.6085L141.123 10.5115ZM144.906 8.70603C144.884 8.72071 144.866 8.72838 144.857 8.73191C144.847 8.73547 144.843 8.73599 144.847 8.73529C144.85 8.73462 144.858 8.73322 144.873 8.73202C144.887 8.73084 144.905 8.73 144.929 8.73V7.73C144.768 7.73 144.54 7.7479 144.351 7.87397L144.906 8.70603ZM144.929 8.73C144.959 8.73 144.976 8.73322 144.983 8.73503C144.989 8.73665 144.987 8.73685 144.98 8.73228C144.972 8.72747 144.966 8.72162 144.963 8.71755C144.961 8.7141 144.964 8.71683 144.969 8.73087L145.909 8.38913C145.837 8.19342 145.713 8.01582 145.523 7.89271C145.337 7.77236 145.128 7.73 144.929 7.73V8.73ZM144.989 8.77828L149.429 17.9283L150.328 17.4917L145.888 8.34172L144.989 8.77828ZM150.338 17.9068L154.178 8.93677L153.259 8.54322L149.419 17.5132L150.338 17.9068ZM154.187 8.91556C154.192 8.90049 154.204 8.87149 154.282 8.8369L153.876 7.92309C153.593 8.04851 153.365 8.2595 153.25 8.56444L154.187 8.91556ZM154.282 8.8369C154.362 8.80138 154.395 8.8113 154.413 8.81816L154.764 7.88184C154.463 7.7687 154.156 7.79862 153.876 7.92309L154.282 8.8369ZM154.412 8.81768L157.982 10.1677L158.335 9.23232L154.765 7.88232L154.412 8.81768ZM158.001 10.1743C158.063 10.1952 158.085 10.22 158.101 10.2536L158.996 9.80639C158.853 9.52003 158.614 9.32477 158.317 9.22566L158.001 10.1743ZM158.101 10.2536C158.106 10.2637 158.108 10.2695 158.109 10.2713C158.109 10.2728 158.109 10.2721 158.109 10.27C158.109 10.2679 158.109 10.2672 158.109 10.2687C158.108 10.2705 158.106 10.2763 158.101 10.2864L158.996 10.7336C159.146 10.4328 159.146 10.1072 158.996 9.80639L158.101 10.2536ZM158.092 10.3066L151.132 25.9366L152.045 26.3434L159.005 10.7134L158.092 10.3066ZM151.133 25.9352C150.412 27.5392 149.471 28.7105 148.324 29.4828C147.179 30.2538 145.795 30.65 144.149 30.65V31.65C145.962 31.65 147.548 31.2112 148.883 30.3122C150.216 29.4145 151.265 28.0808 152.045 26.3448L151.133 25.9352ZM144.149 30.65C143.55 30.65 142.995 30.6114 142.482 30.5354L142.335 31.5246C142.903 31.6086 143.507 31.65 144.149 31.65V30.65ZM142.491 30.5368C142.389 30.5199 142.375 30.4929 142.383 30.5021C142.392 30.5121 142.369 30.4973 142.369 30.4H141.369C141.369 30.6627 141.435 30.9329 141.624 31.1529C141.812 31.3721 142.068 31.4801 142.326 31.5232L142.491 30.5368ZM142.369 30.4V27.25H141.369V30.4H142.369ZM142.369 27.25C142.369 27.192 142.376 27.1644 142.379 27.157C142.381 27.1528 142.377 27.1646 142.362 27.1783C142.347 27.1913 142.339 27.1909 142.353 27.1871C142.37 27.1827 142.408 27.1762 142.475 27.1794L142.522 26.1806C142.244 26.1673 141.932 26.218 141.691 26.4367C141.443 26.6604 141.369 26.9686 141.369 27.25H142.369ZM142.479 27.1796C143.565 27.2226 144.525 27.0137 145.331 26.5219C146.139 26.0294 146.752 25.2776 147.186 24.3031L146.272 23.8969C145.905 24.7224 145.413 25.3006 144.811 25.6681C144.207 26.0363 143.452 26.2174 142.518 26.1804L142.479 27.1796ZM147.185 24.3045L147.575 23.4345L146.662 23.0255L146.272 23.8955L147.185 24.3045ZM147.561 22.9978L141.081 10.6378L140.196 11.1022L146.676 23.4622L147.561 22.9978ZM142.329 11.17C142.329 11.5377 142.402 11.9072 142.54 12.2756L143.477 11.9244C143.375 11.6528 143.329 11.4023 143.329 11.17H142.329ZM142.54 12.2756C142.606 12.4495 142.68 12.6137 142.769 12.7433C142.835 12.8395 143.019 13.08 143.339 13.08V12.08C143.454 12.08 143.532 12.1271 143.565 12.1523C143.596 12.1757 143.603 12.1916 143.593 12.1767C143.585 12.1643 143.569 12.1385 143.548 12.0939C143.527 12.0503 143.503 11.9943 143.477 11.9244L142.54 12.2756ZM143.339 13.08C143.658 13.08 143.842 12.8395 143.908 12.7433C143.997 12.6137 144.072 12.4495 144.137 12.2756L143.2 11.9244C143.174 11.9943 143.151 12.0503 143.13 12.0939C143.108 12.1385 143.093 12.1643 143.084 12.1767C143.074 12.1916 143.082 12.1757 143.112 12.1523C143.146 12.1271 143.224 12.08 143.339 12.08V13.08ZM144.137 12.2756C144.275 11.9072 144.349 11.5377 144.349 11.17H143.349C143.349 11.4023 143.302 11.6528 143.2 11.9244L144.137 12.2756ZM144.349 11.17C144.349 10.8637 144.303 10.5488 144.144 10.2961C143.961 10.0046 143.667 9.86 143.339 9.86V10.86C143.357 10.86 143.348 10.8632 143.328 10.8525C143.306 10.8411 143.297 10.8274 143.298 10.8289C143.301 10.8338 143.315 10.8588 143.327 10.9183C143.34 10.9774 143.349 11.0597 143.349 11.17H144.349ZM143.339 9.86C143.01 9.86 142.717 10.0046 142.533 10.2961C142.374 10.5488 142.329 10.8637 142.329 11.17H143.329C143.329 11.0597 143.337 10.9774 143.35 10.9183C143.362 10.8588 143.376 10.8338 143.379 10.8289C143.38 10.8274 143.371 10.8411 143.349 10.8525C143.329 10.8632 143.321 10.86 143.339 10.86V9.86Z" fill="#0064FF" mask="url(#path-1-outside-1_385_2)"/>
</svg>
