<svg width="529" height="102" viewBox="0 0 529 102" fill="none" xmlns="http://www.w3.org/2000/svg">
<mask id="path-1-outside-1_69_24" maskUnits="userSpaceOnUse" x="-1" y="0" width="530" height="102" fill="black">
<rect fill="white" x="-1" width="530" height="102"/>
<path d="M31.4379 82.9C24.9712 82.9 19.4046 81.2667 14.7379 78C10.0712 74.7333 6.50456 70.1 4.03789 64.1C1.57122 58.0333 0.337891 50.8667 0.337891 42.6C0.337891 34.3333 1.50456 27.1667 3.83789 21.1C6.23789 14.9667 9.77122 10.2667 14.4379 7C19.1046 3.66666 24.7712 2 31.4379 2C38.4379 2 44.8379 3.73333 50.6379 7.2C56.5046 10.6667 61.1379 15.4333 64.5379 21.5C68.0046 27.5 69.7379 34.2333 69.7379 41.7C69.7379 50.0333 67.7046 57.5333 63.6379 64.2L70.9379 71.6C71.4712 72.1333 71.7379 72.6333 71.7379 73.1C71.7379 73.6333 71.4712 74.1667 70.9379 74.7L60.6379 85C60.1046 85.5333 59.5712 85.8 59.0379 85.8C58.5712 85.8 58.0712 85.5333 57.5379 85L50.2379 77.7C44.6379 81.1667 38.3712 82.9 31.4379 82.9ZM17.4379 13.6C17.4379 14.6 17.6379 15.6333 18.0379 16.7C18.4379 17.7667 18.8046 18.3 19.1379 18.3C19.4712 18.3 19.8379 17.7667 20.2379 16.7C20.6379 15.6333 20.8379 14.6 20.8379 13.6C20.8379 11.8 20.2712 10.9 19.1379 10.9C18.0046 10.9 17.4379 11.8 17.4379 13.6ZM19.3379 42.7C19.3379 49.8333 20.5046 55.3 22.8379 59.1C25.1712 62.9 28.6712 64.8 33.3379 64.8C34.3379 64.8 35.5046 64.6333 36.8379 64.3L29.9379 57.4C29.4712 56.8 29.2379 56.2667 29.2379 55.8C29.2379 55.2667 29.4712 54.7667 29.9379 54.3L40.2379 43.9C40.7046 43.4333 41.2379 43.2 41.8379 43.2C42.4379 43.2 42.9712 43.4333 43.4379 43.9L49.7379 50.3C50.5379 47.9 50.9379 45.4 50.9379 42.8C50.9379 38.8 50.1046 35.1 48.4379 31.7C46.7712 28.3 44.5712 25.6 41.8379 23.6C39.1712 21.6 36.3379 20.6 33.3379 20.6C24.0046 20.6 19.3379 27.9667 19.3379 42.7ZM117.835 28.1C117.835 27.5667 118.035 27.1 118.435 26.7C118.901 26.2333 119.435 26 120.035 26H133.635C134.235 26 134.735 26.2333 135.135 26.7C135.601 27.1 135.835 27.6 135.835 28.2V79.1C135.835 80.5667 135.101 81.3 133.635 81.3H120.035C118.568 81.3 117.835 80.5667 117.835 79.1V75.5C116.701 76.9667 114.835 78.2 112.235 79.2C109.635 80.1333 106.835 80.6 103.835 80.6C96.1014 80.6 90.3014 78.1 86.4348 73.1C82.5681 68.1 80.6348 61.0667 80.6348 52V28C80.6348 26.6667 81.3014 26 82.6348 26H96.5348C97.8681 26 98.5348 26.6667 98.5348 28V53.4C98.5348 60.8 101.168 64.5 106.435 64.5C108.301 64.5 110.101 64.0333 111.835 63.1C113.635 62.1667 115.068 60.8667 116.135 59.2C117.268 57.4667 117.835 55.5333 117.835 53.4V28.1ZM85.3348 32.9C85.3348 33.9 85.5348 34.9333 85.9348 36C86.3348 37.0667 86.7014 37.6 87.0348 37.6C87.3681 37.6 87.7348 37.0667 88.1348 36C88.5348 34.9333 88.7348 33.9 88.7348 32.9C88.7348 31.1 88.1681 30.2 87.0348 30.2C85.9014 30.2 85.3348 31.1 85.3348 32.9ZM122.535 32.9C122.535 33.9 122.735 34.9333 123.135 36C123.535 37.0667 123.901 37.6 124.235 37.6C124.568 37.6 124.935 37.0667 125.335 36C125.735 34.9333 125.935 33.9 125.935 32.9C125.935 31.1 125.368 30.2 124.235 30.2C123.101 30.2 122.535 31.1 122.535 32.9ZM149.769 81.3C149.169 81.3 148.636 81.1 148.169 80.7C147.769 80.2333 147.569 79.7 147.569 79.1V28.2C147.569 26.7333 148.302 26 149.769 26H163.369C164.836 26 165.569 26.7333 165.569 28.2V79.1C165.569 79.7 165.336 80.2333 164.869 80.7C164.469 81.1 163.969 81.3 163.369 81.3H149.769ZM145.869 10C145.869 7.26666 146.669 4.99999 148.269 3.19999C149.869 1.39999 152.102 0.499993 154.969 0.499993C156.769 0.499993 158.602 0.933327 160.469 1.79999C162.402 2.66666 164.002 3.83333 165.269 5.3C166.536 6.76666 167.169 8.33333 167.169 10C167.169 11.6667 166.536 13.2333 165.269 14.7C164.002 16.1 162.402 17.2333 160.469 18.1C158.602 18.9667 156.769 19.4 154.969 19.4C152.102 19.4 149.869 18.5333 148.269 16.8C146.669 15 145.869 12.7333 145.869 10ZM152.269 32.9C152.269 33.9 152.469 34.9333 152.869 36C153.269 37.0667 153.636 37.6 153.969 37.6C154.302 37.6 154.669 37.0667 155.069 36C155.469 34.9333 155.669 33.9 155.669 32.9C155.669 31.1 155.102 30.2 153.969 30.2C152.836 30.2 152.269 31.1 152.269 32.9ZM152.369 8.4C152.369 9.13333 152.536 9.86666 152.869 10.6C153.202 11.3333 153.569 11.7 153.969 11.7C154.369 11.7 154.736 11.3333 155.069 10.6C155.402 9.86666 155.569 9.13333 155.569 8.4C155.569 7.73333 155.402 7.23333 155.069 6.89999C154.802 6.5 154.436 6.3 153.969 6.3C153.502 6.3 153.102 6.5 152.769 6.89999C152.502 7.23333 152.369 7.73333 152.369 8.4ZM184.417 37.5C184.75 37.5 185.117 36.9667 185.517 35.9C185.917 34.8333 186.117 33.8 186.117 32.8C186.117 31 185.55 30.1 184.417 30.1C183.283 30.1 182.717 31 182.717 32.8C182.717 33.8 182.917 34.8333 183.317 35.9C183.717 36.9667 184.083 37.5 184.417 37.5ZM177.217 69.5C177.217 68.3667 177.75 67.2667 178.817 66.2L202.117 42H180.217C178.75 42 178.017 41.2667 178.017 39.8V28.2C178.017 26.7333 178.75 26 180.217 26H223.017C223.617 26 224.117 26.2333 224.517 26.7C224.983 27.1 225.217 27.6 225.217 28.2V38.7C225.217 39.7667 224.75 40.7667 223.817 41.7L201.317 65.3H225.017C225.617 65.3 226.117 65.5333 226.517 66C226.983 66.4 227.217 66.9 227.217 67.5V79.1C227.217 79.7667 226.983 80.3 226.517 80.7C226.117 81.1 225.617 81.3 225.017 81.3H179.417C177.95 81.3 177.217 80.5667 177.217 79.1V69.5ZM240.378 81.3C239.778 81.3 239.244 81.1 238.778 80.7C238.378 80.2333 238.178 79.7 238.178 79.1V5.7C238.178 4.23333 238.911 3.5 240.378 3.5H257.678C271.411 3.5 281.444 5.8 287.778 10.4C294.178 15 297.378 21.7333 297.378 30.6C297.378 39 294.011 45.6333 287.278 50.5C280.611 55.3667 270.578 57.9333 257.178 58.2V79.1C257.178 79.7 256.944 80.2333 256.478 80.7C256.078 81.1 255.578 81.3 254.978 81.3H240.378ZM242.878 10.4C242.878 11.4 243.078 12.4333 243.478 13.5C243.878 14.5667 244.244 15.1 244.578 15.1C244.911 15.1 245.278 14.5667 245.678 13.5C246.078 12.4333 246.278 11.4 246.278 10.4C246.278 8.6 245.711 7.7 244.578 7.7C243.444 7.7 242.878 8.6 242.878 10.4ZM257.178 41C257.444 41.0667 257.811 41.1 258.278 41.1C265.278 41.1 270.278 40.2 273.278 38.4C276.278 36.6 277.778 34.2333 277.778 31.3C277.778 27.9667 276.311 25.4333 273.378 23.7C270.444 21.9667 265.411 21.1 258.278 21.1H257.178V41ZM303.342 55C303.342 46.0667 305.275 39.1333 309.142 34.2C313.075 29.2 318.875 26.7 326.542 26.7C329.542 26.7 332.375 27.2 335.042 28.2C337.775 29.2 339.608 30.4 340.542 31.8V28.2C340.542 26.7333 341.275 26 342.742 26H356.342C357.808 26 358.542 26.7333 358.542 28.2V79.1C358.542 79.7 358.308 80.2333 357.842 80.7C357.442 81.1 356.942 81.3 356.342 81.3H342.742C342.142 81.3 341.608 81.1 341.142 80.7C340.742 80.2333 340.542 79.7333 340.542 79.2V76.3C339.475 77.7 337.708 78.9667 335.242 80.1C332.842 81.2333 330.175 81.8 327.242 81.8C322.708 81.8 318.608 80.7333 314.942 78.6C311.342 76.4667 308.508 73.4 306.442 69.4C304.375 65.3333 303.342 60.5333 303.342 55ZM312.042 39.8C312.042 40.8 312.242 41.8333 312.642 42.9C313.042 43.9667 313.408 44.5 313.742 44.5C314.075 44.5 314.442 43.9667 314.842 42.9C315.242 41.8333 315.442 40.8 315.442 39.8C315.442 38 314.875 37.1 313.742 37.1C312.608 37.1 312.042 38 312.042 39.8ZM320.542 53.9C320.542 57.3 321.275 60 322.742 62C324.208 64 326.342 65 329.142 65C331.008 65 332.808 64.5333 334.542 63.6C336.342 62.6667 337.775 61.3667 338.842 59.7C339.975 57.9667 340.542 56.0333 340.542 53.9C340.542 51.7667 339.975 49.8667 338.842 48.2C337.775 46.4667 336.342 45.1333 334.542 44.2C332.808 43.2667 331.008 42.8 329.142 42.8C326.342 42.8 324.208 43.8 322.742 45.8C321.275 47.8 320.542 50.5 320.542 53.9ZM345.242 32.9C345.242 33.9 345.442 34.9333 345.842 36C346.242 37.0667 346.608 37.6 346.942 37.6C347.275 37.6 347.642 37.0667 348.042 36C348.442 34.9333 348.642 33.9 348.642 32.9C348.642 31.1 348.075 30.2 346.942 30.2C345.808 30.2 345.242 31.1 345.242 32.9ZM408.225 44.6C407.892 44.9333 407.559 45.1 407.225 45.1C406.892 45.1 406.525 44.9667 406.125 44.7C404.459 43.5 402.325 42.9 399.725 42.9C398.525 42.9 397.592 42.9667 396.925 43.1C394.259 43.5 391.859 44.8667 389.725 47.2C387.592 49.4667 386.525 51.9667 386.525 54.7V79.2C386.525 79.7333 386.292 80.2333 385.825 80.7C385.425 81.1 384.925 81.3 384.325 81.3H370.725C370.125 81.3 369.592 81.1 369.125 80.7C368.725 80.2333 368.525 79.7 368.525 79.1V28.2C368.525 26.7333 369.259 26 370.725 26H384.325C385.792 26 386.525 26.7333 386.525 28.2V33.8C387.925 32.1333 389.992 30.6 392.725 29.2C395.459 27.7333 398.059 26.9 400.525 26.7L402.325 26.6C407.992 26.6 412.692 28.7333 416.425 33C416.625 33.2 416.725 33.4667 416.725 33.8C416.725 34.0667 416.592 34.4 416.325 34.8L408.225 44.6ZM373.225 32.9C373.225 33.9 373.425 34.9333 373.825 36C374.225 37.0667 374.592 37.6 374.925 37.6C375.259 37.6 375.625 37.0667 376.025 36C376.425 34.9333 376.625 33.9 376.625 32.9C376.625 31.1 376.059 30.2 374.925 30.2C373.792 30.2 373.225 31.1 373.225 32.9ZM424.125 37.5C424.458 37.5 424.825 36.9667 425.225 35.9C425.625 34.8333 425.825 33.8 425.825 32.8C425.825 31 425.258 30.1 424.125 30.1C422.991 30.1 422.425 31 422.425 32.8C422.425 33.8 422.625 34.8333 423.025 35.9C423.425 36.9667 423.791 37.5 424.125 37.5ZM417.725 28.2C417.725 26.7333 418.458 26 419.925 26H430.725V14.7C430.725 13.2333 431.458 12.5 432.925 12.5H446.525C447.991 12.5 448.725 13.2333 448.725 14.7V26H460.525C461.125 26 461.625 26.2333 462.025 26.7C462.491 27.1 462.725 27.6 462.725 28.2V39.8C462.725 40.4667 462.491 41 462.025 41.4C461.625 41.8 461.125 42 460.525 42H448.725V59.2C448.725 61.5333 449.291 63.1333 450.425 64C451.625 64.8 453.958 65.2 457.425 65.2H461.125C462.458 65.2 463.125 65.8667 463.125 67.2V79.3C463.125 80.6333 462.458 81.3 461.125 81.3L451.925 81.4C445.058 81.4667 439.791 79.8333 436.125 76.5C432.525 73.1 430.725 68.2 430.725 61.8V42H419.925C418.458 42 417.725 41.2667 417.725 39.8V28.2ZM435.425 19.3C435.425 20.3 435.625 21.3333 436.025 22.4C436.425 23.4667 436.791 24 437.125 24C437.458 24 437.825 23.4667 438.225 22.4C438.625 21.3333 438.825 20.3 438.825 19.3C438.825 17.5 438.258 16.6 437.125 16.6C435.991 16.6 435.425 17.5 435.425 19.3ZM467.962 33.9C467.762 33.5667 467.662 33.2333 467.662 32.9C467.662 32.0333 468.062 31.4667 468.862 31.2L481.262 25.3C481.462 25.1667 481.795 25.1 482.262 25.1C483.129 25.1 483.695 25.4667 483.962 26.2L498.762 56.7L511.562 26.8C511.762 26.2667 512.162 25.8667 512.762 25.6C513.362 25.3333 513.929 25.3 514.462 25.5L526.362 30C526.962 30.2 527.395 30.5667 527.662 31.1C527.929 31.6333 527.929 32.1667 527.662 32.7L504.462 84.8C499.462 95.9333 491.195 101.5 479.662 101.5C477.595 101.5 475.662 101.367 473.862 101.1C472.662 100.9 472.062 100.2 472.062 99V88.5C472.062 87.1667 472.762 86.5333 474.162 86.6C480.895 86.8667 485.595 84 488.262 78L489.562 75.1L467.962 33.9ZM475.262 34.9C475.262 35.9 475.462 36.9333 475.862 38C476.262 39.0667 476.629 39.6 476.962 39.6C477.295 39.6 477.662 39.0667 478.062 38C478.462 36.9333 478.662 35.9 478.662 34.9C478.662 33.1 478.095 32.2 476.962 32.2C475.829 32.2 475.262 33.1 475.262 34.9Z"/>
</mask>
<path d="M31.4379 82.9C24.9712 82.9 19.4046 81.2667 14.7379 78C10.0712 74.7333 6.50456 70.1 4.03789 64.1C1.57122 58.0333 0.337891 50.8667 0.337891 42.6C0.337891 34.3333 1.50456 27.1667 3.83789 21.1C6.23789 14.9667 9.77122 10.2667 14.4379 7C19.1046 3.66666 24.7712 2 31.4379 2C38.4379 2 44.8379 3.73333 50.6379 7.2C56.5046 10.6667 61.1379 15.4333 64.5379 21.5C68.0046 27.5 69.7379 34.2333 69.7379 41.7C69.7379 50.0333 67.7046 57.5333 63.6379 64.2L70.9379 71.6C71.4712 72.1333 71.7379 72.6333 71.7379 73.1C71.7379 73.6333 71.4712 74.1667 70.9379 74.7L60.6379 85C60.1046 85.5333 59.5712 85.8 59.0379 85.8C58.5712 85.8 58.0712 85.5333 57.5379 85L50.2379 77.7C44.6379 81.1667 38.3712 82.9 31.4379 82.9ZM17.4379 13.6C17.4379 14.6 17.6379 15.6333 18.0379 16.7C18.4379 17.7667 18.8046 18.3 19.1379 18.3C19.4712 18.3 19.8379 17.7667 20.2379 16.7C20.6379 15.6333 20.8379 14.6 20.8379 13.6C20.8379 11.8 20.2712 10.9 19.1379 10.9C18.0046 10.9 17.4379 11.8 17.4379 13.6ZM19.3379 42.7C19.3379 49.8333 20.5046 55.3 22.8379 59.1C25.1712 62.9 28.6712 64.8 33.3379 64.8C34.3379 64.8 35.5046 64.6333 36.8379 64.3L29.9379 57.4C29.4712 56.8 29.2379 56.2667 29.2379 55.8C29.2379 55.2667 29.4712 54.7667 29.9379 54.3L40.2379 43.9C40.7046 43.4333 41.2379 43.2 41.8379 43.2C42.4379 43.2 42.9712 43.4333 43.4379 43.9L49.7379 50.3C50.5379 47.9 50.9379 45.4 50.9379 42.8C50.9379 38.8 50.1046 35.1 48.4379 31.7C46.7712 28.3 44.5712 25.6 41.8379 23.6C39.1712 21.6 36.3379 20.6 33.3379 20.6C24.0046 20.6 19.3379 27.9667 19.3379 42.7ZM117.835 28.1C117.835 27.5667 118.035 27.1 118.435 26.7C118.901 26.2333 119.435 26 120.035 26H133.635C134.235 26 134.735 26.2333 135.135 26.7C135.601 27.1 135.835 27.6 135.835 28.2V79.1C135.835 80.5667 135.101 81.3 133.635 81.3H120.035C118.568 81.3 117.835 80.5667 117.835 79.1V75.5C116.701 76.9667 114.835 78.2 112.235 79.2C109.635 80.1333 106.835 80.6 103.835 80.6C96.1014 80.6 90.3014 78.1 86.4348 73.1C82.5681 68.1 80.6348 61.0667 80.6348 52V28C80.6348 26.6667 81.3014 26 82.6348 26H96.5348C97.8681 26 98.5348 26.6667 98.5348 28V53.4C98.5348 60.8 101.168 64.5 106.435 64.5C108.301 64.5 110.101 64.0333 111.835 63.1C113.635 62.1667 115.068 60.8667 116.135 59.2C117.268 57.4667 117.835 55.5333 117.835 53.4V28.1ZM85.3348 32.9C85.3348 33.9 85.5348 34.9333 85.9348 36C86.3348 37.0667 86.7014 37.6 87.0348 37.6C87.3681 37.6 87.7348 37.0667 88.1348 36C88.5348 34.9333 88.7348 33.9 88.7348 32.9C88.7348 31.1 88.1681 30.2 87.0348 30.2C85.9014 30.2 85.3348 31.1 85.3348 32.9ZM122.535 32.9C122.535 33.9 122.735 34.9333 123.135 36C123.535 37.0667 123.901 37.6 124.235 37.6C124.568 37.6 124.935 37.0667 125.335 36C125.735 34.9333 125.935 33.9 125.935 32.9C125.935 31.1 125.368 30.2 124.235 30.2C123.101 30.2 122.535 31.1 122.535 32.9ZM149.769 81.3C149.169 81.3 148.636 81.1 148.169 80.7C147.769 80.2333 147.569 79.7 147.569 79.1V28.2C147.569 26.7333 148.302 26 149.769 26H163.369C164.836 26 165.569 26.7333 165.569 28.2V79.1C165.569 79.7 165.336 80.2333 164.869 80.7C164.469 81.1 163.969 81.3 163.369 81.3H149.769ZM145.869 10C145.869 7.26666 146.669 4.99999 148.269 3.19999C149.869 1.39999 152.102 0.499993 154.969 0.499993C156.769 0.499993 158.602 0.933327 160.469 1.79999C162.402 2.66666 164.002 3.83333 165.269 5.3C166.536 6.76666 167.169 8.33333 167.169 10C167.169 11.6667 166.536 13.2333 165.269 14.7C164.002 16.1 162.402 17.2333 160.469 18.1C158.602 18.9667 156.769 19.4 154.969 19.4C152.102 19.4 149.869 18.5333 148.269 16.8C146.669 15 145.869 12.7333 145.869 10ZM152.269 32.9C152.269 33.9 152.469 34.9333 152.869 36C153.269 37.0667 153.636 37.6 153.969 37.6C154.302 37.6 154.669 37.0667 155.069 36C155.469 34.9333 155.669 33.9 155.669 32.9C155.669 31.1 155.102 30.2 153.969 30.2C152.836 30.2 152.269 31.1 152.269 32.9ZM152.369 8.4C152.369 9.13333 152.536 9.86666 152.869 10.6C153.202 11.3333 153.569 11.7 153.969 11.7C154.369 11.7 154.736 11.3333 155.069 10.6C155.402 9.86666 155.569 9.13333 155.569 8.4C155.569 7.73333 155.402 7.23333 155.069 6.89999C154.802 6.5 154.436 6.3 153.969 6.3C153.502 6.3 153.102 6.5 152.769 6.89999C152.502 7.23333 152.369 7.73333 152.369 8.4ZM184.417 37.5C184.75 37.5 185.117 36.9667 185.517 35.9C185.917 34.8333 186.117 33.8 186.117 32.8C186.117 31 185.55 30.1 184.417 30.1C183.283 30.1 182.717 31 182.717 32.8C182.717 33.8 182.917 34.8333 183.317 35.9C183.717 36.9667 184.083 37.5 184.417 37.5ZM177.217 69.5C177.217 68.3667 177.75 67.2667 178.817 66.2L202.117 42H180.217C178.75 42 178.017 41.2667 178.017 39.8V28.2C178.017 26.7333 178.75 26 180.217 26H223.017C223.617 26 224.117 26.2333 224.517 26.7C224.983 27.1 225.217 27.6 225.217 28.2V38.7C225.217 39.7667 224.75 40.7667 223.817 41.7L201.317 65.3H225.017C225.617 65.3 226.117 65.5333 226.517 66C226.983 66.4 227.217 66.9 227.217 67.5V79.1C227.217 79.7667 226.983 80.3 226.517 80.7C226.117 81.1 225.617 81.3 225.017 81.3H179.417C177.95 81.3 177.217 80.5667 177.217 79.1V69.5ZM240.378 81.3C239.778 81.3 239.244 81.1 238.778 80.7C238.378 80.2333 238.178 79.7 238.178 79.1V5.7C238.178 4.23333 238.911 3.5 240.378 3.5H257.678C271.411 3.5 281.444 5.8 287.778 10.4C294.178 15 297.378 21.7333 297.378 30.6C297.378 39 294.011 45.6333 287.278 50.5C280.611 55.3667 270.578 57.9333 257.178 58.2V79.1C257.178 79.7 256.944 80.2333 256.478 80.7C256.078 81.1 255.578 81.3 254.978 81.3H240.378ZM242.878 10.4C242.878 11.4 243.078 12.4333 243.478 13.5C243.878 14.5667 244.244 15.1 244.578 15.1C244.911 15.1 245.278 14.5667 245.678 13.5C246.078 12.4333 246.278 11.4 246.278 10.4C246.278 8.6 245.711 7.7 244.578 7.7C243.444 7.7 242.878 8.6 242.878 10.4ZM257.178 41C257.444 41.0667 257.811 41.1 258.278 41.1C265.278 41.1 270.278 40.2 273.278 38.4C276.278 36.6 277.778 34.2333 277.778 31.3C277.778 27.9667 276.311 25.4333 273.378 23.7C270.444 21.9667 265.411 21.1 258.278 21.1H257.178V41ZM303.342 55C303.342 46.0667 305.275 39.1333 309.142 34.2C313.075 29.2 318.875 26.7 326.542 26.7C329.542 26.7 332.375 27.2 335.042 28.2C337.775 29.2 339.608 30.4 340.542 31.8V28.2C340.542 26.7333 341.275 26 342.742 26H356.342C357.808 26 358.542 26.7333 358.542 28.2V79.1C358.542 79.7 358.308 80.2333 357.842 80.7C357.442 81.1 356.942 81.3 356.342 81.3H342.742C342.142 81.3 341.608 81.1 341.142 80.7C340.742 80.2333 340.542 79.7333 340.542 79.2V76.3C339.475 77.7 337.708 78.9667 335.242 80.1C332.842 81.2333 330.175 81.8 327.242 81.8C322.708 81.8 318.608 80.7333 314.942 78.6C311.342 76.4667 308.508 73.4 306.442 69.4C304.375 65.3333 303.342 60.5333 303.342 55ZM312.042 39.8C312.042 40.8 312.242 41.8333 312.642 42.9C313.042 43.9667 313.408 44.5 313.742 44.5C314.075 44.5 314.442 43.9667 314.842 42.9C315.242 41.8333 315.442 40.8 315.442 39.8C315.442 38 314.875 37.1 313.742 37.1C312.608 37.1 312.042 38 312.042 39.8ZM320.542 53.9C320.542 57.3 321.275 60 322.742 62C324.208 64 326.342 65 329.142 65C331.008 65 332.808 64.5333 334.542 63.6C336.342 62.6667 337.775 61.3667 338.842 59.7C339.975 57.9667 340.542 56.0333 340.542 53.9C340.542 51.7667 339.975 49.8667 338.842 48.2C337.775 46.4667 336.342 45.1333 334.542 44.2C332.808 43.2667 331.008 42.8 329.142 42.8C326.342 42.8 324.208 43.8 322.742 45.8C321.275 47.8 320.542 50.5 320.542 53.9ZM345.242 32.9C345.242 33.9 345.442 34.9333 345.842 36C346.242 37.0667 346.608 37.6 346.942 37.6C347.275 37.6 347.642 37.0667 348.042 36C348.442 34.9333 348.642 33.9 348.642 32.9C348.642 31.1 348.075 30.2 346.942 30.2C345.808 30.2 345.242 31.1 345.242 32.9ZM408.225 44.6C407.892 44.9333 407.559 45.1 407.225 45.1C406.892 45.1 406.525 44.9667 406.125 44.7C404.459 43.5 402.325 42.9 399.725 42.9C398.525 42.9 397.592 42.9667 396.925 43.1C394.259 43.5 391.859 44.8667 389.725 47.2C387.592 49.4667 386.525 51.9667 386.525 54.7V79.2C386.525 79.7333 386.292 80.2333 385.825 80.7C385.425 81.1 384.925 81.3 384.325 81.3H370.725C370.125 81.3 369.592 81.1 369.125 80.7C368.725 80.2333 368.525 79.7 368.525 79.1V28.2C368.525 26.7333 369.259 26 370.725 26H384.325C385.792 26 386.525 26.7333 386.525 28.2V33.8C387.925 32.1333 389.992 30.6 392.725 29.2C395.459 27.7333 398.059 26.9 400.525 26.7L402.325 26.6C407.992 26.6 412.692 28.7333 416.425 33C416.625 33.2 416.725 33.4667 416.725 33.8C416.725 34.0667 416.592 34.4 416.325 34.8L408.225 44.6ZM373.225 32.9C373.225 33.9 373.425 34.9333 373.825 36C374.225 37.0667 374.592 37.6 374.925 37.6C375.259 37.6 375.625 37.0667 376.025 36C376.425 34.9333 376.625 33.9 376.625 32.9C376.625 31.1 376.059 30.2 374.925 30.2C373.792 30.2 373.225 31.1 373.225 32.9ZM424.125 37.5C424.458 37.5 424.825 36.9667 425.225 35.9C425.625 34.8333 425.825 33.8 425.825 32.8C425.825 31 425.258 30.1 424.125 30.1C422.991 30.1 422.425 31 422.425 32.8C422.425 33.8 422.625 34.8333 423.025 35.9C423.425 36.9667 423.791 37.5 424.125 37.5ZM417.725 28.2C417.725 26.7333 418.458 26 419.925 26H430.725V14.7C430.725 13.2333 431.458 12.5 432.925 12.5H446.525C447.991 12.5 448.725 13.2333 448.725 14.7V26H460.525C461.125 26 461.625 26.2333 462.025 26.7C462.491 27.1 462.725 27.6 462.725 28.2V39.8C462.725 40.4667 462.491 41 462.025 41.4C461.625 41.8 461.125 42 460.525 42H448.725V59.2C448.725 61.5333 449.291 63.1333 450.425 64C451.625 64.8 453.958 65.2 457.425 65.2H461.125C462.458 65.2 463.125 65.8667 463.125 67.2V79.3C463.125 80.6333 462.458 81.3 461.125 81.3L451.925 81.4C445.058 81.4667 439.791 79.8333 436.125 76.5C432.525 73.1 430.725 68.2 430.725 61.8V42H419.925C418.458 42 417.725 41.2667 417.725 39.8V28.2ZM435.425 19.3C435.425 20.3 435.625 21.3333 436.025 22.4C436.425 23.4667 436.791 24 437.125 24C437.458 24 437.825 23.4667 438.225 22.4C438.625 21.3333 438.825 20.3 438.825 19.3C438.825 17.5 438.258 16.6 437.125 16.6C435.991 16.6 435.425 17.5 435.425 19.3ZM467.962 33.9C467.762 33.5667 467.662 33.2333 467.662 32.9C467.662 32.0333 468.062 31.4667 468.862 31.2L481.262 25.3C481.462 25.1667 481.795 25.1 482.262 25.1C483.129 25.1 483.695 25.4667 483.962 26.2L498.762 56.7L511.562 26.8C511.762 26.2667 512.162 25.8667 512.762 25.6C513.362 25.3333 513.929 25.3 514.462 25.5L526.362 30C526.962 30.2 527.395 30.5667 527.662 31.1C527.929 31.6333 527.929 32.1667 527.662 32.7L504.462 84.8C499.462 95.9333 491.195 101.5 479.662 101.5C477.595 101.5 475.662 101.367 473.862 101.1C472.662 100.9 472.062 100.2 472.062 99V88.5C472.062 87.1667 472.762 86.5333 474.162 86.6C480.895 86.8667 485.595 84 488.262 78L489.562 75.1L467.962 33.9ZM475.262 34.9C475.262 35.9 475.462 36.9333 475.862 38C476.262 39.0667 476.629 39.6 476.962 39.6C477.295 39.6 477.662 39.0667 478.062 38C478.462 36.9333 478.662 35.9 478.662 34.9C478.662 33.1 478.095 32.2 476.962 32.2C475.829 32.2 475.262 33.1 475.262 34.9Z" fill="#00FF0A"/>
<path d="M14.7379 78L15.0246 77.5904L14.7379 78ZM4.03789 64.1L3.57471 64.2883L3.57545 64.2901L4.03789 64.1ZM3.83789 21.1L3.37226 20.9178L3.37122 20.9205L3.83789 21.1ZM14.4379 7L14.7246 7.40963L14.7285 7.40687L14.4379 7ZM50.6379 7.2L50.3814 7.62918L50.3835 7.63046L50.6379 7.2ZM64.5379 21.5L64.1017 21.7445L64.105 21.7501L64.5379 21.5ZM63.6379 64.2L63.211 63.9396L63.0076 64.2731L63.2819 64.5511L63.6379 64.2ZM70.9379 71.6L70.5819 71.9511L70.5843 71.9536L70.9379 71.6ZM70.9379 74.7L71.2914 75.0536L70.9379 74.7ZM60.6379 85L60.2843 84.6464L60.6379 85ZM57.5379 85L57.8914 84.6464L57.5379 85ZM50.2379 77.7L50.5914 77.3464L50.3114 77.0664L49.9747 77.2749L50.2379 77.7ZM18.0379 16.7L17.5697 16.8756L18.0379 16.7ZM20.2379 16.7L20.7061 16.8756L20.2379 16.7ZM22.8379 59.1L23.264 58.8384L22.8379 59.1ZM36.8379 64.3L36.9592 64.7851L37.8159 64.5709L37.1915 63.9464L36.8379 64.3ZM29.9379 57.4L29.5432 57.707L29.5623 57.7315L29.5843 57.7536L29.9379 57.4ZM29.9379 54.3L30.2915 54.6536L30.2932 54.6518L29.9379 54.3ZM40.2379 43.9L39.8843 43.5464L39.8826 43.5482L40.2379 43.9ZM43.4379 43.9L43.7942 43.5492L43.7914 43.5464L43.4379 43.9ZM49.7379 50.3L49.3816 50.6508L49.9541 51.2324L50.2122 50.4581L49.7379 50.3ZM48.4379 31.7L48.8869 31.4799L48.4379 31.7ZM41.8379 23.6L41.5379 24L41.5426 24.0035L41.8379 23.6ZM31.4379 82.4C25.0594 82.4 19.5962 80.7905 15.0246 77.5904L14.4512 78.4096C19.2129 81.7429 24.883 83.4 31.4379 83.4V82.4ZM15.0246 77.5904C10.4468 74.3859 6.93582 69.834 4.50034 63.9099L3.57545 64.2901C6.0733 70.366 9.69566 75.0808 14.4512 78.4096L15.0246 77.5904ZM4.50107 63.9117C2.06419 57.9183 0.837891 50.8184 0.837891 42.6H-0.162109C-0.162109 50.9149 1.07827 58.1484 3.57471 64.2883L4.50107 63.9117ZM0.837891 42.6C0.837891 34.3787 1.99834 27.2757 4.30457 21.2795L3.37122 20.9205C1.01077 27.0577 -0.162109 34.2879 -0.162109 42.6H0.837891ZM4.30351 21.2822C6.67336 15.2259 10.1507 10.6113 14.7246 7.40961L14.1512 6.59038C9.39172 9.92199 5.80243 14.7074 3.37227 20.9178L4.30351 21.2822ZM14.7285 7.40687C19.2972 4.14353 24.858 2.5 31.4379 2.5V1.5C24.6845 1.5 18.9119 3.1898 14.1473 6.59313L14.7285 7.40687ZM31.4379 2.5C38.351 2.5 44.6618 4.21057 50.3814 7.62918L50.8944 6.77081C45.014 3.25609 38.5248 1.5 31.4379 1.5V2.5ZM50.3835 7.63046C56.1726 11.0513 60.7439 15.7531 64.1017 21.7444L64.9741 21.2556C61.5319 15.1136 56.8365 10.282 50.8923 6.76953L50.3835 7.63046ZM64.105 21.7501C67.5243 27.6682 69.2379 34.3141 69.2379 41.7H70.2379C70.2379 34.1525 68.4848 27.3318 64.9708 21.2499L64.105 21.7501ZM69.2379 41.7C69.2379 49.9479 67.2266 57.3567 63.211 63.9396L64.0647 64.4604C68.1825 57.71 70.2379 50.1188 70.2379 41.7H69.2379ZM63.2819 64.5511L70.5819 71.9511L71.2938 71.2489L63.9939 63.8489L63.2819 64.5511ZM70.5843 71.9536C71.0793 72.4485 71.2379 72.8278 71.2379 73.1H72.2379C72.2379 72.4389 71.8632 71.8182 71.2914 71.2464L70.5843 71.9536ZM71.2379 73.1C71.2379 73.454 71.0632 73.8676 70.5843 74.3465L71.2914 75.0536C71.8793 74.4657 72.2379 73.8127 72.2379 73.1H71.2379ZM70.5843 74.3464L60.2843 84.6464L60.9914 85.3536L71.2914 75.0536L70.5843 74.3464ZM60.2843 84.6464C59.8055 85.1253 59.3918 85.3 59.0379 85.3V86.3C59.7506 86.3 60.4036 85.9414 60.9914 85.3536L60.2843 84.6464ZM59.0379 85.3C58.7657 85.3 58.3864 85.1414 57.8914 84.6464L57.1843 85.3536C57.7561 85.9253 58.3768 86.3 59.0379 86.3V85.3ZM57.8914 84.6464L50.5914 77.3464L49.8843 78.0536L57.1843 85.3536L57.8914 84.6464ZM49.9747 77.2749C44.458 80.69 38.2834 82.4 31.4379 82.4V83.4C38.4591 83.4 44.8178 81.6434 50.5011 78.1251L49.9747 77.2749ZM16.9379 13.6C16.9379 14.6677 17.1516 15.7605 17.5697 16.8756L18.5061 16.5244C18.1242 15.5062 17.9379 14.5323 17.9379 13.6H16.9379ZM17.5697 16.8756C17.775 17.4228 17.9835 17.867 18.2009 18.1833C18.3954 18.4662 18.7014 18.8 19.1379 18.8V17.8C19.2411 17.8 19.1971 17.8672 19.0249 17.6167C18.8757 17.3996 18.7008 17.0438 18.5061 16.5244L17.5697 16.8756ZM19.1379 18.8C19.5744 18.8 19.8804 18.4662 20.0749 18.1833C20.2923 17.867 20.5008 17.4228 20.7061 16.8756L19.7697 16.5244C19.575 17.0438 19.4001 17.3996 19.2509 17.6167C19.0787 17.8672 19.0347 17.8 19.1379 17.8V18.8ZM20.7061 16.8756C21.1242 15.7605 21.3379 14.6677 21.3379 13.6H20.3379C20.3379 14.5323 20.1516 15.5062 19.7697 16.5244L20.7061 16.8756ZM21.3379 13.6C21.3379 12.6637 21.1934 11.8762 20.836 11.3086C20.4541 10.7021 19.8628 10.4 19.1379 10.4V11.4C19.5463 11.4 19.805 11.5479 19.9898 11.8414C20.199 12.1737 20.3379 12.7363 20.3379 13.6H21.3379ZM19.1379 10.4C18.413 10.4 17.8217 10.7021 17.4398 11.3086C17.0824 11.8762 16.9379 12.6637 16.9379 13.6H17.9379C17.9379 12.7363 18.0768 12.1737 18.286 11.8414C18.4708 11.5479 18.7295 11.4 19.1379 11.4V10.4ZM18.8379 42.7C18.8379 49.8755 20.0093 55.449 22.4118 59.3616L23.264 58.8384C20.9998 55.151 19.8379 49.7912 19.8379 42.7H18.8379ZM22.4118 59.3616C24.8411 63.3179 28.5072 65.3 33.3379 65.3V64.3C28.8352 64.3 25.5013 62.4821 23.264 58.8384L22.4118 59.3616ZM33.3379 65.3C34.3908 65.3 35.5998 65.1249 36.9592 64.7851L36.7166 63.8149C35.4093 64.1418 34.285 64.3 33.3379 64.3V65.3ZM37.1915 63.9464L30.2914 57.0464L29.5843 57.7536L36.4843 64.6535L37.1915 63.9464ZM30.3326 57.093C29.8945 56.5299 29.7379 56.1047 29.7379 55.8H28.7379C28.7379 56.4286 29.0479 57.0701 29.5432 57.707L30.3326 57.093ZM29.7379 55.8C29.7379 55.4293 29.895 55.05 30.2914 54.6535L29.5843 53.9464C29.0475 54.4833 28.7379 55.104 28.7379 55.8H29.7379ZM30.2932 54.6518L40.5932 44.2518L39.8826 43.5482L29.5826 53.9482L30.2932 54.6518ZM40.5914 44.2536C40.9746 43.8704 41.3844 43.7 41.8379 43.7V42.7C41.0914 42.7 40.4345 42.9963 39.8843 43.5464L40.5914 44.2536ZM41.8379 43.7C42.2914 43.7 42.7011 43.8704 43.0843 44.2536L43.7914 43.5464C43.2413 42.9963 42.5844 42.7 41.8379 42.7V43.7ZM43.0816 44.2508L49.3816 50.6508L50.0942 49.9492L43.7942 43.5492L43.0816 44.2508ZM50.2122 50.4581C51.0297 48.0057 51.4379 45.4522 51.4379 42.8H50.4379C50.4379 45.3478 50.0461 47.7943 49.2635 50.1419L50.2122 50.4581ZM51.4379 42.8C51.4379 38.7281 50.589 34.9523 48.8869 31.4799L47.9889 31.9201C49.6201 35.2477 50.4379 38.8719 50.4379 42.8H51.4379ZM48.8869 31.4799C47.1888 28.0159 44.9392 25.2497 42.1331 23.1965L41.5426 24.0035C44.2032 25.9503 46.3536 28.5841 47.9889 31.9201L48.8869 31.4799ZM42.1379 23.2C39.3948 21.1427 36.4581 20.1 33.3379 20.1V21.1C36.2177 21.1 38.9476 22.0573 41.5379 24L42.1379 23.2ZM33.3379 20.1C28.5144 20.1 24.848 22.0176 22.4155 25.8574C20.0074 29.6587 18.8379 35.2967 18.8379 42.7H19.8379C19.8379 35.37 21.0017 29.9579 23.2603 26.3926C25.4944 22.8658 28.8281 21.1 33.3379 21.1V20.1ZM118.435 26.7L118.081 26.3464H118.081L118.435 26.7ZM135.135 26.7L134.755 27.0254L134.78 27.0546L134.809 27.0796L135.135 26.7ZM117.835 75.5H118.335V74.0352L117.439 75.1943L117.835 75.5ZM112.235 79.2L112.404 79.6707L112.414 79.6667L112.235 79.2ZM86.4348 73.1L86.0392 73.4059L86.4348 73.1ZM111.835 63.1L111.605 62.6561L111.598 62.6598L111.835 63.1ZM116.135 59.2L115.716 58.9264L115.714 58.9305L116.135 59.2ZM85.9348 36L86.4029 35.8244L85.9348 36ZM88.1348 36L87.6666 35.8244L88.1348 36ZM125.335 36L124.867 35.8244L125.335 36ZM118.335 28.1C118.335 27.7079 118.476 27.3661 118.788 27.0535L118.081 26.3464C117.594 26.8339 117.335 27.4254 117.335 28.1H118.335ZM118.788 27.0536C119.172 26.6704 119.581 26.5 120.035 26.5V25.5C119.288 25.5 118.631 25.7963 118.081 26.3464L118.788 27.0536ZM120.035 26.5H133.635V25.5H120.035V26.5ZM133.635 26.5C134.085 26.5 134.447 26.6664 134.755 27.0254L135.514 26.3746C135.022 25.8002 134.385 25.5 133.635 25.5V26.5ZM134.809 27.0796C135.168 27.3873 135.335 27.75 135.335 28.2H136.335C136.335 27.45 136.035 26.8127 135.46 26.3204L134.809 27.0796ZM135.335 28.2V79.1H136.335V28.2H135.335ZM135.335 79.1C135.335 79.7563 135.171 80.1566 134.931 80.3964C134.691 80.6363 134.291 80.8 133.635 80.8V81.8C134.445 81.8 135.145 81.5971 135.638 81.1036C136.132 80.61 136.335 79.9104 136.335 79.1H135.335ZM133.635 80.8H120.035V81.8H133.635V80.8ZM120.035 80.8C119.379 80.8 118.978 80.6363 118.738 80.3964C118.498 80.1566 118.335 79.7563 118.335 79.1H117.335C117.335 79.9104 117.538 80.61 118.031 81.1036C118.525 81.5971 119.224 81.8 120.035 81.8V80.8ZM118.335 79.1V75.5H117.335V79.1H118.335ZM117.439 75.1943C116.383 76.5609 114.61 77.7508 112.055 78.7333L112.414 79.6667C115.06 78.6492 117.02 77.3725 118.23 75.8057L117.439 75.1943ZM112.066 78.7294C109.525 79.6417 106.782 80.1 103.835 80.1V81.1C106.887 81.1 109.745 80.625 112.404 79.6706L112.066 78.7294ZM103.835 80.1C96.2178 80.1 90.581 77.6442 86.8303 72.7941L86.0392 73.4059C90.0219 78.5558 95.9851 81.1 103.835 81.1V80.1ZM86.8303 72.7941C83.0552 67.9126 81.1348 61.0026 81.1348 52H80.1348C80.1348 61.1307 82.081 68.2874 86.0392 73.4059L86.8303 72.7941ZM81.1348 52V28H80.1348V52H81.1348ZM81.1348 28C81.1348 27.4104 81.2818 27.06 81.4883 26.8536C81.6948 26.6471 82.0452 26.5 82.6348 26.5V25.5C81.891 25.5 81.2414 25.6863 80.7812 26.1464C80.321 26.6066 80.1348 27.2563 80.1348 28H81.1348ZM82.6348 26.5H96.5348V25.5H82.6348V26.5ZM96.5348 26.5C97.1244 26.5 97.4747 26.6471 97.6812 26.8536C97.8877 27.06 98.0348 27.4104 98.0348 28H99.0348C99.0348 27.2563 98.8485 26.6066 98.3883 26.1464C97.9281 25.6863 97.2785 25.5 96.5348 25.5V26.5ZM98.0348 28V53.4H99.0348V28H98.0348ZM98.0348 53.4C98.0348 57.1442 98.6982 60.042 100.102 62.0149C101.529 64.0191 103.669 65 106.435 65V64C103.934 64 102.124 63.1308 100.917 61.4351C99.688 59.708 99.0348 57.0558 99.0348 53.4H98.0348ZM106.435 65C108.389 65 110.27 64.5106 112.072 63.5402L111.598 62.6598C109.933 63.5561 108.214 64 106.435 64V65ZM112.065 63.5439C113.941 62.5712 115.441 61.2119 116.556 59.4695L115.714 58.9305C114.695 60.5214 113.329 61.7621 111.605 62.6561L112.065 63.5439ZM116.553 59.4736C117.741 57.6564 118.335 55.6274 118.335 53.4H117.335C117.335 55.4392 116.795 57.2769 115.716 58.9264L116.553 59.4736ZM118.335 53.4V28.1H117.335V53.4H118.335ZM84.8348 32.9C84.8348 33.9677 85.0484 35.0605 85.4666 36.1756L86.4029 35.8244C86.0211 34.8062 85.8348 33.8323 85.8348 32.9H84.8348ZM85.4666 36.1756C85.6718 36.7228 85.8803 37.167 86.0977 37.4833C86.2922 37.7662 86.5983 38.1 87.0348 38.1V37.1C87.138 37.1 87.094 37.1672 86.9218 36.9167C86.7725 36.6996 86.5977 36.3438 86.4029 35.8244L85.4666 36.1756ZM87.0348 38.1C87.4713 38.1 87.7773 37.7662 87.9718 37.4833C88.1892 37.167 88.3977 36.7228 88.6029 36.1756L87.6666 35.8244C87.4718 36.3438 87.297 36.6996 87.1478 36.9167C86.9756 37.1672 86.9316 37.1 87.0348 37.1V38.1ZM88.6029 36.1756C89.0211 35.0605 89.2348 33.9677 89.2348 32.9H88.2348C88.2348 33.8323 88.0484 34.8062 87.6666 35.8244L88.6029 36.1756ZM89.2348 32.9C89.2348 31.9637 89.0903 31.1763 88.7329 30.6086C88.351 30.0021 87.7597 29.7 87.0348 29.7V30.7C87.4432 30.7 87.7019 30.8479 87.8867 31.1414C88.0959 31.4737 88.2348 32.0363 88.2348 32.9H89.2348ZM87.0348 29.7C86.3099 29.7 85.7185 30.0021 85.3367 30.6086C84.9792 31.1763 84.8348 31.9637 84.8348 32.9H85.8348C85.8348 32.0363 85.9736 31.4737 86.1829 31.1414C86.3677 30.8479 86.6263 30.7 87.0348 30.7V29.7ZM122.035 32.9C122.035 33.9677 122.248 35.0605 122.667 36.1756L123.603 35.8244C123.221 34.8062 123.035 33.8323 123.035 32.9H122.035ZM122.667 36.1756C122.872 36.7228 123.08 37.167 123.298 37.4833C123.492 37.7662 123.798 38.1 124.235 38.1V37.1C124.338 37.1 124.294 37.1672 124.122 36.9167C123.973 36.6996 123.798 36.3438 123.603 35.8244L122.667 36.1756ZM124.235 38.1C124.671 38.1 124.977 37.7662 125.172 37.4833C125.389 37.167 125.598 36.7228 125.803 36.1756L124.867 35.8244C124.672 36.3438 124.497 36.6996 124.348 36.9167C124.176 37.1672 124.132 37.1 124.235 37.1V38.1ZM125.803 36.1756C126.221 35.0605 126.435 33.9677 126.435 32.9H125.435C125.435 33.8323 125.248 34.8062 124.867 35.8244L125.803 36.1756ZM126.435 32.9C126.435 31.9637 126.29 31.1763 125.933 30.6086C125.551 30.0021 124.96 29.7 124.235 29.7V30.7C124.643 30.7 124.902 30.8479 125.087 31.1414C125.296 31.4737 125.435 32.0363 125.435 32.9H126.435ZM124.235 29.7C123.51 29.7 122.919 30.0021 122.537 30.6086C122.179 31.1763 122.035 31.9637 122.035 32.9H123.035C123.035 32.0363 123.174 31.4737 123.383 31.1414C123.568 30.8479 123.826 30.7 124.235 30.7V29.7ZM148.169 80.7L147.79 81.0254L147.815 81.0546L147.844 81.0796L148.169 80.7ZM164.869 80.7L164.516 80.3464L164.869 80.7ZM148.269 3.2L147.895 2.86781L148.269 3.2ZM160.469 1.79999L160.259 2.25354L160.265 2.25625L160.469 1.79999ZM165.269 5.3L165.648 4.97319L165.269 5.3ZM165.269 14.7L165.64 15.0355L165.648 15.0268L165.269 14.7ZM160.469 18.1L160.265 17.6437L160.259 17.6465L160.469 18.1ZM148.269 16.8L147.895 17.1322L147.902 17.1391L148.269 16.8ZM152.869 10.6L153.324 10.3931L152.869 10.6ZM155.069 10.6L154.614 10.3931L155.069 10.6ZM155.069 6.89999L154.653 7.17735L154.681 7.21854L154.716 7.25355L155.069 6.89999ZM152.769 6.89999L152.385 6.57984L152.379 6.58765L152.769 6.89999ZM149.769 80.8C149.292 80.8 148.873 80.6448 148.495 80.3204L147.844 81.0796C148.399 81.5552 149.047 81.8 149.769 81.8V80.8ZM148.549 80.3746C148.224 79.9961 148.069 79.5775 148.069 79.1H147.069C147.069 79.8225 147.314 80.4705 147.79 81.0254L148.549 80.3746ZM148.069 79.1V28.2H147.069V79.1H148.069ZM148.069 28.2C148.069 27.5437 148.233 27.1434 148.473 26.9036C148.713 26.6637 149.113 26.5 149.769 26.5V25.5C148.959 25.5 148.259 25.7029 147.766 26.1964C147.272 26.69 147.069 27.3896 147.069 28.2H148.069ZM149.769 26.5H163.369V25.5H149.769V26.5ZM163.369 26.5C164.025 26.5 164.426 26.6637 164.666 26.9036C164.905 27.1434 165.069 27.5437 165.069 28.2H166.069C166.069 27.3896 165.866 26.69 165.373 26.1964C164.879 25.7029 164.18 25.5 163.369 25.5V26.5ZM165.069 28.2V79.1H166.069V28.2H165.069ZM165.069 79.1C165.069 79.5535 164.899 79.9632 164.516 80.3464L165.223 81.0536C165.773 80.5034 166.069 79.8465 166.069 79.1H165.069ZM164.516 80.3464C164.215 80.6465 163.845 80.8 163.369 80.8V81.8C164.093 81.8 164.723 81.5535 165.223 81.0536L164.516 80.3464ZM163.369 80.8H149.769V81.8H163.369V80.8ZM146.369 10C146.369 7.37144 147.135 5.22825 148.643 3.53218L147.895 2.86781C146.203 4.77174 145.369 7.16188 145.369 10H146.369ZM148.643 3.53218C150.13 1.85929 152.216 0.999993 154.969 0.999993V-6.67572e-06C151.989 -6.67572e-06 149.608 0.940696 147.895 2.86781L148.643 3.53218ZM154.969 0.999993C156.687 0.999993 158.448 1.41307 160.259 2.2535L160.68 1.34649C158.757 0.453583 156.852 -6.67572e-06 154.969 -6.67572e-06V0.999993ZM160.265 2.25625C162.138 3.09583 163.676 4.22048 164.891 5.62681L165.648 4.97319C164.329 3.44617 162.667 2.2375 160.674 1.34374L160.265 2.25625ZM164.891 5.62681C166.092 7.01829 166.669 8.47249 166.669 10H167.669C167.669 8.19418 166.979 6.51504 165.648 4.97319L164.891 5.62681ZM166.669 10C166.669 11.5275 166.092 12.9817 164.891 14.3732L165.648 15.0268C166.979 13.485 167.669 11.8058 167.669 10H166.669ZM164.898 14.3645C163.684 15.7073 162.142 16.8019 160.265 17.6437L160.674 18.5563C162.662 17.6647 164.321 16.4927 165.64 15.0355L164.898 14.3645ZM160.259 17.6465C158.448 18.4869 156.687 18.9 154.969 18.9V19.9C156.852 19.9 158.757 19.4464 160.68 18.5535L160.259 17.6465ZM154.969 18.9C152.21 18.9 150.122 18.07 148.637 16.4609L147.902 17.1391C149.616 18.9966 151.995 19.9 154.969 19.9V18.9ZM148.643 16.4678C147.135 14.7717 146.369 12.6286 146.369 10H145.369C145.369 12.8381 146.203 15.2283 147.895 17.1322L148.643 16.4678ZM151.769 32.9C151.769 33.9677 151.983 35.0605 152.401 36.1756L153.337 35.8244C152.955 34.8062 152.769 33.8323 152.769 32.9H151.769ZM152.401 36.1756C152.606 36.7228 152.815 37.167 153.032 37.4833C153.227 37.7662 153.533 38.1 153.969 38.1V37.1C154.072 37.1 154.028 37.1672 153.856 36.9167C153.707 36.6996 153.532 36.3438 153.337 35.8244L152.401 36.1756ZM153.969 38.1C154.406 38.1 154.712 37.7662 154.906 37.4833C155.124 37.167 155.332 36.7228 155.537 36.1756L154.601 35.8244C154.406 36.3438 154.231 36.6996 154.082 36.9167C153.91 37.1672 153.866 37.1 153.969 37.1V38.1ZM155.537 36.1756C155.955 35.0605 156.169 33.9677 156.169 32.9H155.169C155.169 33.8323 154.983 34.8062 154.601 35.8244L155.537 36.1756ZM156.169 32.9C156.169 31.9637 156.025 31.1763 155.667 30.6086C155.285 30.0021 154.694 29.7 153.969 29.7V30.7C154.378 30.7 154.636 30.8479 154.821 31.1414C155.03 31.4737 155.169 32.0363 155.169 32.9H156.169ZM153.969 29.7C153.244 29.7 152.653 30.0021 152.271 30.6086C151.914 31.1763 151.769 31.9637 151.769 32.9H152.769C152.769 32.0363 152.908 31.4737 153.117 31.1414C153.302 30.8479 153.561 30.7 153.969 30.7V29.7ZM151.869 8.4C151.869 9.21148 152.054 10.015 152.414 10.8069L153.324 10.3931C153.018 9.71828 152.869 9.05519 152.869 8.4H151.869ZM152.414 10.8069C152.593 11.2013 152.798 11.536 153.041 11.7785C153.289 12.0267 153.6 12.2 153.969 12.2V11.2C153.938 11.2 153.866 11.19 153.748 11.0714C153.624 10.9473 153.478 10.732 153.324 10.3931L152.414 10.8069ZM153.969 12.2C154.338 12.2 154.65 12.0267 154.898 11.7785C155.14 11.536 155.345 11.2013 155.524 10.8069L154.614 10.3931C154.46 10.732 154.315 10.9473 154.191 11.0714C154.072 11.19 154 11.2 153.969 11.2V12.2ZM155.524 10.8069C155.884 10.015 156.069 9.21148 156.069 8.4H155.069C155.069 9.05519 154.921 9.71828 154.614 10.3931L155.524 10.8069ZM156.069 8.4C156.069 7.65626 155.883 7.00661 155.423 6.54644L154.716 7.25355C154.922 7.46004 155.069 7.8104 155.069 8.4H156.069ZM155.485 6.62264C155.129 6.08858 154.609 5.8 153.969 5.8V6.8C154.263 6.8 154.476 6.91141 154.653 7.17735L155.485 6.62264ZM153.969 5.8C153.336 5.8 152.801 6.08079 152.385 6.5799L153.153 7.22009C153.404 6.9192 153.669 6.8 153.969 6.8V5.8ZM152.379 6.58765C152.011 7.04731 151.869 7.67991 151.869 8.4H152.869C152.869 7.78675 152.994 7.41934 153.16 7.21234L152.379 6.58765ZM185.517 35.9L185.049 35.7244L185.517 35.9ZM183.317 35.9L183.785 35.7244L183.317 35.9ZM178.817 66.2L179.17 66.5536L179.177 66.5468L178.817 66.2ZM202.117 42L202.477 42.3468L203.292 41.5H202.117V42ZM224.517 26.7L224.137 27.0254L224.162 27.0546L224.191 27.0796L224.517 26.7ZM223.817 41.7L223.463 41.3463L223.455 41.355L223.817 41.7ZM201.317 65.3L200.955 64.955L200.149 65.8H201.317V65.3ZM226.517 66L226.137 66.3254L226.162 66.3546L226.191 66.3796L226.517 66ZM226.517 80.7L226.191 80.3204L226.177 80.3329L226.163 80.3464L226.517 80.7ZM184.417 38C184.853 38 185.159 37.6661 185.354 37.3833C185.571 37.067 185.78 36.6228 185.985 36.0756L185.049 35.7244C184.854 36.2438 184.679 36.5996 184.53 36.8167C184.358 37.0672 184.314 37 184.417 37V38ZM185.985 36.0756C186.403 34.9605 186.617 33.8677 186.617 32.8H185.617C185.617 33.7323 185.43 34.7062 185.049 35.7244L185.985 36.0756ZM186.617 32.8C186.617 31.8637 186.472 31.0763 186.115 30.5086C185.733 29.9021 185.142 29.6 184.417 29.6V30.6C184.825 30.6 185.084 30.7479 185.269 31.0414C185.478 31.3737 185.617 31.9363 185.617 32.8H186.617ZM184.417 29.6C183.692 29.6 183.101 29.9021 182.719 30.5086C182.361 31.0763 182.217 31.8637 182.217 32.8H183.217C183.217 31.9363 183.356 31.3737 183.565 31.0414C183.75 30.7479 184.008 30.6 184.417 30.6V29.6ZM182.217 32.8C182.217 33.8677 182.43 34.9605 182.849 36.0756L183.785 35.7244C183.403 34.7062 183.217 33.7323 183.217 32.8H182.217ZM182.849 36.0756C183.054 36.6228 183.262 37.067 183.48 37.3833C183.674 37.6661 183.98 38 184.417 38V37C184.52 37 184.476 37.0672 184.304 36.8167C184.155 36.5996 183.98 36.2438 183.785 35.7244L182.849 36.0756ZM177.717 69.5C177.717 68.5386 178.165 67.5585 179.17 66.5536L178.463 65.8464C177.335 66.9748 176.717 68.1947 176.717 69.5H177.717ZM179.177 66.5468L202.477 42.3468L201.757 41.6532L178.457 65.8532L179.177 66.5468ZM202.117 41.5H180.217V42.5H202.117V41.5ZM180.217 41.5C179.561 41.5 179.16 41.3363 178.92 41.0964C178.681 40.8566 178.517 40.4563 178.517 39.8H177.517C177.517 40.6104 177.72 41.31 178.213 41.8036C178.707 42.2971 179.406 42.5 180.217 42.5V41.5ZM178.517 39.8V28.2H177.517V39.8H178.517ZM178.517 28.2C178.517 27.5437 178.681 27.1434 178.92 26.9036C179.16 26.6637 179.561 26.5 180.217 26.5V25.5C179.406 25.5 178.707 25.7029 178.213 26.1964C177.72 26.69 177.517 27.3896 177.517 28.2H178.517ZM180.217 26.5H223.017V25.5H180.217V26.5ZM223.017 26.5C223.467 26.5 223.829 26.6664 224.137 27.0254L224.896 26.3746C224.404 25.8002 223.767 25.5 223.017 25.5V26.5ZM224.191 27.0796C224.55 27.3873 224.717 27.75 224.717 28.2H225.717C225.717 27.45 225.417 26.8127 224.842 26.3204L224.191 27.0796ZM224.717 28.2V38.7H225.717V28.2H224.717ZM224.717 38.7C224.717 39.604 224.326 40.4833 223.463 41.3464L224.17 42.0536C225.174 41.05 225.717 39.9293 225.717 38.7H224.717ZM223.455 41.355L200.955 64.955L201.679 65.645L224.179 42.045L223.455 41.355ZM201.317 65.8H225.017V64.8H201.317V65.8ZM225.017 65.8C225.467 65.8 225.829 65.9664 226.137 66.3254L226.896 65.6746C226.404 65.1002 225.767 64.8 225.017 64.8V65.8ZM226.191 66.3796C226.55 66.6873 226.717 67.05 226.717 67.5H227.717C227.717 66.75 227.417 66.1127 226.842 65.6204L226.191 66.3796ZM226.717 67.5V79.1H227.717V67.5H226.717ZM226.717 79.1C226.717 79.6347 226.537 80.0241 226.191 80.3204L226.842 81.0796C227.43 80.5759 227.717 79.8987 227.717 79.1H226.717ZM226.163 80.3464C225.863 80.6465 225.493 80.8 225.017 80.8V81.8C225.74 81.8 226.37 81.5535 226.87 81.0536L226.163 80.3464ZM225.017 80.8H179.417V81.8H225.017V80.8ZM179.417 80.8C178.761 80.8 178.36 80.6363 178.12 80.3964C177.881 80.1566 177.717 79.7563 177.717 79.1H176.717C176.717 79.9104 176.92 80.61 177.413 81.1036C177.907 81.5971 178.606 81.8 179.417 81.8V80.8ZM177.717 79.1V69.5H176.717V79.1H177.717ZM238.778 80.7L238.398 81.0254L238.423 81.0546L238.452 81.0796L238.778 80.7ZM287.778 10.4L287.484 10.8046L287.486 10.806L287.778 10.4ZM287.278 50.5L286.985 50.0948L286.983 50.0962L287.278 50.5ZM257.178 58.2L257.168 57.7001L256.678 57.7098V58.2H257.178ZM256.478 80.7L256.831 81.0536L256.478 80.7ZM243.478 13.5L243.01 13.6756L243.478 13.5ZM245.678 13.5L246.146 13.6756L245.678 13.5ZM257.178 41H256.678V41.3904L257.056 41.4851L257.178 41ZM273.278 38.4L273.02 37.9712V37.9713L273.278 38.4ZM273.378 23.7L273.123 24.1305L273.378 23.7ZM257.178 21.1V20.6H256.678V21.1H257.178ZM240.378 80.8C239.9 80.8 239.482 80.6448 239.103 80.3204L238.452 81.0796C239.007 81.5552 239.655 81.8 240.378 81.8V80.8ZM239.157 80.3746C238.833 79.9961 238.678 79.5775 238.678 79.1H237.678C237.678 79.8225 237.923 80.4705 238.398 81.0254L239.157 80.3746ZM238.678 79.1V5.7H237.678V79.1H238.678ZM238.678 5.7C238.678 5.04374 238.841 4.64338 239.081 4.40355C239.321 4.16372 239.721 4 240.378 4V3C239.567 3 238.868 3.20294 238.374 3.69644C237.881 4.18995 237.678 4.88959 237.678 5.7H238.678ZM240.378 4H257.678V3H240.378V4ZM257.678 4C271.376 4 281.279 6.2981 287.484 10.8045L288.072 9.99545C281.609 5.30189 271.446 3 257.678 3V4ZM287.486 10.806C293.737 15.2993 296.878 21.871 296.878 30.6H297.878C297.878 21.5956 294.618 14.7007 288.07 9.99399L287.486 10.806ZM296.878 30.6C296.878 38.8416 293.586 45.3233 286.985 50.0948L287.571 50.9052C294.436 45.9433 297.878 39.1584 297.878 30.6H296.878ZM286.983 50.0962C280.436 54.8752 270.524 57.4343 257.168 57.7001L257.188 58.6999C270.632 58.4324 280.786 55.8581 287.573 50.9038L286.983 50.0962ZM256.678 58.2V79.1H257.678V58.2H256.678ZM256.678 79.1C256.678 79.5535 256.507 79.9632 256.124 80.3465L256.831 81.0536C257.381 80.5034 257.678 79.8465 257.678 79.1H256.678ZM256.124 80.3464C255.824 80.6465 255.454 80.8 254.978 80.8V81.8C255.701 81.8 256.331 81.5535 256.831 81.0536L256.124 80.3464ZM254.978 80.8H240.378V81.8H254.978V80.8ZM242.378 10.4C242.378 11.4677 242.591 12.5605 243.01 13.6756L243.946 13.3244C243.564 12.3062 243.378 11.3323 243.378 10.4H242.378ZM243.01 13.6756C243.215 14.2228 243.423 14.667 243.641 14.9833C243.835 15.2662 244.141 15.6 244.578 15.6V14.6C244.681 14.6 244.637 14.6672 244.465 14.4167C244.315 14.1996 244.141 13.8438 243.946 13.3244L243.01 13.6756ZM244.578 15.6C245.014 15.6 245.32 15.2662 245.515 14.9833C245.732 14.667 245.941 14.2228 246.146 13.6756L245.21 13.3244C245.015 13.8438 244.84 14.1996 244.691 14.4167C244.519 14.6672 244.475 14.6 244.578 14.6V15.6ZM246.146 13.6756C246.564 12.5605 246.778 11.4677 246.778 10.4H245.778C245.778 11.3323 245.591 12.3062 245.21 13.3244L246.146 13.6756ZM246.778 10.4C246.778 9.46368 246.633 8.67625 246.276 8.10859C245.894 7.50208 245.303 7.2 244.578 7.2V8.2C244.986 8.2 245.245 8.34791 245.43 8.6414C245.639 8.97374 245.778 9.53632 245.778 10.4H246.778ZM244.578 7.2C243.853 7.2 243.262 7.50208 242.88 8.10859C242.522 8.67625 242.378 9.46368 242.378 10.4H243.378C243.378 9.53632 243.517 8.97374 243.726 8.6414C243.911 8.34791 244.169 8.2 244.578 8.2V7.2ZM257.056 41.4851C257.381 41.5662 257.794 41.6 258.278 41.6V40.6C257.828 40.6 257.508 40.5672 257.299 40.5149L257.056 41.4851ZM258.278 41.6C265.294 41.6 270.412 40.7027 273.535 38.8287L273.02 37.9713C270.144 39.6973 265.261 40.6 258.278 40.6V41.6ZM273.535 38.8287C276.652 36.9588 278.278 34.4454 278.278 31.3H277.278C277.278 34.0213 275.904 36.2412 273.02 37.9712L273.535 38.8287ZM278.278 31.3C278.278 27.7851 276.714 25.0904 273.632 23.2695L273.123 24.1305C275.909 25.7763 277.278 28.1483 277.278 31.3H278.278ZM273.632 23.2695C270.575 21.4628 265.422 20.6 258.278 20.6V21.6C265.4 21.6 270.314 22.4705 273.123 24.1305L273.632 23.2695ZM258.278 20.6H257.178V21.6H258.278V20.6ZM256.678 21.1V41H257.678V21.1H256.678ZM309.142 34.2L308.749 33.8909L308.748 33.8916L309.142 34.2ZM335.042 28.2L334.866 28.6682L334.87 28.6696L335.042 28.2ZM340.542 31.8L340.126 32.0774L341.042 33.4514V31.8H340.542ZM357.842 80.7L358.195 81.0536V81.0536L357.842 80.7ZM341.142 80.7L340.762 81.0254L340.787 81.0546L340.816 81.0796L341.142 80.7ZM340.542 76.3H341.042V74.8187L340.144 75.997L340.542 76.3ZM335.242 80.1L335.033 79.6456L335.028 79.6479L335.242 80.1ZM314.942 78.6L314.687 79.0302L314.69 79.0322L314.942 78.6ZM306.442 69.4L305.996 69.6265L305.998 69.6295L306.442 69.4ZM312.642 42.9L312.174 43.0756L312.642 42.9ZM334.542 63.6L334.312 63.1561L334.305 63.1598L334.542 63.6ZM338.842 59.7L338.423 59.4264L338.421 59.4305L338.842 59.7ZM338.842 48.2L338.416 48.462L338.422 48.4717L338.428 48.4812L338.842 48.2ZM334.542 44.2L334.305 44.6403L334.312 44.6439L334.542 44.2ZM345.842 36L345.374 36.1756L345.842 36ZM348.042 36L348.51 36.1756L348.042 36ZM303.842 55C303.842 46.1322 305.762 39.3232 309.535 34.5084L308.748 33.8916C304.789 38.9435 302.842 46.0012 302.842 55H303.842ZM309.535 34.5091C313.354 29.6547 318.993 27.2 326.542 27.2V26.2C318.757 26.2 312.797 28.7453 308.749 33.8909L309.535 34.5091ZM326.542 27.2C329.485 27.2 332.259 27.6903 334.866 28.6682L335.217 27.7318C332.492 26.7097 329.599 26.2 326.542 26.2V27.2ZM334.87 28.6696C337.569 29.6568 339.281 30.8098 340.126 32.0774L340.958 31.5226C339.936 29.9902 337.982 28.7431 335.214 27.7304L334.87 28.6696ZM341.042 31.8V28.2H340.042V31.8H341.042ZM341.042 28.2C341.042 27.5437 341.206 27.1434 341.445 26.9036C341.685 26.6637 342.086 26.5 342.742 26.5V25.5C341.931 25.5 341.232 25.7029 340.738 26.1964C340.245 26.69 340.042 27.3896 340.042 28.2H341.042ZM342.742 26.5H356.342V25.5H342.742V26.5ZM356.342 26.5C356.998 26.5 357.398 26.6637 357.638 26.9036C357.878 27.1434 358.042 27.5437 358.042 28.2H359.042C359.042 27.3896 358.839 26.69 358.345 26.1964C357.852 25.7029 357.152 25.5 356.342 25.5V26.5ZM358.042 28.2V79.1H359.042V28.2H358.042ZM358.042 79.1C358.042 79.5535 357.871 79.9632 357.488 80.3465L358.195 81.0536C358.745 80.5034 359.042 79.8465 359.042 79.1H358.042ZM357.488 80.3464C357.188 80.6465 356.818 80.8 356.342 80.8V81.8C357.065 81.8 357.695 81.5535 358.195 81.0536L357.488 80.3464ZM356.342 80.8H342.742V81.8H356.342V80.8ZM342.742 80.8C342.264 80.8 341.846 80.6448 341.467 80.3204L340.816 81.0796C341.371 81.5552 342.019 81.8 342.742 81.8V80.8ZM341.521 80.3746C341.187 79.9839 341.042 79.596 341.042 79.2H340.042C340.042 79.8706 340.297 80.4827 340.762 81.0254L341.521 80.3746ZM341.042 79.2V76.3H340.042V79.2H341.042ZM340.144 75.997C339.147 77.3059 337.462 78.5297 335.033 79.6457L335.451 80.5543C337.955 79.4037 339.803 78.0941 340.94 76.603L340.144 75.997ZM335.028 79.6479C332.702 80.7465 330.109 81.3 327.242 81.3V82.3C330.241 82.3 332.982 81.7202 335.455 80.5521L335.028 79.6479ZM327.242 81.3C322.791 81.3 318.778 80.2537 315.193 78.1678L314.69 79.0322C318.439 81.213 322.626 82.3 327.242 82.3V81.3ZM315.197 78.1699C311.684 76.088 308.913 73.0938 306.886 69.1705L305.998 69.6295C308.104 73.7062 311 76.8454 314.687 79.0301L315.197 78.1699ZM306.888 69.1735C304.863 65.1904 303.842 60.4712 303.842 55H302.842C302.842 60.5955 303.887 65.4763 305.996 69.6265L306.888 69.1735ZM311.542 39.8C311.542 40.8677 311.755 41.9605 312.174 43.0756L313.11 42.7244C312.728 41.7062 312.542 40.7323 312.542 39.8H311.542ZM312.174 43.0756C312.379 43.6228 312.587 44.067 312.805 44.3833C312.999 44.6662 313.305 45 313.742 45V44C313.845 44 313.801 44.0672 313.629 43.8167C313.48 43.5996 313.305 43.2438 313.11 42.7244L312.174 43.0756ZM313.742 45C314.178 45 314.484 44.6662 314.679 44.3833C314.896 44.067 315.105 43.6228 315.31 43.0756L314.374 42.7244C314.179 43.2438 314.004 43.5996 313.855 43.8167C313.683 44.0672 313.639 44 313.742 44V45ZM315.31 43.0756C315.728 41.9605 315.942 40.8677 315.942 39.8H314.942C314.942 40.7323 314.755 41.7062 314.374 42.7244L315.31 43.0756ZM315.942 39.8C315.942 38.8637 315.797 38.0763 315.44 37.5086C315.058 36.9021 314.467 36.6 313.742 36.6V37.6C314.15 37.6 314.409 37.7479 314.594 38.0414C314.803 38.3737 314.942 38.9363 314.942 39.8H315.942ZM313.742 36.6C313.017 36.6 312.426 36.9021 312.044 37.5086C311.686 38.0763 311.542 38.8637 311.542 39.8H312.542C312.542 38.9363 312.681 38.3737 312.89 38.0414C313.075 37.7479 313.333 37.6 313.742 37.6V36.6ZM320.042 53.9C320.042 57.3677 320.789 60.1833 322.339 62.2957L323.145 61.7043C321.761 59.8167 321.042 57.2323 321.042 53.9H320.042ZM322.339 62.2957C323.913 64.442 326.206 65.5 329.142 65.5V64.5C326.477 64.5 324.504 63.5579 323.145 61.7043L322.339 62.2957ZM329.142 65.5C331.096 65.5 332.977 65.0106 334.779 64.0402L334.305 63.1598C332.64 64.0561 330.921 64.5 329.142 64.5V65.5ZM334.772 64.0439C336.648 63.0712 338.148 61.7119 339.263 59.9695L338.421 59.4305C337.402 61.0214 336.036 62.2621 334.312 63.1561L334.772 64.0439ZM339.26 59.9736C340.448 58.1564 341.042 56.1274 341.042 53.9H340.042C340.042 55.9392 339.502 57.7769 338.423 59.4264L339.26 59.9736ZM341.042 53.9C341.042 51.6726 340.448 49.6734 339.255 47.9188L338.428 48.4812C339.502 50.0599 340.042 51.8608 340.042 53.9H341.042ZM339.268 47.938C338.154 46.1277 336.653 44.7314 334.772 43.7561L334.312 44.6439C336.031 45.5353 337.397 46.8056 338.416 48.462L339.268 47.938ZM334.779 43.7598C332.977 42.7894 331.096 42.3 329.142 42.3V43.3C330.921 43.3 332.64 43.7439 334.305 44.6402L334.779 43.7598ZM329.142 42.3C326.206 42.3 323.913 43.3579 322.339 45.5043L323.145 46.0957C324.504 44.2421 326.477 43.3 329.142 43.3V42.3ZM322.339 45.5043C320.789 47.6167 320.042 50.4323 320.042 53.9H321.042C321.042 50.5677 321.761 47.9832 323.145 46.0957L322.339 45.5043ZM344.742 32.9C344.742 33.9677 344.955 35.0605 345.374 36.1756L346.31 35.8244C345.928 34.8062 345.742 33.8323 345.742 32.9H344.742ZM345.374 36.1756C345.579 36.7228 345.787 37.167 346.005 37.4833C346.199 37.7662 346.505 38.1 346.942 38.1V37.1C347.045 37.1 347.001 37.1672 346.829 36.9167C346.68 36.6996 346.505 36.3438 346.31 35.8244L345.374 36.1756ZM346.942 38.1C347.378 38.1 347.684 37.7662 347.879 37.4833C348.096 37.167 348.305 36.7228 348.51 36.1756L347.574 35.8244C347.379 36.3438 347.204 36.6996 347.055 36.9167C346.883 37.1672 346.839 37.1 346.942 37.1V38.1ZM348.51 36.1756C348.928 35.0605 349.142 33.9677 349.142 32.9H348.142C348.142 33.8323 347.955 34.8062 347.574 35.8244L348.51 36.1756ZM349.142 32.9C349.142 31.9637 348.997 31.1763 348.64 30.6086C348.258 30.0021 347.667 29.7 346.942 29.7V30.7C347.35 30.7 347.609 30.8479 347.794 31.1414C348.003 31.4737 348.142 32.0363 348.142 32.9H349.142ZM346.942 29.7C346.217 29.7 345.626 30.0021 345.244 30.6086C344.886 31.1763 344.742 31.9637 344.742 32.9H345.742C345.742 32.0363 345.881 31.4737 346.09 31.1414C346.275 30.8479 346.533 30.7 346.942 30.7V29.7ZM408.225 44.6L408.579 44.9536L408.596 44.9368L408.611 44.9185L408.225 44.6ZM406.125 44.7L405.833 45.1058L405.841 45.111L405.848 45.116L406.125 44.7ZM396.925 43.1L397 43.5945L397.012 43.5927L397.023 43.5903L396.925 43.1ZM389.725 47.2L390.09 47.5427L390.094 47.5374L389.725 47.2ZM385.825 80.7L385.472 80.3464L385.825 80.7ZM369.125 80.7L368.746 81.0254L368.771 81.0546L368.8 81.0796L369.125 80.7ZM386.525 33.8H386.025V35.1726L386.908 34.1216L386.525 33.8ZM392.725 29.2L392.953 29.6451L392.962 29.6406L392.725 29.2ZM400.525 26.7L400.498 26.2006L400.485 26.2016L400.525 26.7ZM402.325 26.6V26.1H402.312L402.298 26.1008L402.325 26.6ZM416.425 33L416.049 33.3293L416.06 33.3418L416.072 33.3535L416.425 33ZM416.325 34.8L416.711 35.1185L416.727 35.0987L416.741 35.0774L416.325 34.8ZM373.825 36L374.294 35.8244L373.825 36ZM376.025 36L375.557 35.8244L376.025 36ZM407.872 44.2464C407.593 44.5253 407.379 44.6 407.225 44.6V45.6C407.738 45.6 408.191 45.3414 408.579 44.9536L407.872 44.2464ZM407.225 44.6C407.025 44.6 406.755 44.5189 406.403 44.284L405.848 45.116C406.296 45.4144 406.759 45.6 407.225 45.6V44.6ZM406.418 44.2942C404.646 43.0184 402.402 42.4 399.725 42.4V43.4C402.249 43.4 404.272 43.9816 405.833 45.1058L406.418 44.2942ZM399.725 42.4C398.513 42.4 397.542 42.4668 396.827 42.6097L397.023 43.5903C397.642 43.4665 398.537 43.4 399.725 43.4V42.4ZM396.851 42.6055C394.052 43.0254 391.553 44.4599 389.356 46.8626L390.094 47.5374C392.164 45.2734 394.465 43.9746 397 43.5945L396.851 42.6055ZM389.361 46.8573C387.154 49.2029 386.025 51.8214 386.025 54.7H387.025C387.025 52.1119 388.03 49.7305 390.09 47.5427L389.361 46.8573ZM386.025 54.7V79.2H387.025V54.7H386.025ZM386.025 79.2C386.025 79.5707 385.868 79.95 385.472 80.3464L386.179 81.0536C386.716 80.5167 387.025 79.896 387.025 79.2H386.025ZM385.472 80.3464C385.172 80.6465 384.802 80.8 384.325 80.8V81.8C385.049 81.8 385.679 81.5535 386.179 81.0536L385.472 80.3464ZM384.325 80.8H370.725V81.8H384.325V80.8ZM370.725 80.8C370.248 80.8 369.829 80.6448 369.451 80.3204L368.8 81.0796C369.355 81.5552 370.003 81.8 370.725 81.8V80.8ZM369.505 80.3746C369.181 79.9961 369.025 79.5775 369.025 79.1H368.025C368.025 79.8225 368.27 80.4705 368.746 81.0254L369.505 80.3746ZM369.025 79.1V28.2H368.025V79.1H369.025ZM369.025 28.2C369.025 27.5437 369.189 27.1434 369.429 26.9036C369.669 26.6637 370.069 26.5 370.725 26.5V25.5C369.915 25.5 369.215 25.7029 368.722 26.1964C368.228 26.69 368.025 27.3896 368.025 28.2H369.025ZM370.725 26.5H384.325V25.5H370.725V26.5ZM384.325 26.5C384.982 26.5 385.382 26.6637 385.622 26.9036C385.862 27.1434 386.025 27.5437 386.025 28.2H387.025C387.025 27.3896 386.822 26.69 386.329 26.1964C385.835 25.7029 385.136 25.5 384.325 25.5V26.5ZM386.025 28.2V33.8H387.025V28.2H386.025ZM386.908 34.1216C388.252 32.5224 390.257 31.0262 392.953 29.645L392.497 28.755C389.727 30.1738 387.599 31.7443 386.143 33.4784L386.908 34.1216ZM392.962 29.6406C395.649 28.1985 398.183 27.3916 400.566 27.1984L400.485 26.2016C397.935 26.4084 395.268 27.2682 392.489 28.7594L392.962 29.6406ZM400.553 27.1992L402.353 27.0992L402.298 26.1008L400.498 26.2008L400.553 27.1992ZM402.325 27.1C407.848 27.1 412.411 29.171 416.049 33.3293L416.802 32.6707C412.973 28.2956 408.136 26.1 402.325 26.1V27.1ZM416.072 33.3535C416.161 33.4432 416.225 33.5738 416.225 33.8H417.225C417.225 33.3595 417.089 32.9568 416.779 32.6464L416.072 33.3535ZM416.225 33.8C416.225 33.9164 416.159 34.1476 415.909 34.5226L416.741 35.0774C417.025 34.6524 417.225 34.217 417.225 33.8H416.225ZM415.94 34.4815L407.84 44.2815L408.611 44.9185L416.711 35.1185L415.94 34.4815ZM372.725 32.9C372.725 33.9677 372.939 35.0605 373.357 36.1756L374.294 35.8244C373.912 34.8062 373.725 33.8323 373.725 32.9H372.725ZM373.357 36.1756C373.562 36.7228 373.771 37.167 373.988 37.4833C374.183 37.7662 374.489 38.1 374.925 38.1V37.1C375.029 37.1 374.985 37.1672 374.812 36.9167C374.663 36.6996 374.488 36.3438 374.294 35.8244L373.357 36.1756ZM374.925 38.1C375.362 38.1 375.668 37.7662 375.862 37.4833C376.08 37.167 376.288 36.7228 376.494 36.1756L375.557 35.8244C375.362 36.3438 375.188 36.6996 375.038 36.9167C374.866 37.1672 374.822 37.1 374.925 37.1V38.1ZM376.494 36.1756C376.912 35.0605 377.125 33.9677 377.125 32.9H376.125C376.125 33.8323 375.939 34.8062 375.557 35.8244L376.494 36.1756ZM377.125 32.9C377.125 31.9637 376.981 31.1763 376.624 30.6086C376.242 30.0021 375.65 29.7 374.925 29.7V30.7C375.334 30.7 375.592 30.8479 375.777 31.1414C375.987 31.4737 376.125 32.0363 376.125 32.9H377.125ZM374.925 29.7C374.201 29.7 373.609 30.0021 373.227 30.6086C372.87 31.1763 372.725 31.9637 372.725 32.9H373.725C373.725 32.0363 373.864 31.4737 374.074 31.1414C374.258 30.8479 374.517 30.7 374.925 30.7V29.7ZM425.225 35.9L424.756 35.7244L425.225 35.9ZM423.025 35.9L423.493 35.7244L423.025 35.9ZM430.725 26V26.5H431.225V26H430.725ZM448.725 26H448.225V26.5H448.725V26ZM462.025 26.7L461.645 27.0254L461.67 27.0546L461.699 27.0796L462.025 26.7ZM462.025 41.4L461.699 41.0204L461.685 41.0329L461.671 41.0464L462.025 41.4ZM448.725 42V41.5H448.225V42H448.725ZM450.425 64L450.121 64.3972L450.134 64.407L450.147 64.416L450.425 64ZM461.125 81.3V80.8L461.119 80.8L461.125 81.3ZM451.925 81.4L451.929 81.9L451.93 81.9L451.925 81.4ZM436.125 76.5L435.781 76.8636L435.788 76.87L436.125 76.5ZM430.725 42H431.225V41.5H430.725V42ZM436.025 22.4L435.556 22.5756L436.025 22.4ZM438.225 22.4L438.693 22.5756L438.225 22.4ZM424.125 38C424.561 38 424.867 37.6661 425.062 37.3833C425.279 37.067 425.488 36.6228 425.693 36.0756L424.756 35.7244C424.562 36.2438 424.387 36.5996 424.238 36.8167C424.065 37.0672 424.021 37 424.125 37V38ZM425.693 36.0756C426.111 34.9605 426.325 33.8677 426.325 32.8H425.325C425.325 33.7323 425.138 34.7062 424.756 35.7244L425.693 36.0756ZM426.325 32.8C426.325 31.8637 426.18 31.0763 425.823 30.5086C425.441 29.9021 424.849 29.6 424.125 29.6V30.6C424.533 30.6 424.792 30.7479 424.977 31.0414C425.186 31.3737 425.325 31.9363 425.325 32.8H426.325ZM424.125 29.6C423.4 29.6 422.808 29.9021 422.427 30.5086C422.069 31.0763 421.925 31.8637 421.925 32.8H422.925C422.925 31.9363 423.063 31.3737 423.273 31.0414C423.458 30.7479 423.716 30.6 424.125 30.6V29.6ZM421.925 32.8C421.925 33.8677 422.138 34.9605 422.556 36.0756L423.493 35.7244C423.111 34.7062 422.925 33.7323 422.925 32.8H421.925ZM422.556 36.0756C422.762 36.6228 422.97 37.067 423.188 37.3833C423.382 37.6661 423.688 38 424.125 38V37C424.228 37 424.184 37.0672 424.012 36.8167C423.862 36.5996 423.688 36.2438 423.493 35.7244L422.556 36.0756ZM418.225 28.2C418.225 27.5437 418.388 27.1434 418.628 26.9036C418.868 26.6637 419.268 26.5 419.925 26.5V25.5C419.114 25.5 418.415 25.7029 417.921 26.1964C417.428 26.69 417.225 27.3896 417.225 28.2H418.225ZM419.925 26.5H430.725V25.5H419.925V26.5ZM431.225 26V14.7H430.225V26H431.225ZM431.225 14.7C431.225 14.0437 431.388 13.6434 431.628 13.4035C431.868 13.1637 432.268 13 432.925 13V12C432.114 12 431.415 12.2029 430.921 12.6964C430.428 13.1899 430.225 13.8896 430.225 14.7H431.225ZM432.925 13H446.525V12H432.925V13ZM446.525 13C447.181 13 447.581 13.1637 447.821 13.4035C448.061 13.6434 448.225 14.0437 448.225 14.7H449.225C449.225 13.8896 449.022 13.1899 448.528 12.6964C448.035 12.2029 447.335 12 446.525 12V13ZM448.225 14.7V26H449.225V14.7H448.225ZM448.725 26.5H460.525V25.5H448.725V26.5ZM460.525 26.5C460.975 26.5 461.337 26.6664 461.645 27.0254L462.404 26.3746C461.912 25.8002 461.275 25.5 460.525 25.5V26.5ZM461.699 27.0796C462.058 27.3873 462.225 27.75 462.225 28.2H463.225C463.225 27.45 462.924 26.8127 462.35 26.3204L461.699 27.0796ZM462.225 28.2V39.8H463.225V28.2H462.225ZM462.225 39.8C462.225 40.3347 462.045 40.7241 461.699 41.0204L462.35 41.7796C462.938 41.2759 463.225 40.5986 463.225 39.8H462.225ZM461.671 41.0464C461.371 41.3465 461.001 41.5 460.525 41.5V42.5C461.248 42.5 461.878 42.2534 462.378 41.7536L461.671 41.0464ZM460.525 41.5H448.725V42.5H460.525V41.5ZM448.225 42V59.2H449.225V42H448.225ZM448.225 59.2C448.225 61.5905 448.802 63.3889 450.121 64.3972L450.728 63.6028C449.78 62.8778 449.225 61.4762 449.225 59.2H448.225ZM450.147 64.416C450.831 64.8719 451.793 65.1876 452.99 65.3928C454.194 65.5992 455.675 65.7 457.425 65.7V64.7C455.708 64.7 454.288 64.6008 453.159 64.4072C452.023 64.2124 451.218 63.9281 450.702 63.584L450.147 64.416ZM457.425 65.7H461.125V64.7H457.425V65.7ZM461.125 65.7C461.714 65.7 462.065 65.8471 462.271 66.0536C462.478 66.26 462.625 66.6104 462.625 67.2H463.625C463.625 66.4563 463.438 65.8066 462.978 65.3464C462.518 64.8863 461.868 64.7 461.125 64.7V65.7ZM462.625 67.2V79.3H463.625V67.2H462.625ZM462.625 79.3C462.625 79.8896 462.478 80.24 462.271 80.4464C462.065 80.6529 461.714 80.8 461.125 80.8V81.8C461.868 81.8 462.518 81.6137 462.978 81.1536C463.438 80.6934 463.625 80.0437 463.625 79.3H462.625ZM461.119 80.8L451.919 80.9L451.93 81.9L461.13 81.8L461.119 80.8ZM451.92 80.9C445.13 80.9659 440.004 79.3505 436.461 76.13L435.788 76.87C439.579 80.3161 444.986 81.9674 451.929 81.9L451.92 80.9ZM436.468 76.1365C432.995 72.8566 431.225 68.1048 431.225 61.8H430.225C430.225 68.2952 432.054 73.3434 435.781 76.8635L436.468 76.1365ZM431.225 61.8V42H430.225V61.8H431.225ZM430.725 41.5H419.925V42.5H430.725V41.5ZM419.925 41.5C419.268 41.5 418.868 41.3363 418.628 41.0964C418.388 40.8566 418.225 40.4563 418.225 39.8H417.225C417.225 40.6104 417.428 41.31 417.921 41.8036C418.415 42.2971 419.114 42.5 419.925 42.5V41.5ZM418.225 39.8V28.2H417.225V39.8H418.225ZM434.925 19.3C434.925 20.3677 435.138 21.4605 435.556 22.5756L436.493 22.2244C436.111 21.2062 435.925 20.2323 435.925 19.3H434.925ZM435.556 22.5756C435.762 23.1228 435.97 23.567 436.188 23.8833C436.382 24.1661 436.688 24.5 437.125 24.5V23.5C437.228 23.5 437.184 23.5672 437.012 23.3167C436.862 23.0996 436.688 22.7438 436.493 22.2244L435.556 22.5756ZM437.125 24.5C437.561 24.5 437.867 24.1661 438.062 23.8833C438.279 23.567 438.488 23.1228 438.693 22.5756L437.756 22.2244C437.562 22.7438 437.387 23.0996 437.238 23.3167C437.065 23.5672 437.021 23.5 437.125 23.5V24.5ZM438.693 22.5756C439.111 21.4605 439.325 20.3677 439.325 19.3H438.325C438.325 20.2323 438.138 21.2062 437.756 22.2244L438.693 22.5756ZM439.325 19.3C439.325 18.3637 439.18 17.5762 438.823 17.0086C438.441 16.4021 437.849 16.1 437.125 16.1V17.1C437.533 17.1 437.792 17.2479 437.977 17.5414C438.186 17.8737 438.325 18.4363 438.325 19.3H439.325ZM437.125 16.1C436.4 16.1 435.808 16.4021 435.427 17.0086C435.069 17.5762 434.925 18.3637 434.925 19.3H435.925C435.925 18.4363 436.063 17.8737 436.273 17.5414C436.458 17.2479 436.716 17.1 437.125 17.1V16.1ZM467.962 33.9L468.405 33.6678L468.398 33.6551L468.391 33.6427L467.962 33.9ZM468.862 31.2L469.02 31.6743L469.049 31.6647L469.077 31.6515L468.862 31.2ZM481.262 25.3L481.477 25.7515L481.509 25.736L481.539 25.716L481.262 25.3ZM483.962 26.2L483.492 26.3709L483.501 26.3951L483.512 26.4183L483.962 26.2ZM498.762 56.7L498.312 56.9183L498.791 57.904L499.222 56.8968L498.762 56.7ZM511.562 26.8L512.022 26.9968L512.026 26.9863L512.03 26.9756L511.562 26.8ZM514.462 25.5L514.639 25.0323L514.638 25.0318L514.462 25.5ZM526.362 30L526.185 30.4677L526.195 30.4712L526.204 30.4743L526.362 30ZM527.662 31.1L527.215 31.3236L527.662 31.1ZM527.662 32.7L527.215 32.4764L527.21 32.4864L527.205 32.4966L527.662 32.7ZM504.462 84.8L504.918 85.0048L504.919 85.0034L504.462 84.8ZM473.862 101.1L473.78 101.593L473.789 101.595L473.862 101.1ZM474.162 86.6L474.138 87.0994L474.142 87.0996L474.162 86.6ZM488.262 78L487.806 77.7955L487.805 77.7969L488.262 78ZM489.562 75.1L490.018 75.3045L490.118 75.0829L490.005 74.8678L489.562 75.1ZM475.862 38L475.394 38.1756L475.862 38ZM478.062 38L478.53 38.1756L478.062 38ZM468.391 33.6427C468.23 33.374 468.162 33.1286 468.162 32.9H467.162C467.162 33.3381 467.295 33.7593 467.533 34.1572L468.391 33.6427ZM468.162 32.9C468.162 32.544 468.244 32.2933 468.371 32.1133C468.497 31.9345 468.699 31.7814 469.02 31.6743L468.704 30.7257C468.225 30.8853 467.827 31.1488 467.554 31.5367C467.281 31.9233 467.162 32.3894 467.162 32.9H468.162ZM469.077 31.6515L481.477 25.7515L481.047 24.8485L468.647 30.7485L469.077 31.6515ZM481.539 25.716C481.61 25.6688 481.816 25.6 482.262 25.6V24.6C481.775 24.6 481.314 24.6646 480.985 24.884L481.539 25.716ZM482.262 25.6C482.626 25.6 482.883 25.6768 483.065 25.7948C483.244 25.91 483.39 26.0899 483.492 26.3709L484.432 26.0291C484.268 25.5767 483.997 25.2067 483.609 24.9552C483.224 24.7065 482.765 24.6 482.262 24.6V25.6ZM483.512 26.4183L498.312 56.9183L499.212 56.4817L484.412 25.9817L483.512 26.4183ZM499.222 56.8968L512.022 26.9968L511.102 26.6032L498.302 56.5032L499.222 56.8968ZM512.03 26.9756C512.176 26.5872 512.467 26.2782 512.965 26.0569L512.559 25.1431C511.857 25.4552 511.348 25.9462 511.094 26.6244L512.03 26.9756ZM512.965 26.0569C513.465 25.8347 513.895 25.8213 514.287 25.9682L514.638 25.0318C513.963 24.7787 513.259 24.832 512.559 25.1431L512.965 26.0569ZM514.285 25.9677L526.185 30.4677L526.539 29.5323L514.639 25.0323L514.285 25.9677ZM526.204 30.4743C526.687 30.6352 527.011 30.9166 527.215 31.3236L528.109 30.8764C527.779 30.2167 527.238 29.7648 526.52 29.5257L526.204 30.4743ZM527.215 31.3236C527.411 31.7162 527.411 32.0838 527.215 32.4764L528.109 32.9236C528.446 32.2495 528.446 31.5505 528.109 30.8764L527.215 31.3236ZM527.205 32.4966L504.005 84.5966L504.919 85.0034L528.119 32.9034L527.205 32.4966ZM504.006 84.5952C501.536 90.0959 498.273 94.1896 494.233 96.9103C490.194 99.6297 485.345 101 479.662 101V102C485.512 102 490.563 100.587 494.791 97.7397C499.018 94.8937 502.389 90.6375 504.918 85.0048L504.006 84.5952ZM479.662 101C477.617 101 475.708 100.868 473.935 100.605L473.789 101.595C475.616 101.865 477.574 102 479.662 102V101ZM473.944 100.607C473.423 100.52 473.094 100.335 472.892 100.1C472.69 99.8646 472.562 99.5173 472.562 99H471.562C471.562 99.6827 471.734 100.285 472.133 100.75C472.53 101.215 473.102 101.48 473.78 101.593L473.944 100.607ZM472.562 99V88.5H471.562V99H472.562ZM472.562 88.5C472.562 87.9147 472.715 87.5838 472.923 87.3958C473.136 87.2029 473.507 87.0694 474.138 87.0994L474.186 86.1006C473.417 86.064 472.738 86.2138 472.252 86.6542C471.759 87.0995 471.562 87.7519 471.562 88.5H472.562ZM474.142 87.0996C477.585 87.236 480.546 86.572 482.997 85.0769C485.45 83.5811 487.353 81.2776 488.719 78.2031L487.805 77.7969C486.505 80.7224 484.724 82.8522 482.477 84.2231C480.228 85.5947 477.472 86.2307 474.182 86.1004L474.142 87.0996ZM488.718 78.2045L490.018 75.3045L489.106 74.8955L487.806 77.7955L488.718 78.2045ZM490.005 74.8678L468.405 33.6678L467.519 34.1322L489.119 75.3322L490.005 74.8678ZM474.762 34.9C474.762 35.9677 474.976 37.0605 475.394 38.1756L476.33 37.8244C475.948 36.8062 475.762 35.8323 475.762 34.9H474.762ZM475.394 38.1756C475.599 38.7228 475.808 39.167 476.025 39.4833C476.22 39.7662 476.526 40.1 476.962 40.1V39.1C477.065 39.1 477.021 39.1672 476.849 38.9167C476.7 38.6996 476.525 38.3438 476.33 37.8244L475.394 38.1756ZM476.962 40.1C477.399 40.1 477.705 39.7662 477.899 39.4833C478.117 39.167 478.325 38.7228 478.53 38.1756L477.594 37.8244C477.399 38.3438 477.224 38.6996 477.075 38.9167C476.903 39.1672 476.859 39.1 476.962 39.1V40.1ZM478.53 38.1756C478.948 37.0605 479.162 35.9677 479.162 34.9H478.162C478.162 35.8323 477.976 36.8062 477.594 37.8244L478.53 38.1756ZM479.162 34.9C479.162 33.9637 479.018 33.1763 478.66 32.6086C478.278 32.0021 477.687 31.7 476.962 31.7V32.7C477.371 32.7 477.629 32.8479 477.814 33.1414C478.023 33.4737 478.162 34.0363 478.162 34.9H479.162ZM476.962 31.7C476.237 31.7 475.646 32.0021 475.264 32.6086C474.907 33.1763 474.762 33.9637 474.762 34.9H475.762C475.762 34.0363 475.901 33.4737 476.11 33.1414C476.295 32.8479 476.554 32.7 476.962 32.7V31.7Z" fill="#00FF0A" mask="url(#path-1-outside-1_69_24)"/>
</svg>
