<svg width="28" height="28" viewBox="0 0 28 28" fill="none" xmlns="http://www.w3.org/2000/svg">
<path d="M13.9987 1C21.732 1 28 5.88533 28 11.9133C28 17.94 21.732 22.8253 14 22.8253C13.2301 22.8257 12.461 22.7767 11.6973 22.6787L5.82 26.5227C5.152 26.876 4.916 26.8373 5.19067 25.972L6.38 21.068C2.54 19.1213 0 15.748 0 11.9133C0 5.88667 6.26667 1 14 1M21.8773 11.7467L23.8373 9.848C23.9504 9.73054 24.0135 9.57378 24.0133 9.41073C24.0131 9.24767 23.9497 9.09106 23.8363 8.97388C23.7229 8.8567 23.5685 8.78809 23.4055 8.78252C23.2425 8.77695 23.0838 8.83484 22.9627 8.944L20.392 11.432V9.376C20.392 9.20909 20.3257 9.04902 20.2077 8.93099C20.0896 8.81297 19.9296 8.74667 19.7627 8.74667C19.5958 8.74667 19.4357 8.81297 19.3177 8.93099C19.1996 9.04902 19.1333 9.20909 19.1333 9.376V12.7853C19.1098 12.8826 19.1098 12.9841 19.1333 13.0813V15C19.1333 15.1669 19.1996 15.327 19.3177 15.445C19.4357 15.563 19.5958 15.6293 19.7627 15.6293C19.9296 15.6293 20.0896 15.563 20.2077 15.445C20.3257 15.327 20.392 15.1669 20.392 15V13.1827L20.9613 12.632L22.8653 15.3427C22.9129 15.4103 22.9733 15.468 23.0431 15.5123C23.1129 15.5567 23.1908 15.5868 23.2722 15.601C23.3537 15.6153 23.4372 15.6133 23.5179 15.5953C23.5986 15.5773 23.675 15.5435 23.7427 15.496C23.8103 15.4485 23.868 15.3881 23.9123 15.3182C23.9567 15.2484 23.9868 15.1706 24.001 15.0891C24.0153 15.0076 24.0133 14.9241 23.9953 14.8434C23.9773 14.7627 23.9435 14.6863 23.896 14.6187L21.8773 11.7467ZM17.9333 14.312H15.9867V9.396C15.9792 9.23428 15.9097 9.08164 15.7926 8.96983C15.6756 8.85802 15.5199 8.79563 15.358 8.79563C15.1961 8.79563 15.0404 8.85802 14.9234 8.96983C14.8063 9.08164 14.7368 9.23428 14.7293 9.396V14.9413C14.7293 15.288 15.0093 15.5707 15.3573 15.5707H17.9333C18.1002 15.5707 18.2603 15.5044 18.3783 15.3863C18.4964 15.2683 18.5627 15.1082 18.5627 14.9413C18.5627 14.7744 18.4964 14.6144 18.3783 14.4963C18.2603 14.3783 18.1002 14.312 17.9333 14.312ZM10.124 12.8573L11.052 10.58L11.9027 12.856L10.124 12.8573ZM13.488 13.5067L13.4907 13.4853C13.4904 13.3268 13.4298 13.1743 13.3213 13.0587L11.9267 9.32533C11.8682 9.14742 11.7568 8.99159 11.6075 8.87866C11.4581 8.76573 11.2778 8.70107 11.0907 8.69333C10.9022 8.6925 10.7179 8.74909 10.5624 8.85555C10.4069 8.96202 10.2874 9.11333 10.22 9.28933L8.004 14.7227C7.94088 14.8772 7.94173 15.0505 8.00637 15.2044C8.07101 15.3583 8.19413 15.4802 8.34867 15.5433C8.5032 15.6065 8.67648 15.6056 8.83038 15.541C8.98429 15.4763 9.10621 15.3532 9.16933 15.1987L9.612 14.1147H12.372L12.7693 15.1813C12.7964 15.2611 12.8393 15.3345 12.8953 15.3974C12.9513 15.4603 13.0194 15.5113 13.0955 15.5474C13.1716 15.5835 13.2541 15.6039 13.3382 15.6075C13.4224 15.6111 13.5064 15.5978 13.5853 15.5684C13.6642 15.5389 13.7363 15.4939 13.7975 15.4361C13.8587 15.3782 13.9077 15.3087 13.9415 15.2316C13.9753 15.1544 13.9933 15.0713 13.9945 14.9871C13.9956 14.9029 13.9798 14.8193 13.948 14.7413L13.488 13.5067ZM9.05733 9.40267C9.05733 9.23599 8.99121 9.07612 8.87348 8.95813C8.75574 8.84015 8.59601 8.77369 8.42933 8.77333H4.10267C3.93576 8.77333 3.77568 8.83964 3.65766 8.95766C3.53964 9.07568 3.47333 9.23576 3.47333 9.40267C3.47333 9.56958 3.53964 9.72965 3.65766 9.84767C3.77568 9.9657 3.93576 10.032 4.10267 10.032H5.64933V15.0133C5.64933 15.1802 5.71564 15.3403 5.83366 15.4583C5.95168 15.5764 6.11176 15.6427 6.27867 15.6427C6.44558 15.6427 6.60565 15.5764 6.72367 15.4583C6.8417 15.3403 6.908 15.1802 6.908 15.0133V10.032H8.428C8.59491 10.032 8.75498 9.9657 8.87301 9.84767C8.99103 9.72965 9.05733 9.56958 9.05733 9.40267Z" fill="#362B17"/>
</svg>
