<svg width="28" height="28" viewBox="0 0 28 28" fill="none" xmlns="http://www.w3.org/2000/svg">
<path d="M22.1667 4.66659H19.8333V3.49992C19.8333 3.1905 19.7104 2.89375 19.4916 2.67496C19.2728 2.45617 18.9761 2.33325 18.6667 2.33325C18.3572 2.33325 18.0605 2.45617 17.8417 2.67496C17.6229 2.89375 17.5 3.1905 17.5 3.49992V4.66659H10.5V3.49992C10.5 3.1905 10.3771 2.89375 10.1583 2.67496C9.9395 2.45617 9.64275 2.33325 9.33333 2.33325C9.02391 2.33325 8.72717 2.45617 8.50838 2.67496C8.28958 2.89375 8.16667 3.1905 8.16667 3.49992V4.66659H5.83333C4.90508 4.66659 4.01484 5.03533 3.35846 5.69171C2.70208 6.34809 2.33333 7.23833 2.33333 8.16658V22.1666C2.33333 23.0948 2.70208 23.9851 3.35846 24.6415C4.01484 25.2978 4.90508 25.6666 5.83333 25.6666H22.1667C23.0949 25.6666 23.9852 25.2978 24.6415 24.6415C25.2979 23.9851 25.6667 23.0948 25.6667 22.1666V8.16658C25.6667 7.23833 25.2979 6.34809 24.6415 5.69171C23.9852 5.03533 23.0949 4.66659 22.1667 4.66659ZM23.3333 22.1666C23.3333 22.476 23.2104 22.7728 22.9916 22.9915C22.7728 23.2103 22.4761 23.3333 22.1667 23.3333H5.83333C5.52391 23.3333 5.22717 23.2103 5.00838 22.9915C4.78958 22.7728 4.66667 22.476 4.66667 22.1666V13.9999H23.3333V22.1666ZM23.3333 11.6666H4.66667V8.16658C4.66667 7.85717 4.78958 7.56042 5.00838 7.34163C5.22717 7.12284 5.52391 6.99992 5.83333 6.99992H8.16667V8.16658C8.16667 8.476 8.28958 8.77275 8.50838 8.99154C8.72717 9.21034 9.02391 9.33325 9.33333 9.33325C9.64275 9.33325 9.9395 9.21034 10.1583 8.99154C10.3771 8.77275 10.5 8.476 10.5 8.16658V6.99992H17.5V8.16658C17.5 8.476 17.6229 8.77275 17.8417 8.99154C18.0605 9.21034 18.3572 9.33325 18.6667 9.33325C18.9761 9.33325 19.2728 9.21034 19.4916 8.99154C19.7104 8.77275 19.8333 8.476 19.8333 8.16658V6.99992H22.1667C22.4761 6.99992 22.7728 7.12284 22.9916 7.34163C23.2104 7.56042 23.3333 7.85717 23.3333 8.16658V11.6666Z" fill="#D8D8D8"/>
</svg>
