<?xml version="1.0" encoding="UTF-8"?>
<!DOCTYPE svg PUBLIC "-//W3C//DTD SVG 1.1//EN" "http://www.w3.org/Graphics/SVG/1.1/DTD/svg11.dtd">
<svg xmlns="http://www.w3.org/2000/svg" version="1.1" width="512px" height="512px" style="shape-rendering:geometricPrecision; text-rendering:geometricPrecision; image-rendering:optimizeQuality; fill-rule:evenodd; clip-rule:evenodd" xmlns:xlink="http://www.w3.org/1999/xlink">
<g><path style="opacity:0.953" fill="#000000" d="M 246.5,3.5 C 308.274,3.11567 349.774,31.7823 371,89.5C 384.584,147.44 367.084,193.273 318.5,227C 269.643,253.028 222.976,249.694 178.5,217C 140.273,182.309 127.44,139.809 140,89.5C 158.033,39.0821 193.533,10.4154 246.5,3.5 Z M 246.5,28.5 C 292.128,27.5476 324.628,47.5476 344,88.5C 358.43,131.954 348.597,168.787 314.5,199C 275.167,226.333 235.833,226.333 196.5,199C 162.226,168.825 152.393,131.992 167,88.5C 182.761,54.2356 209.261,34.2356 246.5,28.5 Z"/></g>
<g><path style="opacity:0.945" fill="#000000" d="M 300.5,75.5 C 314.938,75.4186 319.772,82.0853 315,95.5C 292.536,120.966 269.703,146.132 246.5,171C 242.167,173 237.833,173 233.5,171C 220.637,158.471 208.137,145.638 196,132.5C 191.448,123.769 193.614,117.269 202.5,113C 205.928,112.299 209.262,112.632 212.5,114C 221.667,123.167 230.833,132.333 240,141.5C 259.38,118.626 279.547,96.6265 300.5,75.5 Z"/></g>
<g><path style="opacity:0.953" fill="#000000" d="M 246.5,266.5 C 308.274,266.116 349.774,294.782 371,352.5C 384.584,410.44 367.084,456.273 318.5,490C 269.639,516.028 222.972,512.694 178.5,480C 140.273,445.309 127.44,402.809 140,352.5C 158.033,302.082 193.533,273.415 246.5,266.5 Z M 247.5,291.5 C 292.733,290.85 324.9,310.85 344,351.5C 358.43,394.954 348.597,431.787 314.5,462C 275.167,489.333 235.833,489.333 196.5,462C 162.226,431.825 152.393,394.992 167,351.5C 182.89,316.772 209.723,296.772 247.5,291.5 Z"/></g>
<g><path style="opacity:0.942" fill="#000000" d="M 212.5,336.5 C 217.121,335.993 221.454,336.826 225.5,339C 235.347,349.014 245.347,358.848 255.5,368.5C 265.653,358.848 275.653,349.014 285.5,339C 296.497,333.5 303.497,336.667 306.5,348.5C 306.17,351.324 305.336,353.991 304,356.5C 293.833,366.667 283.667,376.833 273.5,387C 283.667,397.167 293.833,407.333 304,417.5C 308.058,424.65 306.892,430.816 300.5,436C 295.343,438.168 290.343,437.835 285.5,435C 275.653,424.986 265.653,415.152 255.5,405.5C 245.347,415.152 235.347,424.986 225.5,435C 214.503,440.5 207.503,437.333 204.5,425.5C 204.83,422.676 205.664,420.009 207,417.5C 217.167,407.333 227.333,397.167 237.5,387C 226.637,376.471 216.137,365.637 206,354.5C 203.368,346.765 205.535,340.765 212.5,336.5 Z"/></g>
</svg>
